<svg xmlns="http://www.w3.org/2000/svg" width="22" height="16.502" viewBox="0 0 22 16.502">
  <path id="Camera_Icon" data-name="Camera Icon" d="M20.582,16.5H1.418A1.427,1.427,0,0,1,0,15.069V4.662A1.427,1.427,0,0,1,1.418,3.23H4.792a.793.793,0,0,0,.655-.348L7.016.566A1.633,1.633,0,0,1,8.159,0h5.684a1.629,1.629,0,0,1,1.141.566l1.562,2.3a.821.821,0,0,0,.678.36h3.359A1.426,1.426,0,0,1,22,4.662V15.069A1.427,1.427,0,0,1,20.582,16.5ZM11,4.664a5.022,5.022,0,1,0,4.967,5.022A5,5,0,0,0,11,4.664Zm6.032-.358a.717.717,0,1,0,.71.717A.714.714,0,0,0,17.033,4.306ZM11,13.631a3.946,3.946,0,1,1,3.9-3.946A3.929,3.929,0,0,1,11,13.631ZM4.258,2.153H1.419V1.436A.714.714,0,0,1,2.129.718h1.42a.714.714,0,0,1,.709.717v.716Z" transform="translate(0)" fill="#fff"/>
</svg>
