<svg xmlns="http://www.w3.org/2000/svg" xmlns:xlink="http://www.w3.org/1999/xlink" width="16" height="16" viewBox="0 0 16 16">
  <defs>
    <clipPath id="clip-path">
      <rect id="Rectangle_8404" data-name="Rectangle 8404" width="16" height="16" transform="translate(-18646 -9383)" fill="#aaa" stroke="#707070" stroke-width="1"/>
    </clipPath>
  </defs>
  <g id="Mask_Group_668" data-name="Mask Group 668" transform="translate(18646 9383)" clip-path="url(#clip-path)">
    <g id="visibility_off" data-name="visibility off" transform="translate(-18646 -9382.988)">
      <g id="Layer_2" data-name="Layer 2" transform="translate(0 0)">
        <g id="Layer_1" data-name="Layer 1">
          <g id="visibility_off-2" data-name="visibility off">
            <path id="Path_53008" data-name="Path 53008" d="M15.319,15.976a.674.674,0,0,1-.479-.2L.217,1.156A.677.677,0,1,1,1.173.2L15.8,14.82a.677.677,0,0,1,0,.959A.663.663,0,0,1,15.319,15.976Z" transform="translate(-0.007 0)" fill="#aaa"/>
            <path id="Path_53009" data-name="Path 53009" d="M7.994,16.225c-3.339,0-6.139-2.5-7.512-3.994a1.8,1.8,0,0,1,0-2.453A14.111,14.111,0,0,1,4.731,6.553.678.678,0,1,1,5.3,7.782,13.108,13.108,0,0,0,1.479,10.7a.452.452,0,0,0,0,.617c.986,1.083,3.588,3.558,6.515,3.558a7.111,7.111,0,0,0,3.731-1.21.681.681,0,1,1,.731,1.148A8.5,8.5,0,0,1,7.994,16.225Z" transform="translate(-0.001 -2.163)" fill="#aaa"/>
            <path id="Path_53010" data-name="Path 53010" d="M17.954,12.884a.677.677,0,0,1-.463-1.17c.271-.252.525-.514.772-.783a.412.412,0,0,0,0-.555c-.967-1.056-3.52-3.52-6.42-3.588a.68.68,0,0,1-.661-.693.672.672,0,0,1,.693-.661c3.293.076,6.041,2.556,7.387,4.027a1.757,1.757,0,0,1,0,2.383c-.271.292-.542.579-.842.856A.68.68,0,0,1,17.954,12.884Z" transform="translate(-3.728 -1.811)" fill="#aaa"/>
            <path id="Path_53011" data-name="Path 53011" d="M10.8,14.526a2.38,2.38,0,0,1-.98-4.549.678.678,0,1,1,.569,1.232,1.026,1.026,0,1,0,1.354,1.354.677.677,0,1,1,1.235.558A2.386,2.386,0,0,1,10.8,14.526Z" transform="translate(-2.807 -3.305)" fill="#aaa"/>
          </g>
        </g>
      </g>
    </g>
  </g>
</svg>
