<svg id="Speech_Bubble" data-name="Speech Bubble" xmlns="http://www.w3.org/2000/svg" width="104" height="89.644" viewBox="0 0 104 89.644">
  <path id="Path_46894" data-name="Path 46894" d="M339.631,244.448H299.74V221.36h39.891Zm-39.648-.243h39.4V221.6h-39.4Z" transform="translate(-235.631 -175.76)" fill="#e0e0e0"/>
  <rect id="Rectangle_5016" data-name="Rectangle 5016" width="26.324" height="0.772" transform="translate(69.448 57.908)" fill="#f0f0f0"/>
  <rect id="Rectangle_5017" data-name="Rectangle 5017" width="28.137" height="0.842" transform="translate(69.448 60.788)" fill="#f0f0f0"/>
  <rect id="Rectangle_5018" data-name="Rectangle 5018" width="28.137" height="0.842" transform="translate(69.448 63.7)" fill="#f0f0f0"/>
  <rect id="Rectangle_5019" data-name="Rectangle 5019" width="9.2" height="2.004" transform="translate(69.448 53.731)" fill="#f0f0f0"/>
  <rect id="Rectangle_5020" data-name="Rectangle 5020" width="39.648" height="3.676" transform="translate(64.233 45.719)" fill="#e0e0e0"/>
  <path id="Path_46895" data-name="Path 46895" d="M450.559,226.679A6.326,6.326,0,0,1,451.7,225.3a6.537,6.537,0,0,1,1.324-1.2,6.433,6.433,0,0,1-1.142,1.378A6.307,6.307,0,0,1,450.559,226.679Z" transform="translate(-349.731 -177.832)" fill="#fff"/>
  <path id="Path_46896" data-name="Path 46896" d="M453.025,226.679a12.55,12.55,0,0,1-2.466-2.578,6.279,6.279,0,0,1,1.324,1.2A6.457,6.457,0,0,1,453.025,226.679Z" transform="translate(-349.731 -177.831)" fill="#fff"/>
  <rect id="Rectangle_5021" data-name="Rectangle 5021" width="39.648" height="22.847" transform="translate(15.259)" fill="#e6e6e6"/>
  <rect id="Rectangle_5022" data-name="Rectangle 5022" width="26.324" height="0.772" transform="translate(20.476 12.189)" fill="#f0f0f0"/>
  <rect id="Rectangle_5023" data-name="Rectangle 5023" width="28.137" height="0.842" transform="translate(20.476 15.067)" fill="#f0f0f0"/>
  <rect id="Rectangle_5024" data-name="Rectangle 5024" width="28.137" height="0.842" transform="translate(20.476 17.978)" fill="#f0f0f0"/>
  <rect id="Rectangle_5025" data-name="Rectangle 5025" width="9.2" height="2.004" transform="translate(20.476 8.009)" fill="#f0f0f0"/>
  <rect id="Rectangle_5026" data-name="Rectangle 5026" width="39.648" height="3.676" transform="translate(15.259)" fill="#e0e0e0"/>
  <path id="Path_46897" data-name="Path 46897" d="M248.839,38.8a6.392,6.392,0,0,1,1.142-1.375,5.9,5.9,0,0,1,1.329-1.2,5.923,5.923,0,0,1-1.142,1.375A6.513,6.513,0,0,1,248.839,38.8Z" transform="translate(-197.119 -35.694)" fill="#fff"/>
  <path id="Path_46898" data-name="Path 46898" d="M251.325,38.806a6.238,6.238,0,0,1-1.324-1.2,6.481,6.481,0,0,1-1.142-1.375,6.3,6.3,0,0,1,1.324,1.2A6.643,6.643,0,0,1,251.325,38.806Z" transform="translate(-197.134 -35.697)" fill="#fff"/>
  <path id="Path_46899" data-name="Path 46899" d="M76.291,136.631H36.4V113.54H76.291Zm-39.648-.243h39.4v-22.6h-39.4Z" transform="translate(-36.4 -94.188)" fill="#e0e0e0"/>
  <rect id="Rectangle_5027" data-name="Rectangle 5027" width="26.324" height="0.772" transform="translate(5.339 31.663)" fill="#f0f0f0"/>
  <rect id="Rectangle_5028" data-name="Rectangle 5028" width="28.137" height="0.842" transform="translate(5.339 34.54)" fill="#f0f0f0"/>
  <rect id="Rectangle_5029" data-name="Rectangle 5029" width="28.137" height="0.842" transform="translate(5.339 37.452)" fill="#f0f0f0"/>
  <rect id="Rectangle_5030" data-name="Rectangle 5030" width="9.2" height="2.004" transform="translate(5.339 27.483)" fill="#f0f0f0"/>
  <rect id="Rectangle_5031" data-name="Rectangle 5031" width="39.648" height="3.676" transform="translate(0.122 19.473)" fill="#e0e0e0"/>
  <rect id="Rectangle_5032" data-name="Rectangle 5032" width="46.815" height="41.912" transform="translate(39.114 47.732)" fill="#e6e6e6"/>
  <rect id="Rectangle_5033" data-name="Rectangle 5033" width="36.673" height="38.102" transform="translate(4.796 34.53)" fill="#f0f0f0"/>
  <rect id="Rectangle_5034" data-name="Rectangle 5034" width="36.673" height="4.151" transform="translate(4.796 34.53)" fill="#e0e0e0"/>
  <path id="Path_46900" data-name="Path 46900" d="M63.745,181.743a.772.772,0,1,1-.772-.8.789.789,0,0,1,.772.8Z" transform="translate(-55.921 -145.18)" fill="#fff"/>
  <path id="Path_46901" data-name="Path 46901" d="M76.581,181.743a.769.769,0,1,1-.769-.8A.786.786,0,0,1,76.581,181.743Z" transform="translate(-65.636 -145.18)" fill="#fff"/>
  <path id="Path_46902" data-name="Path 46902" d="M89.411,181.743a.769.769,0,1,1-.769-.8A.786.786,0,0,1,89.411,181.743Z" transform="translate(-75.342 -145.18)" fill="#fff"/>
  <rect id="Rectangle_5035" data-name="Rectangle 5035" width="46.815" height="46.659" transform="translate(51.951 8.333)" fill="#f0f0f0"/>
  <rect id="Rectangle_5036" data-name="Rectangle 5036" width="46.815" height="5.465" transform="translate(51.951 8.333)" fill="#e0e0e0"/>
  <path id="Path_46903" data-name="Path 46903" d="M259.879,75.989a1.013,1.013,0,1,1-1.015-1.059A1.037,1.037,0,0,1,259.879,75.989Z" transform="translate(-203.942 -64.978)" fill="#fff"/>
  <path id="Path_46904" data-name="Path 46904" d="M276.364,75.351a1.015,1.015,0,1,1-1.461-.034A1.037,1.037,0,0,1,276.364,75.351Z" transform="translate(-216.613 -65.056)" fill="#fff"/>
  <path id="Path_46905" data-name="Path 46905" d="M293.693,75.989a1.015,1.015,0,1,1-1.013-1.059A1.037,1.037,0,0,1,293.693,75.989Z" transform="translate(-229.521 -64.978)" fill="#fff"/>
  <path id="Path_46906" data-name="Path 46906" d="M318.966,250.11c-3.759-2.627-4.613-7.5-4.465-11.887a4.751,4.751,0,0,1,.292-2.145,1.5,1.5,0,0,1,1.816-.774c.543.256.781.889,1.086,1.412a4.258,4.258,0,0,0,1.716,1.638,1.626,1.626,0,0,0,1.5.136c.631-.348.706-1.217.7-1.948q-.015-2.038-.027-4.07a6.845,6.845,0,0,1,.219-2.162,2.266,2.266,0,0,1,1.419-1.526,1.386,1.386,0,0,1,1.7.918,6.6,6.6,0,0,1,.022.906.785.785,0,0,0,.448.73c.287.092.582-.119.8-.334a9.626,9.626,0,0,0,1.738-2.622,13.5,13.5,0,0,1,1.621-2.707,3.945,3.945,0,0,1,2.666-1.5,2.36,2.36,0,0,1,2.417,1.609,3.534,3.534,0,0,1-.986,2.9,16.291,16.291,0,0,1-3.384,3.226,1.329,1.329,0,0,0-.567.6c-.158.487.3.974.779,1.127a8.578,8.578,0,0,0,1.7.192,1.634,1.634,0,0,1,1.4.852c.3.745-.324,1.524-.937,2.035a13.928,13.928,0,0,1-4.117,2.378,4.684,4.684,0,0,0-1.531.742,1.345,1.345,0,0,0-.431,1.543,1.369,1.369,0,0,0,1.49.572,9.705,9.705,0,0,0,1.6-.609,2.548,2.548,0,0,1,2.933.555,2.31,2.31,0,0,1,.243,2.038,5.319,5.319,0,0,1-1.105,1.8,14.008,14.008,0,0,1-5.984,4.2,9.61,9.61,0,0,1-6.778.178" transform="translate(-246.787 -177.889)" fill="#3d6af8"/>
  <path id="Path_46907" data-name="Path 46907" d="M346.942,226.66l-.071.068-.217.192c-.19.17-.472.419-.825.747a27.173,27.173,0,0,0-2.78,3c-.54.674-1.105,1.439-1.7,2.269s-1.217,1.726-1.828,2.678a33.037,33.037,0,0,0-1.8,3.111c-.28.558-.531,1.139-.786,1.733l-.772,1.8a66.874,66.874,0,0,0-2.59,7.014,32.446,32.446,0,0,0-1.217,5.972,24,24,0,0,0-.068,4.112c.039.487.075.859.11,1.113.015.122.027.219.034.29a.515.515,0,0,1,0,.1.435.435,0,0,1-.019-.1c-.012-.071-.029-.166-.049-.287-.041-.243-.088-.628-.134-1.115a22.66,22.66,0,0,1,.027-4.124,31.871,31.871,0,0,1,1.188-6,64.871,64.871,0,0,1,2.59-7.021l.772-1.806c.243-.592.509-1.178.791-1.738a33.123,33.123,0,0,1,1.819-3.119c.626-.974,1.251-1.855,1.843-2.678s1.164-1.592,1.7-2.264a25.652,25.652,0,0,1,2.819-2.98c.358-.324.645-.567.842-.73l.224-.183A.368.368,0,0,1,346.942,226.66Z" transform="translate(-260.149 -179.77)" fill="#263238"/>
  <path id="Path_46908" data-name="Path 46908" d="M351.454,251.117a1.327,1.327,0,0,1-.071-.309c-.039-.2-.085-.487-.136-.857-.1-.73-.209-1.731-.326-2.839s-.243-2.111-.351-2.834c-.056-.36-.1-.65-.139-.852a1.73,1.73,0,0,1-.041-.316,1.412,1.412,0,0,1,.092.3c.051.2.114.487.183.85.136.73.275,1.724.39,2.834s.209,2.084.287,2.841c.036.341.068.631.093.862A1.346,1.346,0,0,1,351.454,251.117Z" transform="translate(-273.95 -192.215)" fill="#263238"/>
  <path id="Path_46909" data-name="Path 46909" d="M364.118,268.769a2.006,2.006,0,0,1-.375.044c-.243.022-.587.051-1.015.1-.857.092-2.038.263-3.33.506s-2.454.519-3.286.73c-.419.107-.755.2-.986.27a1.856,1.856,0,0,1-.365.088,2.139,2.139,0,0,1,.348-.139c.229-.08.562-.192.974-.312.828-.243,1.991-.533,3.287-.781a33.227,33.227,0,0,1,3.35-.463c.431-.037.781-.051,1.022-.056A1.925,1.925,0,0,1,364.118,268.769Z" transform="translate(-277.257 -211.615)" fill="#263238"/>
  <path id="Path_46910" data-name="Path 46910" d="M323.353,281.573a.565.565,0,0,1-.066-.114c-.044-.093-.095-.2-.161-.338-.136-.295-.324-.73-.55-1.263-.45-1.071-1.027-2.571-1.643-4.236s-1.176-3.165-1.6-4.248l-.511-1.278c-.056-.139-.1-.243-.139-.348a.471.471,0,0,1-.039-.127.566.566,0,0,1,.066.114c.041.092.095.2.158.338.139.295.326.73.553,1.263.45,1.071,1.027,2.571,1.643,4.236s1.176,3.165,1.6,4.248l.511,1.278c.056.139.1.243.136.348A.56.56,0,0,1,323.353,281.573Z" transform="translate(-249.93 -212.271)" fill="#263238"/>
  <path id="Path_46911" data-name="Path 46911" d="M350.445,302.25a.466.466,0,0,1-.122.051l-.363.122-1.332.431c-1.125.365-2.678.886-4.382,1.461s-3.262,1.086-4.394,1.427c-.567.173-1.025.3-1.344.392l-.37.095a.633.633,0,0,1-.129.027.464.464,0,0,1,.122-.051l.363-.119,1.329-.431c1.125-.365,2.678-.886,4.382-1.461s3.262-1.086,4.382-1.427c.565-.173,1.025-.3,1.344-.392l.368-.095A.662.662,0,0,1,350.445,302.25Z" transform="translate(-264.584 -236.958)" fill="#263238"/>
  <path id="Path_46912" data-name="Path 46912" d="M323.906,43.822l-1.256.448-.536-1.638a5.5,5.5,0,0,0-7.036-3.605,5.852,5.852,0,0,0-3.445,7.355l.536,1.638-1.259.45a2,2,0,0,0-1.173,2.5l3.491,10.66a1.882,1.882,0,0,0,2.4,1.244l12.993-4.647A2.013,2.013,0,0,0,329.8,55.7l-3.489-10.66a1.877,1.877,0,0,0-2.41-1.22ZM314,45.526a3.211,3.211,0,0,1,1.889-4.029,3.007,3.007,0,0,1,3.854,1.974l.538,1.646-5.743,2.055Zm7.3,9.46.891,2.722a.217.217,0,0,1-.139.273l-1.246.446a.2.2,0,0,1-.256-.131l-.889-2.71a2.434,2.434,0,0,1-2.191-1.7,2.559,2.559,0,0,1,1.5-3.216,2.4,2.4,0,0,1,3.072,1.573,2.607,2.607,0,0,1-.74,2.756Z" transform="translate(-243.116 -37.583)" fill="#3d6af8"/>
  <path id="Path_46913" data-name="Path 46913" d="M330.3,61.4c.012.034-2.325.908-5.22,1.948s-5.251,1.875-5.263,1.85,2.325-.906,5.219-1.948S330.29,61.366,330.3,61.4Z" transform="translate(-250.822 -54.739)" fill="#263238"/>
  <path id="Path_46914" data-name="Path 46914" d="M344.379,63.24a.3.3,0,0,1,.029.066c.017.049.041.112.071.19.061.178.148.424.26.73.221.652.54,1.58.932,2.722s.854,2.522,1.371,4.041c.243.762.533,1.556.8,2.391a3.553,3.553,0,0,1,.183,1.337,1.794,1.794,0,0,1-.2.674,1.861,1.861,0,0,1-.46.543,4.382,4.382,0,0,1-1.234.631l-1.256.45-2.374.85L338.485,79.3l-2.714.954-.73.243-.192.063a.212.212,0,0,1-.068.017l.063-.029.19-.075.73-.275,2.7-.993,4.01-1.461,2.371-.857,1.254-.453a4.19,4.19,0,0,0,1.2-.611,1.7,1.7,0,0,0,.428-.5,1.648,1.648,0,0,0,.185-.626,3.5,3.5,0,0,0-.178-1.288c-.263-.828-.54-1.629-.791-2.391-.5-1.522-.959-2.895-1.344-4.049s-.682-2.081-.9-2.734c-.1-.319-.18-.567-.243-.747l-.058-.195A.312.312,0,0,1,344.379,63.24Z" transform="translate(-262.141 -56.134)" fill="#263238"/>
  <path id="Path_46915" data-name="Path 46915" d="M329.953,47.993s-.129-.063-.37-.161a3.211,3.211,0,0,0-1.061-.214,3.632,3.632,0,0,0-1.568.3,3.525,3.525,0,0,0-1.49,1.244,3.311,3.311,0,0,0-.572,1.848,5.692,5.692,0,0,0,.243,1.595c.129.443.26.8.346,1.042a2.356,2.356,0,0,1,.127.385,2.4,2.4,0,0,1-.173-.368c-.1-.243-.243-.589-.385-1.035a5.536,5.536,0,0,1-.28-1.619,3.374,3.374,0,0,1,.584-1.918,3.554,3.554,0,0,1,1.548-1.281,3.617,3.617,0,0,1,1.619-.278,3.063,3.063,0,0,1,1.076.256,1.916,1.916,0,0,1,.265.146A.362.362,0,0,1,329.953,47.993Z" transform="translate(-254.567 -44.244)" fill="#263238"/>
  <path id="Path_46916" data-name="Path 46916" d="M341.946,87.633a1.328,1.328,0,0,1,.124-.061,2.282,2.282,0,0,1,.375-.134,2.722,2.722,0,0,1,.633-.107,2.145,2.145,0,0,1,.855.129,2.636,2.636,0,0,1,1.475,1.7,2.434,2.434,0,0,1,0,1.4,3.194,3.194,0,0,1-.8,1.317l.017-.066c.321.889.674,1.853,1.042,2.858l.022.061-.063.022-.555.185-1.217.407-.058.019-.022-.061c-.334-1.008-.7-1.948-.974-2.87l.054.041a2.41,2.41,0,0,1-1.3-.514,2.953,2.953,0,0,1-.818-.974,2.252,2.252,0,0,1-.258-1.1,2.579,2.579,0,0,1,.2-.94,2.546,2.546,0,0,1,.816-1.071,1.547,1.547,0,0,1,.421-.243,2.371,2.371,0,0,0-.4.265,2.567,2.567,0,0,0-.774,1.069,2.3,2.3,0,0,0,.075,1.965,2.8,2.8,0,0,0,.8.935,2.3,2.3,0,0,0,1.244.487h.041v.037c.268.906.635,1.853.974,2.865l-.08-.039,1.217-.407.557-.187-.039.083-1.037-2.86-.012-.037.029-.029a3.048,3.048,0,0,0,.769-1.259,2.354,2.354,0,0,0,0-1.337,2.58,2.58,0,0,0-1.407-1.658,2.091,2.091,0,0,0-.825-.139,2.812,2.812,0,0,0-.626.085C342.122,87.562,341.951,87.645,341.946,87.633Z" transform="translate(-266.452 -74.357)" fill="#263238"/>
  <path id="Path_46917" data-name="Path 46917" d="M223.658,154.605l-24.315-.112a5.3,5.3,0,0,1-5.273-5.322l.258-60.961a5.293,5.293,0,0,1,5.324-5.271l24.318.112a5.3,5.3,0,0,1,5.271,5.319l-.258,60.959A5.3,5.3,0,0,1,223.658,154.605Z" transform="translate(-155.686 -71.038)" fill="#455a64"/>
  <path id="Path_46918" data-name="Path 46918" d="M228.937,91.7h-4.713a1.171,1.171,0,0,0-1.149,1.193v.854a1.171,1.171,0,0,1-1.149,1.19l-9.19-.041a1.171,1.171,0,0,1-1.139-1.2v-.867a1.171,1.171,0,0,0-1.139-1.2H208.8l-4.139-.019a3.71,3.71,0,0,0-3.727,3.693l-.243,59.5a3.708,3.708,0,0,0,3.693,3.725l24.267.112a3.71,3.71,0,0,0,3.727-3.693l.243-59.5a3.708,3.708,0,0,0-3.683-3.742Z" transform="translate(-160.694 -77.597)" fill="#fff"/>
  <path id="Path_46919" data-name="Path 46919" d="M246.183,316.594l-18.047-.078c-.185,0-.336-.2-.336-.453l.02-4.72c0-.243.153-.453.341-.453l18.047.083c.185,0,.336.2.336.455l-.019,4.72C246.521,316.394,246.37,316.6,246.183,316.594Z" transform="translate(-181.204 -243.494)" fill="#3d6af8"/>
  <text id="Đổi_mật_khẩu" data-name="Đổi mật khẩu" transform="translate(49.499 71)" fill="#e8e8e3" font-size="2" font-family="Montserrat-Regular, Montserrat" letter-spacing="-0.01em"><tspan x="0" y="0">Đổi mật khẩu</tspan></text>
  <rect id="Rectangle_5037" data-name="Rectangle 5037" width="6.261" height="1.149" transform="translate(44.269 31.57) rotate(0.26)" fill="#e8505b"/>
  <rect id="Rectangle_5038" data-name="Rectangle 5038" width="6.261" height="1.149" transform="translate(44.269 31.57) rotate(0.26)" fill="#3d6af8"/>
  <path id="Path_46920" data-name="Path 46920" d="M242.617,179.515a.585.585,0,0,0,.144-.034.39.39,0,0,0,.243-.329v-3.228a.472.472,0,0,0-.068-.319.355.355,0,0,0-.287-.148h-3.9l-20.362-.075a.329.329,0,0,0-.27.134.487.487,0,0,0-.061.319v2.921a2.54,2.54,0,0,0,0,.341.336.336,0,0,0,.19.219.38.38,0,0,0,.151.027h1.239l5.407.029,9.156.056,6.169.049,1.68.019H234.2l-9.154-.029-5.407-.022H218.4a.487.487,0,0,1-.2-.034.458.458,0,0,1-.263-.3.791.791,0,0,1-.015-.195v-3.1a1.834,1.834,0,0,1,0-.195.44.44,0,0,1,.08-.2.455.455,0,0,1,.372-.187l20.362.112,3.515.024h.382a.424.424,0,0,1,.341.178.531.531,0,0,1,.078.358v.338c0,.443,0,.85-.012,1.217,0,.73-.015,1.29-.02,1.68a.4.4,0,0,1-.243.338A.292.292,0,0,1,242.617,179.515Z" transform="translate(-173.729 -140.86)" fill="#e0e0e0"/>
  <rect id="Rectangle_5039" data-name="Rectangle 5039" width="11.452" height="1.074" transform="translate(46.152 35.74)" fill="#707070" opacity="0.3"/>
  <rect id="Rectangle_5041" data-name="Rectangle 5041" width="6.261" height="1.149" transform="translate(44.226 42.052) rotate(0.26)" fill="#e8505b"/>
  <rect id="Rectangle_5042" data-name="Rectangle 5042" width="6.261" height="1.149" transform="translate(44.226 42.052) rotate(0.26)" fill="#3d6af8"/>
  <path id="Path_46921" data-name="Path 46921" d="M242.331,222.582a1.189,1.189,0,0,0,.144-.027.5.5,0,0,0,.309-.278.65.65,0,0,0,.041-.309v-2.9a.54.54,0,0,0-.071-.321.487.487,0,0,0-.265-.207,1.5,1.5,0,0,0-.368-.02h-3.506l-20.291-.075a.448.448,0,0,0-.443.392v2.921a1.706,1.706,0,0,0,.015.341.487.487,0,0,0,.178.243.514.514,0,0,0,.3.078h1.057l5.387.027,9.124.056,6.149.049,1.67.019h-7.822l-9.122-.029-5.387-.019h-1.057a.623.623,0,0,1-.375-.1.567.567,0,0,1-.226-.319,1.535,1.535,0,0,1-.019-.375V218.8a.575.575,0,0,1,.57-.5l20.291.112,3.506.027a1.5,1.5,0,0,1,.387.027.553.553,0,0,1,.3.243.623.623,0,0,1,.078.355v.338c0,.441,0,.845-.012,1.217s0,.687,0,.974v.387a.679.679,0,0,1-.051.319.519.519,0,0,1-.326.278.458.458,0,0,1-.17,0Z" transform="translate(-173.604 -173.445)" fill="#e0e0e0"/>
  <rect id="Rectangle_5043" data-name="Rectangle 5043" width="6.261" height="1.149" transform="translate(44.182 52.99) rotate(0.26)" fill="#e8505b"/>
  <rect id="Rectangle_5044" data-name="Rectangle 5044" width="6.261" height="1.149" transform="translate(44.182 52.99) rotate(0.26)" fill="#3d6af8"/>
  <path id="Path_46922" data-name="Path 46922" d="M242.141,267.454a1.184,1.184,0,0,0,.144-.027.506.506,0,0,0,.309-.275.655.655,0,0,0,.041-.309v-2.907a.541.541,0,0,0-.071-.321.487.487,0,0,0-.265-.2,1.493,1.493,0,0,0-.368-.022h-3.506l-20.291-.075a.448.448,0,0,0-.443.392v2.921a1.667,1.667,0,0,0,.015.338.457.457,0,0,0,.178.243.487.487,0,0,0,.3.078h1.057l5.387.029,9.122.056,6.152.049,1.67.019h-7.822l-9.122-.027-5.387-.022h-1.057a.606.606,0,0,1-.375-.1.567.567,0,0,1-.226-.319,1.535,1.535,0,0,1-.019-.375v-2.934a.575.575,0,0,1,.572-.5l20.289.112,3.506.027a1.5,1.5,0,0,1,.387.027.553.553,0,0,1,.3.243.624.624,0,0,1,.078.355v2.917a.667.667,0,0,1-.051.319.519.519,0,0,1-.326.278A.384.384,0,0,1,242.141,267.454Z" transform="translate(-173.46 -207.384)" fill="#e0e0e0"/>
  <rect id="Rectangle_5045" data-name="Rectangle 5045" width="11.452" height="1.074" transform="translate(45.908 46.471) rotate(0.26)" fill="#707070" opacity="0.3"/>
  <path id="Path_46923" data-name="Path 46923" d="M226.117,270.967a.5.5,0,1,1-.487-.538.523.523,0,0,1,.487.538Z" transform="translate(-179.173 -212.884)" fill="#707070" opacity="0.3"/>
  <path id="Path_46924" data-name="Path 46924" d="M232.487,271a.5.5,0,1,1-.487-.538A.519.519,0,0,1,232.487,271Z" transform="translate(-183.993 -212.906)" fill="#707070" opacity="0.3"/>
  <path id="Path_46925" data-name="Path 46925" d="M238.887,271.028a.5.5,0,1,1-.5-.538.516.516,0,0,1,.5.538Z" transform="translate(-188.835 -212.93)" fill="#707070" opacity="0.3"/>
  <path id="Path_46926" data-name="Path 46926" d="M245.227,271.057a.5.5,0,1,1-.487-.538A.516.516,0,0,1,245.227,271.057Z" transform="translate(-193.631 -212.952)" fill="#707070" opacity="0.3"/>
  <path id="Path_46927" data-name="Path 46927" d="M251.607,271.086a.5.5,0,1,1-.5-.536A.518.518,0,0,1,251.607,271.086Z" transform="translate(-198.457 -212.975)" fill="#707070" opacity="0.3"/>
  <path id="Path_46928" data-name="Path 46928" d="M257.977,271.115a.5.5,0,1,1-.487-.536A.518.518,0,0,1,257.977,271.115Z" transform="translate(-203.277 -212.997)" fill="#707070" opacity="0.3"/>
  <path id="Path_46929" data-name="Path 46929" d="M264.347,271.145a.5.5,0,1,1-.487-.536A.519.519,0,0,1,264.347,271.145Z" transform="translate(-208.096 -213.02)" fill="#707070" opacity="0.3"/>
  <path id="Path_46930" data-name="Path 46930" d="M270.727,271.175a.5.5,0,1,1-.487-.536A.521.521,0,0,1,270.727,271.175Z" transform="translate(-212.923 -213.043)" fill="#707070" opacity="0.3"/>
  <path id="Path_46931" data-name="Path 46931" d="M277.1,271.2a.5.5,0,1,1-.24-.463A.5.5,0,0,1,277.1,271.2Z" transform="translate(-217.742 -213.063)" fill="#707070" opacity="0.3"/>
  <path id="Path_46941" data-name="Path 46941" d="M265.114,122.828a.949.949,0,0,0,.562-.874.889.889,0,1,0-1.772,0,.947.947,0,0,0,.565.884,1.613,1.613,0,0,0-1.3,1.685l3.221.015S266.465,123.03,265.114,122.828Z" transform="translate(-207.963 -99.832)" fill="#e8505b"/>
  <path id="Path_46942" data-name="Path 46942" d="M265.114,122.828a.949.949,0,0,0,.562-.874.889.889,0,1,0-1.772,0,.947.947,0,0,0,.565.884,1.613,1.613,0,0,0-1.3,1.685l3.221.015S266.465,123.03,265.114,122.828Z" transform="translate(-207.963 -99.832)" fill="#3d6af8"/>
  <rect id="Rectangle_5047" data-name="Rectangle 5047" width="11.488" height="1.373" transform="translate(50.901 25.609) rotate(0.26)" fill="#707070" opacity="0.3"/>
</svg>
