<svg xmlns="http://www.w3.org/2000/svg" xmlns:xlink="http://www.w3.org/1999/xlink" width="16" height="16" viewBox="0 0 16 16">
  <defs>
    <clipPath id="clip-path">
      <rect id="Rectangle_4940" data-name="Rectangle 4940" width="16" height="16" transform="translate(241 171)" fill="#fff" stroke="#707070" stroke-width="1"/>
    </clipPath>
  </defs>
  <g id="Mask_Group_582" data-name="Mask Group 582" transform="translate(-241 -171)" clip-path="url(#clip-path)">
    <g id="store" transform="translate(241.148 171)">
      <g id="Layer_2" data-name="Layer 2">
        <g id="Layer_1" data-name="Layer 1">
          <g id="store-2" data-name="store">
            <path id="Path_46644" data-name="Path 46644" d="M6.058,7.279A2.473,2.473,0,0,1,3.588,4.805v-1a.678.678,0,0,1,1.356,0v1a1.115,1.115,0,1,0,2.229,0v-1a.678.678,0,0,1,1.356,0v1A2.473,2.473,0,0,1,6.058,7.279Z"/>
            <path id="Path_46645" data-name="Path 46645" d="M9.646,7.279A2.476,2.476,0,0,1,7.173,4.805v-1a.678.678,0,0,1,1.356,0v1a1.117,1.117,0,1,0,2.232,0v-1a.678.678,0,0,1,1.356,0v1A2.476,2.476,0,0,1,9.646,7.279Z"/>
            <path id="Path_46646" data-name="Path 46646" d="M13.231,7.279a2.476,2.476,0,0,1-2.471-2.473v-1a.678.678,0,0,1,1.356,0v1a1.117,1.117,0,1,0,2.232,0V4.388a1.451,1.451,0,0,0-.2-.732l-.93-1.586a1.454,1.454,0,0,0-1.247-.713H3.734a1.451,1.451,0,0,0-1.247.713L1.554,3.656a1.448,1.448,0,0,0-.2.732v.418a1.117,1.117,0,1,0,2.232,0v-1a.678.678,0,0,1,1.356,0v1A2.473,2.473,0,1,1,0,4.805V4.388a2.8,2.8,0,0,1,.385-1.4l.933-1.6A2.812,2.812,0,0,1,3.734,0H11.97a2.818,2.818,0,0,1,2.416,1.383l.93,1.6A2.8,2.8,0,0,1,15.7,4.4v.418A2.476,2.476,0,0,1,13.231,7.279Z"/>
            <path id="Path_46647" data-name="Path 46647" d="M11.572,16H4.133a2.807,2.807,0,0,1-2.8-2.8V6.6a.678.678,0,1,1,1.356,0v6.6a1.448,1.448,0,0,0,1.448,1.448h7.439A1.451,1.451,0,0,0,13.017,13.2V6.6a.678.678,0,0,1,1.356,0v6.6A2.807,2.807,0,0,1,11.572,16Z"/>
            <path id="Path_46648" data-name="Path 46648" d="M9.763,13.559a.678.678,0,0,1-.678-.678V11.024a1.22,1.22,0,0,0-2.441,0v1.858a.678.678,0,0,1-1.356,0V11.024a2.576,2.576,0,0,1,5.153,0v1.858A.678.678,0,0,1,9.763,13.559Z"/>
          </g>
        </g>
      </g>
    </g>
  </g>
</svg>
