<svg xmlns="http://www.w3.org/2000/svg" xmlns:xlink="http://www.w3.org/1999/xlink" width="16" height="16" viewBox="0 0 16 16">
  <defs>
    <clipPath id="clip-path">
      <rect id="Rectangle_8703" data-name="Rectangle 8703" width="16" height="16" transform="translate(14 662)" fill="#007aff" stroke="#707070" stroke-width="1"/>
    </clipPath>
  </defs>
  <g id="Mask_Group_672" data-name="Mask Group 672" transform="translate(-14 -662)" clip-path="url(#clip-path)">
    <g id="receipt-2-1" transform="translate(13.07 661.07)">
      <path id="Path_53016" data-name="Path 53016" d="M8.93,16.93A1.93,1.93,0,0,1,7.4,16.112l-.752-1a.8.8,0,0,0-.588-.342.833.833,0,0,0-.625.275l-.424-.38.409.38c-1.072,1.146-1.9,1.057-2.292.9s-1.079-.67-1.079-2.322V5.239C2.047,1.935,3,.93,6.117.93h5.626c3.118,0,4.071,1,4.071,4.309v8.38c0,1.645-.677,2.158-1.079,2.322s-1.213.246-2.292-.9a.765.765,0,0,0-.633-.275.818.818,0,0,0-.6.342l-.752,1a1.93,1.93,0,0,1-1.533.819ZM6.013,13.641h.1a1.92,1.92,0,0,1,1.421.789l.752,1a.752.752,0,0,0,1.287,0l.752-1a1.87,1.87,0,0,1,2.932-.156c.566.6.93.677,1.064.625.179-.074.372-.506.372-1.28V5.239c0-2.687-.469-3.193-2.954-3.193H6.117c-2.486,0-2.954.506-2.954,3.193v8.38c0,.781.193,1.213.372,1.28.127.052.5-.022,1.064-.625a1.985,1.985,0,0,1,1.414-.633Z" fill="#007aff"/>
      <path id="Path_53017" data-name="Path 53017" d="M12.078,8.744H7.985a.558.558,0,0,1,0-1.116h4.093a.558.558,0,0,1,0,1.116Z" fill="#007aff"/>
      <path id="Path_53018" data-name="Path 53018" d="M12.078,5.767H7.985a.558.558,0,1,1,0-1.116h4.093a.558.558,0,1,1,0,1.116Z" fill="#007aff"/>
      <path id="Path_53019" data-name="Path 53019" d="M5.79,5.953a.744.744,0,1,1,.744-.744A.746.746,0,0,1,5.79,5.953Z" fill="#007aff"/>
      <path id="Path_53020" data-name="Path 53020" d="M5.79,8.93a.744.744,0,1,1,.744-.744A.746.746,0,0,1,5.79,8.93Z" fill="#007aff"/>
    </g>
  </g>
</svg>
