<svg xmlns="http://www.w3.org/2000/svg" xmlns:xlink="http://www.w3.org/1999/xlink" width="20" height="20" viewBox="0 0 20 20">
  <defs>
    <clipPath id="clip-path">
      <rect id="Rectangle_748" data-name="Rectangle 748" width="20" height="20" transform="translate(65 287)" fill="none" stroke="#355ff7" stroke-width="1"/>
    </clipPath>
  </defs>
  <g id="Mask_Group_13" data-name="Mask Group 13" transform="translate(-65 -287)" clip-path="url(#clip-path)">
    <path id="warehouse" d="M18.305,3.42,11.186.234a2.817,2.817,0,0,0-2.339,0L1.695,3.42A2.864,2.864,0,0,0,0,6.064V18.98a.839.839,0,0,0,.847.847.868.868,0,0,0,.847-.881V6.031a1.182,1.182,0,0,1,.712-1.085L9.525,1.793a1.158,1.158,0,0,1,.949,0l7.119,3.153a1.182,1.182,0,0,1,.712,1.085V18.946a.847.847,0,1,0,1.695,0V6.031A2.871,2.871,0,0,0,18.305,3.42ZM14.068,6.742H5.932a2.2,2.2,0,0,0-2.2,2.2v10a.847.847,0,1,0,1.695,0v-10a.521.521,0,0,1,.508-.508h8.136a.521.521,0,0,1,.508.508v10a.847.847,0,1,0,1.695,0v-10A2.2,2.2,0,0,0,14.068,6.742ZM12.373,9.793H7.627a.847.847,0,1,0,0,1.695h4.746a.847.847,0,1,0,0-1.695Zm0,3.424H7.627a.847.847,0,0,0,0,1.695h4.746a.847.847,0,0,0,0-1.695Zm0,3.458H7.627a.847.847,0,0,0,0,1.695h4.746a.847.847,0,0,0,0-1.695Z" transform="translate(65 287.097)" fill="#355ff7" stroke="#355ff7" stroke-width="0.407"/>
  </g>
</svg>
