<svg xmlns="http://www.w3.org/2000/svg" xmlns:xlink="http://www.w3.org/1999/xlink" width="40" height="40" viewBox="0 0 40 40"><defs><clipPath id="a"><rect width="40" height="40" transform="translate(167 184)" fill="#ee0033" stroke="#707070" stroke-width="1"/></clipPath></defs><g transform="translate(-167 -184)" clip-path="url(#a)"><g transform="translate(187 204)"><g transform="translate(-20 -20)"><rect width="40" height="40" transform="translate(40) rotate(90)" fill="#ee0033" opacity="0"/><path d="M36.925,25.835,24.142,4.635a5.717,5.717,0,0,0-9.633,0L1.725,25.835a5,5,0,0,0-.083,5,5.617,5.617,0,0,0,4.9,2.833H32.108a5.617,5.617,0,0,0,4.9-2.767,5,5,0,0,0-.083-5.067ZM19.325,27a1.667,1.667,0,1,1,1.667-1.667A1.667,1.667,0,0,1,19.325,27Zm1.667-6.667a1.667,1.667,0,0,1-3.333,0V13.668a1.667,1.667,0,1,1,3.333,0Z" transform="translate(0.675 1.332)" fill="#ee0033"/></g></g></g></svg>