<svg xmlns="http://www.w3.org/2000/svg" xmlns:xlink="http://www.w3.org/1999/xlink" width="20" height="20" viewBox="0 0 20 20"><defs><clipPath id="a"><rect width="20" height="20" fill="#fff" stroke="#707070" stroke-width="1"/></clipPath></defs><g clip-path="url(#a)"><g transform="translate(0.715 0.715)"><rect width="18.571" height="17.143" rx="1.714" transform="translate(0 1.429)" fill="none" stroke="#c8c8ca" stroke-linejoin="round" stroke-width="1.143"/><path d="M5.286,1.714V3.143M16.714,1.714V3.143m3.571,3.571H1.714m11.429,4.464L15.081,9.75h.2v7.5M8.137,13.26a2.51,2.51,0,0,0,1.639-.691,1.692,1.692,0,0,0,.5-1.217A1.9,1.9,0,0,0,8.135,9.571a1.924,1.924,0,0,0-1.69.845m-.222,5.858a2.356,2.356,0,0,0,1.959,1.154,2.067,2.067,0,0,0,2.327-1.956,2,2,0,0,0-.517-1.432,2.844,2.844,0,0,0-1.855-.78" transform="translate(-1.714 -1.714)" fill="none" stroke="#c8c8ca" stroke-linecap="round" stroke-linejoin="round" stroke-width="1.143"/></g></g></svg>