<svg xmlns="http://www.w3.org/2000/svg" xmlns:xlink="http://www.w3.org/1999/xlink" width="16" height="16" viewBox="0 0 16 16"><defs><clipPath id="a"><rect width="16" height="16" transform="translate(331 297)" fill="#707070" stroke="#707070" stroke-width="1"/></clipPath></defs><g transform="translate(-331 -297)" clip-path="url(#a)"><g transform="translate(329.154 295.147)"><path d="M14.769,15.4l1.351-.013a1.115,1.115,0,0,0,1.11-1.11V5.418a1.115,1.115,0,0,0-1.11-1.11l-1.351.013" fill="none" stroke="#707070" stroke-linecap="round" stroke-linejoin="round" stroke-width="1.231"/><path d="M4.923,4.308,3.508,4.32a1.061,1.061,0,0,0-1.046,1.11v8.857A1.06,1.06,0,0,0,3.508,15.4l1.415-.013" fill="none" stroke="#707070" stroke-linecap="round" stroke-linejoin="round" stroke-width="1.231"/><path d="M14.769,7.385v4.923" fill="none" stroke="#707070" stroke-linecap="round" stroke-linejoin="round" stroke-width="1.231"/><path d="M12.308,6.154v7.385" fill="none" stroke="#707070" stroke-linecap="round" stroke-linejoin="round" stroke-width="1.231"/><path d="M9.846,6.769v6.154" fill="none" stroke="#707070" stroke-linecap="round" stroke-linejoin="round" stroke-width="1.231"/><path d="M7.385,6.154v7.385" fill="none" stroke="#707070" stroke-linecap="round" stroke-linejoin="round" stroke-width="1.231"/><path d="M4.923,7.385v4.923" fill="none" stroke="#707070" stroke-linecap="round" stroke-linejoin="round" stroke-width="1.231"/></g></g></svg>