<svg xmlns="http://www.w3.org/2000/svg" width="321.564" height="180.523" viewBox="0 0 321.564 180.523">
  <g id="Mar-Business_11_Converted_" data-name="Mar-Business_11 [Converted]" transform="translate(-105.859 -264.92)">
    <g id="OBJECTS" transform="translate(97.86 264.92)">
      <path id="Path_46852" data-name="Path 46852" d="M587.5,375.1c-22.794-70.069-145.274-73.115-154.681,5.5a46.1,46.1,0,0,1-13.666.457c-34.924-5.343-96.034,61.537-49.132,112.643H631.937C660.275,444.892,639.92,394.952,587.5,375.1Z" transform="translate(-322.593 -315.277)" fill="#0037e4"/>
      <path id="Path_46853" data-name="Path 46853" d="M1674.373,368.616l-.45-.44c29.234-30.055,30.4-46.493,32.155-71.376a304.494,304.494,0,0,1,3.352-30.809c-13.846,6.433-25.067,15.348-33.365,26.5a85.111,85.111,0,0,0-14.354,31.272,101.612,101.612,0,0,0-1.925,36.852l-.621.108a102.26,102.26,0,0,1,1.926-37.083,85.779,85.779,0,0,1,14.461-31.513c8.469-11.387,19.962-20.457,34.158-26.958l.542-.248-.1.587a301.708,301.708,0,0,0-3.445,31.332C1704.938,321.865,1703.775,338.4,1674.373,368.616Z" transform="translate(-1472.399 -264.92)" fill="#dadada"/>
      <path id="Path_46854" data-name="Path 46854" d="M1742.481,559.906l-.611-.157c.119-.45,11.759-45.39,26.405-70.338l.544.319C1754.211,514.6,1742.592,559.455,1742.481,559.906Z" transform="translate(-1546.012 -462.666)" fill="#dadada"/>
      <path id="Path_46855" data-name="Path 46855" d="M1844.936,532.737l-.63-.023a38.9,38.9,0,0,0-4.446-17.794l.554-.3A39.532,39.532,0,0,1,1844.936,532.737Z" transform="translate(-1632.328 -484.872)" fill="#dadada"/>
      <path id="Path_46856" data-name="Path 46856" d="M1822.784,752.233l-.444-.447a36.249,36.249,0,0,1,15.539-8.727l.141.615A35.569,35.569,0,0,0,1822.784,752.233Z" transform="translate(-1616.895 -686.097)" fill="#dadada"/>
      <path id="Path_46857" data-name="Path 46857" d="M1979.412,565.794l-.062-.628c11.4-1.129,20.646-8.768,28.268-23.35,6.754-12.921,11.392-29.426,15.878-45.4,2.908-10.352,5.66-20.142,8.871-28.621-32.8,8.2-46.4,34.2-46.538,34.467l-.561-.286c.137-.268,14.015-26.831,47.535-34.936l.583-.142-.214.561c-3.293,8.578-6.1,18.56-9.066,29.127-4.495,16-9.144,32.539-15.927,45.519C2000.447,556.891,1991.039,564.639,1979.412,565.794Z" transform="translate(-1755.2 -442.837)" fill="#dadada"/>
      <path id="Path_46858" data-name="Path 46858" d="M1952.176,752.377l-.575-.255c.191-.432,19.353-43.345,35.451-55.822l.386.5c-6.6,5.118-14.786,16.344-23.676,32.466C1957.034,741.466,1952.223,752.273,1952.176,752.377Z" transform="translate(-1730.756 -644.908)" fill="#dadada"/>
      <path id="Path_46859" data-name="Path 46859" d="M2129.59,712.687l-.62-.119c.01-.049.9-4.907,1.691-16.648l.628.042C2130.494,707.751,2129.6,712.638,2129.59,712.687Z" transform="translate(-1886.995 -644.573)" fill="#dadada"/>
      <path id="Path_46860" data-name="Path 46860" d="M2041.358,922.289l-.357-.519a65.968,65.968,0,0,1,20.333-8.649l.139.615A65.2,65.2,0,0,0,2041.358,922.289Z" transform="translate(-1809.505 -835.897)" fill="#dadada"/>
      <path id="Path_46861" data-name="Path 46861" d="M507.3,904.186c-28.31-29.106-29.436-45.024-31.138-69.122a290.155,290.155,0,0,0-3.318-30.176l-.1-.589.542.249c30.975,14.177,42.558,38.451,46.826,56.313a98.554,98.554,0,0,1,1.856,35.716l-.622-.108a97.928,97.928,0,0,0-1.853-35.484c-4.213-17.613-15.607-41.509-45.928-55.613a294.307,294.307,0,0,1,3.224,29.648c1.694,23.959,2.813,39.791,30.963,68.726Z" transform="translate(-428.079 -740.041)" fill="#dadada"/>
      <path id="Path_46862" data-name="Path 46862" d="M619.793,1088.495c-.112-.434-11.3-43.627-25.363-67.575l.543-.319c14.106,24.026,25.318,67.3,25.429,67.739Z" transform="translate(-535.271 -930.573)" fill="#dadada"/>
      <path id="Path_46863" data-name="Path 46863" d="M676.8,1062.332a38.131,38.131,0,0,1,4.356-17.452l.554.3a37.427,37.427,0,0,0-4.28,17.129Z" transform="translate(-607.825 -951.96)" fill="#dadada"/>
      <path id="Path_46864" data-name="Path 46864" d="M622.725,1273.674a34.271,34.271,0,0,0-14.665-8.241l.141-.614a34.916,34.916,0,0,1,14.969,8.406Z" transform="translate(-547.278 -1145.698)" fill="#dadada"/>
      <path id="Path_46865" data-name="Path 46865" d="M216.769,1175.334c-24.322-2.264-34.059-29.225-42.65-53.015a232.954,232.954,0,0,0-8.829-22.172l-.28-.577.628.13a79.574,79.574,0,0,1,34.363,16,54.057,54.057,0,0,1,10.53,11.062l-.531.34c-.129-.2-13.133-20.025-43.863-26.644,3.077,6.433,5.751,13.834,8.578,21.655,8.522,23.608,18.188,50.371,42.118,52.6Z" transform="translate(-157.01 -1000.134)" fill="#dadada"/>
      <path id="Path_46866" data-name="Path 46866" d="M371.089,1318.846c-.185-.329-18.556-32.955-33.639-42.524l.337-.533c15.217,9.65,33.666,42.412,33.851,42.748Z" transform="translate(-308.907 -1155.361)" fill="#dadada"/>
      <path id="Path_46867" data-name="Path 46867" d="M436.257,1290.06a105.8,105.8,0,0,1-1.787-12.708l.627-.062a105.784,105.784,0,0,0,1.777,12.62Z" transform="translate(-394.368 -1156.682)" fill="#dadada"/>
      <path id="Path_46868" data-name="Path 46868" d="M395.949,1447.895a70.788,70.788,0,0,0-18.929-6.726l.119-.618a71.734,71.734,0,0,1,19.116,6.791Z" transform="translate(-343.762 -1300.492)" fill="#dadada"/>
      <path id="Path_46869" data-name="Path 46869" d="M2359.169,1070.331l-.149-.612c26.779-6.539,31.829-35.306,36.711-63.125,1.714-9.769,3.486-19.855,6.2-28.592-26.657,5.107-41.758,23.513-49.746,38.106a106.21,106.21,0,0,0-11.109,31.045l-.622-.1a106.866,106.866,0,0,1,11.169-31.235c8.1-14.813,23.481-33.523,50.709-38.539l.515-.094-.159.5c-2.784,8.808-4.587,19.078-6.331,29.009C2391.435,1034.718,2386.35,1063.689,2359.169,1070.331Z" transform="translate(-2073.28 -892.334)" fill="#dadada"/>
      <path id="Path_46870" data-name="Path 46870" d="M2473.848,1260.68l-.608-.168c.1-.358,9.972-35.458,26.031-49.322l.411.477C2483.768,1225.405,2473.945,1260.329,2473.848,1260.68Z" transform="translate(-2190.25 -1098.457)" fill="#dadada"/>
      <path id="Path_46871" data-name="Path 46871" d="M2569.047,1247.3l-.617-.128a79.074,79.074,0,0,0,.953-17.725l.63-.031A79.485,79.485,0,0,1,2569.047,1247.3Z" transform="translate(-2274.1 -1114.515)" fill="#dadada"/>
      <path id="Path_46872" data-name="Path 46872" d="M2499.467,1421.307l-.387-.5a84.021,84.021,0,0,1,21.075-11.2l.211.6A83.287,83.287,0,0,0,2499.467,1421.307Z" transform="translate(-2213.012 -1273.238)" fill="#dadada"/>
      <path id="Path_46873" data-name="Path 46873" d="M1963.84,646.8a2.049,2.049,0,1,1,2.048-2.048A2.049,2.049,0,0,1,1963.84,646.8Zm0-3.466a1.418,1.418,0,1,0,1.418,1.418,1.418,1.418,0,0,0-1.418-1.418Z" transform="translate(-1739.732 -597.693)" fill="#dadada"/>
      <path id="Path_46874" data-name="Path 46874" d="M538.059,912.7a2.049,2.049,0,1,1,2.049-2.048A2.049,2.049,0,0,1,538.059,912.7Zm0-3.467a1.419,1.419,0,1,0,1.418,1.419,1.419,1.419,0,0,0-1.418-1.419Z" transform="translate(-483.811 -831.916)" fill="#dadada"/>
      <path id="Path_46875" data-name="Path 46875" d="M2133.088,1295.806a2.048,2.048,0,1,1,2.048-2.048A2.048,2.048,0,0,1,2133.088,1295.806Zm0-3.467a1.419,1.419,0,1,0,1.419,1.419,1.419,1.419,0,0,0-1.419-1.419Z" transform="translate(-1888.818 -1169.384)" fill="#dadada"/>
      <path id="Path_46876" data-name="Path 46876" d="M2718.09,1112.379a2.049,2.049,0,1,1,2.048-2.048A2.049,2.049,0,0,1,2718.09,1112.379Zm0-3.467a1.419,1.419,0,1,0,1.419,1.419,1.419,1.419,0,0,0-1.419-1.419Z" transform="translate(-2404.124 -1007.807)" fill="#dadada"/>
      <circle id="Ellipse_8" data-name="Ellipse 8" cx="1.418" cy="1.418" r="1.418" transform="translate(236.077 95.906)" fill="#dadada"/>
      <circle id="Ellipse_9" data-name="Ellipse 9" cx="1.418" cy="1.418" r="1.418" transform="translate(301.361 148.115)" fill="#dadada"/>
      <circle id="Ellipse_10" data-name="Ellipse 10" cx="1.418" cy="1.418" r="1.418" transform="translate(196.995 58.242) rotate(-89.92)" fill="#dadada"/>
      <circle id="Ellipse_11" data-name="Ellipse 11" cx="1.418" cy="1.418" r="1.418" transform="translate(40.435 152.738)" fill="#dadada"/>
      <path id="Path_46877" data-name="Path 46877" d="M632.258,368.584a1.9,1.9,0,0,1-.547-.081l-3.921-1.171a1.906,1.906,0,0,1-1.281-2.373l1.337-4.435a20.006,20.006,0,0,1-4.527-3.289l-3.825,2.579a1.916,1.916,0,0,1-2.651-.511l-2.292-3.377a1.906,1.906,0,0,1,.512-2.647l3.777-2.549a19.84,19.84,0,0,1-1.49-5.939l-4.482-.512a1.906,1.906,0,0,1-1.68-2.111l.468-4.051a1.912,1.912,0,0,1,2.119-1.68l4.424.508a19.784,19.784,0,0,1,2.564-5.219l-3.056-3.168a1.906,1.906,0,0,1,.054-2.7l2.951-2.828a1.917,1.917,0,0,1,2.7.052l3.027,3.14A19.832,19.832,0,0,1,632,323.768l-.281-4.327a1.906,1.906,0,0,1,1.787-2.025l4.084-.266a1.906,1.906,0,0,1,2.025,1.777l.282,4.327a19.822,19.822,0,0,1,5.823,1.717l2.6-3.506a1.914,1.914,0,0,1,2.667-.405l3.293,2.421a1.906,1.906,0,0,1,.4,2.666l-2.621,3.537a19.839,19.839,0,0,1,3.217,4.843l4.321-1.072a1.913,1.913,0,0,1,2.315,1.384l.99,3.959a1.906,1.906,0,0,1-1.391,2.311l-4.377,1.09a19.715,19.715,0,0,1-.715,6.083l4.077,2.037a1.906,1.906,0,0,1,.851,2.559l-1.833,3.647a1.917,1.917,0,0,1-2.565.849l-4.126-2.062a19.918,19.918,0,0,1-4.062,3.848l1.9,4.226a1.906,1.906,0,0,1-.963,2.52l-3.734,1.668a1.916,1.916,0,0,1-2.524-.953l-1.906-4.247a20.119,20.119,0,0,1-6.1.4l-1.335,4.454A1.916,1.916,0,0,1,632.258,368.584Zm-8.864-12.161.183.182a19.328,19.328,0,0,0,4.789,3.479l.238.119-1.487,4.937a1.276,1.276,0,0,0,.858,1.589L631.9,367.9a1.282,1.282,0,0,0,1.589-.854l1.5-4.957.259.026a19.636,19.636,0,0,0,3.217.057,19.376,19.376,0,0,0,3.184-.477l.254-.06,2.122,4.72a1.284,1.284,0,0,0,1.692.641l3.734-1.668a1.273,1.273,0,0,0,.646-1.686l-2.115-4.7.216-.149a19.345,19.345,0,0,0,4.3-4.071l.158-.2,4.588,2.293a1.284,1.284,0,0,0,1.719-.569l1.833-3.647a1.271,1.271,0,0,0-.569-1.711l-4.546-2.273.074-.253a19.062,19.062,0,0,0,.746-6.387l-.013-.259,4.885-1.215a1.278,1.278,0,0,0,.933-1.549L661.3,335a1.282,1.282,0,0,0-1.549-.929l-4.828,1.2-.108-.238a19.246,19.246,0,0,0-3.392-5.114l-.177-.192,2.927-3.954a1.272,1.272,0,0,0-.269-1.787l-3.294-2.422a1.284,1.284,0,0,0-1.787.269l-2.906,3.931-.238-.119a19.228,19.228,0,0,0-6.12-1.8l-.26-.031-.315-4.849a1.283,1.283,0,0,0-1.362-1.191l-4.083.266a1.282,1.282,0,0,0-1.191,1.357l.316,4.849-.254.064a19.2,19.2,0,0,0-5.838,2.58l-.219.144-3.389-3.516a1.287,1.287,0,0,0-1.812-.035l-2.95,2.828a1.273,1.273,0,0,0-.037,1.8l3.41,3.548-.151.213a19.18,19.18,0,0,0-2.7,5.505l-.076.25-4.944-.566a1.275,1.275,0,0,0-1.419,1.122l-.468,4.051a1.275,1.275,0,0,0,1.128,1.412l5,.572.02.259a19.234,19.234,0,0,0,1.568,6.237l.106.238L615.42,353.8a1.274,1.274,0,0,0-.343,1.772l2.289,3.375a1.284,1.284,0,0,0,1.779.341Zm13.81-1.878a11.442,11.442,0,1,1,.755-.025h0C637.707,354.537,637.454,354.545,637.2,354.545Zm.032-22.232q-.357,0-.722.024a10.8,10.8,0,1,0,1.4,21.554h0a10.8,10.8,0,0,0-.681-21.578Z" transform="translate(-550.022 -310.924)" fill="#dadada"/>
      <rect id="Rectangle_5016" data-name="Rectangle 5016" width="105.502" height="148.785" rx="11" transform="translate(83.945 29.323)" fill="#86a7ff"/>
      <rect id="Rectangle_5017" data-name="Rectangle 5017" width="37.185" height="6.243" transform="translate(118.103 35.869)" fill="#d3dfff"/>
      <rect id="Rectangle_5018" data-name="Rectangle 5018" width="84.454" height="18.73" transform="translate(94.468 51.627)" fill="#dadada"/>
      <rect id="Rectangle_5019" data-name="Rectangle 5019" width="77.063" height="13.606" transform="translate(98.163 54.188)" fill="#fff"/>
      <rect id="Rectangle_5020" data-name="Rectangle 5020" width="11.975" height="7.564" rx="3.782" transform="translate(148.04 79.045)" fill="#1f3c88"/>
      <rect id="Rectangle_5021" data-name="Rectangle 5021" width="11.975" height="7.564" rx="3.782" transform="translate(166.948 79.045)" fill="#1f3c88"/>
      <rect id="Rectangle_5022" data-name="Rectangle 5022" width="14.495" height="9.875" rx="4.938" transform="translate(164.425 95.747)" fill="#1f3c88"/>
      <rect id="Rectangle_5023" data-name="Rectangle 5023" width="14.495" height="9.875" rx="4.938" transform="translate(141.298 95.747)" fill="#1f3c88"/>
      <rect id="Rectangle_5024" data-name="Rectangle 5024" width="14.495" height="9.875" rx="4.938" transform="translate(118.173 95.747)" fill="#1f3c88"/>
      <rect id="Rectangle_5025" data-name="Rectangle 5025" width="14.495" height="9.875" rx="4.938" transform="translate(95.047 95.747)" fill="#1f3c88"/>
      <rect id="Rectangle_5026" data-name="Rectangle 5026" width="14.495" height="9.875" rx="4.938" transform="translate(164.425 113.607)" fill="#1f3c88"/>
      <rect id="Rectangle_5027" data-name="Rectangle 5027" width="14.495" height="9.875" rx="4.938" transform="translate(141.298 113.607)" fill="#d3dfff"/>
      <rect id="Rectangle_5028" data-name="Rectangle 5028" width="14.495" height="9.875" rx="4.938" transform="translate(118.173 113.607)" fill="#d3dfff"/>
      <rect id="Rectangle_5029" data-name="Rectangle 5029" width="14.495" height="9.875" rx="4.938" transform="translate(95.047 113.607)" fill="#d3dfff"/>
      <rect id="Rectangle_5030" data-name="Rectangle 5030" width="14.495" height="9.875" rx="4.938" transform="translate(164.425 131.465)" fill="#1f3c88"/>
      <rect id="Rectangle_5031" data-name="Rectangle 5031" width="14.495" height="9.875" rx="4.938" transform="translate(141.298 131.465)" fill="#d3dfff"/>
      <rect id="Rectangle_5032" data-name="Rectangle 5032" width="14.495" height="9.875" rx="4.938" transform="translate(118.173 131.465)" fill="#d3dfff"/>
      <rect id="Rectangle_5033" data-name="Rectangle 5033" width="14.495" height="9.875" rx="4.938" transform="translate(95.047 131.465)" fill="#d3dfff"/>
      <rect id="Rectangle_5034" data-name="Rectangle 5034" width="14.495" height="9.875" rx="4.938" transform="translate(164.425 149.953)" fill="#fbc343"/>
      <rect id="Rectangle_5035" data-name="Rectangle 5035" width="14.495" height="9.875" rx="4.938" transform="translate(141.298 149.953)" fill="#d3dfff"/>
      <rect id="Rectangle_5036" data-name="Rectangle 5036" width="14.495" height="9.875" rx="4.938" transform="translate(118.173 149.953)" fill="#d3dfff"/>
      <rect id="Rectangle_5037" data-name="Rectangle 5037" width="14.495" height="9.875" rx="4.938" transform="translate(95.047 149.953)" fill="#d3dfff"/>
      <rect id="Rectangle_5038" data-name="Rectangle 5038" width="57.561" height="42.224" transform="translate(217.169 136.198)" fill="#fbc343"/>
      <rect id="Rectangle_5039" data-name="Rectangle 5039" width="15.336" height="0.63" transform="translate(259.396 145.757)" fill="#e49b31"/>
      <rect id="Rectangle_5040" data-name="Rectangle 5040" width="26.68" height="0.63" transform="translate(248.051 168.868)" fill="#e49b31"/>
      <path id="Path_46880" data-name="Path 46880" d="M1949.454,1423.467a48.439,48.439,0,0,1-2.219,14.5,17.275,17.275,0,0,1-16.485,12.107h-9.99v-41.9h26.218A48.48,48.48,0,0,1,1949.454,1423.467Z" transform="translate(-1703.59 -1271.97)" fill="#e49b31"/>
      <rect id="Rectangle_5041" data-name="Rectangle 5041" width="53.174" height="10.223" rx="5.111" transform="translate(140.045 168.199)" fill="#fbc343"/>
      <path id="Path_46881" data-name="Path 46881" d="M1277.177,1593.769v4.507a2.859,2.859,0,0,1-2.859,2.859h-47.458a2.859,2.859,0,0,1-2.859-2.859v-4.507a2.859,2.859,0,0,1,2.859-2.859h47.451A2.868,2.868,0,0,1,1277.177,1593.769Z" transform="translate(-1089.838 -1432.939)" fill="#fbc343"/>
      <path id="Path_46882" data-name="Path 46882" d="M1402.926,1603.964v4.5a2.859,2.859,0,0,1-2.859,2.859h-34.03a25.866,25.866,0,0,1-4.646-10.223,50.466,50.466,0,0,1-1.311-10.23h34.109a2.867,2.867,0,0,1,2.859,2.859v4.507a2.859,2.859,0,0,1-2.859,2.859h5.88a2.859,2.859,0,0,1,2.856,2.869Z" transform="translate(-1209.706 -1432.904)" fill="#e49b31"/>
      <path id="Path_46883" data-name="Path 46883" d="M1635.149,984.732l-3.831,11.768-.284.87-1.777,5.471-.013.038-5.729-.126-21.983-.507-1.607-4.6-.272-.77-4.253-12.152C1608.6,989.3,1619.475,979.313,1635.149,984.732Z" transform="translate(-1416.991 -897.516)" fill="#fbc343"/>
      <path id="Path_46884" data-name="Path 46884" d="M1664.49,1103.063l-1.777,5.469-5.742-.088-21.983-.507-1.607-4.6C1640.937,1103.209,1653.945,1103.032,1664.49,1103.063Z" transform="translate(-1450.447 -1003.209)" fill="#e49b31"/>
      <path id="Path_46885" data-name="Path 46885" d="M1483.245,1207.949a17.274,17.274,0,0,1-16.487,12.114h-49.791a16.007,16.007,0,0,1-15.428-11.755,50.251,50.251,0,0,1-1.787-12.14c0-.391-.012-.782-.012-1.172,0-.461,0-.923.019-1.384a49.808,49.808,0,0,1,19.1-37.49l11.913-9.431,27.252.633,14.984,14.338a33.064,33.064,0,0,1,5.492,6.769,48.515,48.515,0,0,1,4.74,39.522Z" transform="translate(-1244.641 -1041.641)" fill="#fbc343"/>
      <path id="Path_46886" data-name="Path 46886" d="M1658.782,1317.339v-5.267a22.374,22.374,0,0,1-9.432-2.383l1.668-6.492a19.6,19.6,0,0,0,9.21,2.439c3.162,0,5.327-1.22,5.327-3.438,0-2.109-1.775-3.442-5.882-4.828-5.937-2-9.988-4.771-9.988-10.152,0-4.885,3.443-8.71,9.378-9.875v-5.273h5.434v4.885a20.027,20.027,0,0,1,8.046,1.829l-1.608,6.271a18.39,18.39,0,0,0-7.992-1.888c-3.6,0-4.765,1.549-4.765,3.108,0,1.829,1.942,2.995,6.658,4.765,6.6,2.332,9.265,5.38,9.265,10.377,0,4.938-3.5,9.153-9.875,10.265v5.655Z" transform="translate(-1464.514 -1152.084)" fill="#fff"/>
      <rect id="Rectangle_5042" data-name="Rectangle 5042" width="44.359" height="7.034" rx="3.517" transform="translate(176.439 103.104)" fill="#ed7545"/>
      <path id="Path_46887" data-name="Path 46887" d="M1483.333,1438.3a17.275,17.275,0,0,1-16.487,12.114h-49.791a16.007,16.007,0,0,1-15.428-11.755,50.246,50.246,0,0,1-1.787-12.14c8.238,7.854,17.944,18.122,40.633,18.437,28.174.391,40.318-12.814,42.5-36.76A48.442,48.442,0,0,1,1483.333,1438.3Z" transform="translate(-1244.729 -1271.996)" fill="#e49b31" opacity="0.4"/>
      <path id="Path_46888" data-name="Path 46888" d="M353.5,1675.4l-5.042-1.892-11.712,10.3h13.86Z" transform="translate(-308.29 -1505.698)" fill="#102048"/>
      <path id="Path_46889" data-name="Path 46889" d="M455.984,1689.39h11.135l-1.262,7.983-12.768.421Z" transform="translate(-410.77 -1519.687)" fill="#f9b384"/>
      <path id="Path_46890" data-name="Path 46890" d="M539.937,1313.73l-.41,2.793-.249,1.682-1.764,12.1-.674,4.62-.6,4.122-1.569,10.741-1.09,7.449a11.4,11.4,0,0,1-11.288,9.757H497.66l.032-.315.8-8.194.119-1.153,17.174-3.31,2.306-16.754a34.846,34.846,0,0,1-.366-12.851,31.042,31.042,0,0,1,1-4.589l7.664-2.2Z" transform="translate(-450.03 -1188.781)" fill="#1f3c88"/>
      <path id="Path_46891" data-name="Path 46891" d="M707.519,1616.36l-1.09,7.45a11.4,11.4,0,0,1-11.288,9.757h-1.26C705.168,1631.547,702.962,1617.128,707.519,1616.36Z" transform="translate(-622.873 -1455.357)" fill="#102048"/>
      <rect id="Rectangle_5043" data-name="Rectangle 5043" width="4.576" height="0.63" transform="matrix(0.528, -0.849, 0.849, 0.528, 36.438, 177.941)" fill="#fff"/>
      <path id="Path_46892" data-name="Path 46892" d="M762.024,1452.82l-1.274,8.742c-3.548-1.014-8.22-6.087-8.22-6.087Z" transform="translate(-674.536 -1311.3)" fill="#102048"/>
      <path id="Path_46893" data-name="Path 46893" d="M927.841,1604.457s-5.986,3.073-16.7,1.1l8.9-5.909Z" transform="translate(-814.25 -1440.638)" fill="#102048"/>
      <path id="Path_46894" data-name="Path 46894" d="M951.351,1619.96l-9.572.214-.057-2.067-.151-5.667,8.509.63.4,2.188Z" transform="translate(-841.055 -1451.904)" fill="#f9b384"/>
      <path id="Path_46895" data-name="Path 46895" d="M950.481,1615.258l-8.76,2.85-.151-5.667,8.509.63Z" transform="translate(-841.055 -1451.904)" fill="#e28b6d"/>
      <path id="Path_46896" data-name="Path 46896" d="M963.734,1685.708l-10.557-8.51-.3-1.618-9.577.212.266,9.916Z" transform="translate(-842.579 -1507.522)" fill="#102048"/>
      <rect id="Rectangle_5044" data-name="Rectangle 5044" width="4.467" height="0.631" transform="matrix(0.849, -0.529, 0.529, 0.849, 110.458, 174.753)" fill="#fff"/>
      <path id="Path_46897" data-name="Path 46897" d="M674.4,1323.9l34.263-5.44a8.392,8.392,0,0,1,4.726.62h0a8.393,8.393,0,0,1,4.981,7.413l.94,30.184s-9.769-2.049-16.7,1.1l-.635-20.641c-4.189,1.906-11.444,2.31-18.8,1.575Z" transform="translate(-605.714 -1192.856)" fill="#1f3c88"/>
      <path id="Path_46898" data-name="Path 46898" d="M847.869,1358.658h-.63c0-5.223.126-9.558.238-13.384.27-9.314.419-14.445-1.953-16.617-1.921-1.757-5.758-1.7-11.326-1.044-5.966.7-8.339-5.657-8.368-5.719l.6-.216c.088.238,2.233,5.969,7.7,5.31,5.894-.7,9.718-.723,11.825,1.206,2.585,2.366,2.442,7.29,2.158,17.1C847.995,1349.119,847.869,1353.445,847.869,1358.658Z" transform="translate(-739.104 -1195.783)" fill="#3a6bea"/>
      <path id="Path_46899" data-name="Path 46899" d="M909.584,1601.07l-.224-.59a31.431,31.431,0,0,1,16.891-.8l-.154.612A30.724,30.724,0,0,0,909.584,1601.07Z" transform="translate(-812.682 -1439.949)" fill="#3a6bea"/>
      <path id="Path_46900" data-name="Path 46900" d="M524.564,1684.342c-.982-1.963.537-10.1.6-10.442l.62.119c-.432,2.293-1.394,8.569-.658,10.043Z" transform="translate(-473.439 -1506.042)" fill="#3a6bea"/>
      <path id="Path_46901" data-name="Path 46901" d="M684.857,1343.73a23.009,23.009,0,0,1-7.878,8.616,10.088,10.088,0,0,1-5.306,1.714,6.194,6.194,0,0,1-5.622-3.217,31.023,31.023,0,0,1,1-4.589l7.664-2.2,7.733-.247Z" transform="translate(-598.359 -1215.207)" fill="#102048"/>
      <path id="Path_46902" data-name="Path 46902" d="M772.27,1083.22v7.295h7.143v-6.309Z" transform="translate(-691.924 -985.732)" fill="#ed7545"/>
      <path id="Path_46903" data-name="Path 46903" d="M779.413,1053.62H772.27v3.526l7.143.985Z" transform="translate(-691.924 -959.659)" fill="#f9b384"/>
      <path id="Path_46904" data-name="Path 46904" d="M790,1059.675a11.586,11.586,0,0,0,5.037,3.513l-.048-3.828Z" transform="translate(-707.542 -964.715)" fill="#102048"/>
      <path id="Path_46905" data-name="Path 46905" d="M775.611,975.384s3.94,10.61-1.156,11.293-5.882-1.629-5.882-1.629L767,979.427l3.519-4.727Z" transform="translate(-687.282 -890.141)" fill="#f9b384"/>
      <circle id="Ellipse_12" data-name="Ellipse 12" cx="1.103" cy="1.103" r="1.103" transform="translate(88.518 91.419) rotate(-88.94)" fill="#f9b384"/>
      <path id="Path_46906" data-name="Path 46906" d="M745.022,962.628s.263-5.672,5.361-5.042c0,0-3.429-4.408-7.946-2.7a6.462,6.462,0,0,0-4.051,5.5c-.291,3.156,1.549,6.755,4.127,7.386a49.265,49.265,0,0,1,2.253-4.408Z" transform="translate(-662.051 -872.343)" fill="#102048"/>
      <ellipse id="Ellipse_13" data-name="Ellipse 13" cx="1.55" cy="1.812" rx="1.55" ry="1.812" transform="translate(80.61 89.707) rotate(-25.17)" fill="#f9b384"/>
      <circle id="Ellipse_14" data-name="Ellipse 14" cx="1.444" cy="1.444" r="1.444" transform="matrix(0.014, -1, 1, 0.014, 85.139, 92.394)" fill="#eb5d60" opacity="0.4"/>
      <path id="Path_46907" data-name="Path 46907" d="M785.945,1019.875a.158.158,0,0,1-.157-.157,1.086,1.086,0,0,0-.994-1.052.16.16,0,0,1-.135-.179.162.162,0,0,1,.177-.135,1.412,1.412,0,0,1,1.265,1.364A.158.158,0,0,1,785.945,1019.875Z" transform="translate(-702.837 -928.592)" fill="#102048"/>
      <path id="Path_46908" data-name="Path 46908" d="M995.79,995.87s5.509.419,8.509,3.939l-6.823,1.676Z" transform="translate(-888.816 -908.789)" fill="#ba5c36"/>
      <path id="Path_46909" data-name="Path 46909" d="M1004.769,914.383c.025.505-1.362,3.02-2.383,4.8-.6,1.027-1.065,1.808-1.065,1.808l-3.674,1.072-2.621-3.952-.126-.2s.038-.17.107-.477v-.007c.007,0,.007-.018.013-.037.441-1.873,2-8.251,2.906-8.466.793-.182.328,3.31.328,3.31s1.96-5.679,3.12-5.446c.926.182-.889,5.628-.889,5.628s.649-.68,1.31-.466a1.162,1.162,0,0,1,.787.889.909.909,0,0,1,.933-.05c.466.278.422,1.165.422,1.165S1004.719,913.6,1004.769,914.383Z" transform="translate(-888.032 -830.322)" fill="#f9b384"/>
      <path id="Path_46910" data-name="Path 46910" d="M623.736,1123l-2.5,9.757-3.87,15.13a13.9,13.9,0,0,1-7.6,1.229c-2.553-.422-4.336-1.906-4.216-4.538C605.868,1137.478,623.736,1123,623.736,1123Z" transform="translate(-545.059 -1020.773)" fill="#ed7545"/>
      <path id="Path_46911" data-name="Path 46911" d="M654.517,1146.21,652.5,1153.2l-3.869,15.13a13.9,13.9,0,0,1-7.6,1.229C646.639,1153.458,654.517,1146.21,654.517,1146.21Z" transform="translate(-576.32 -1041.218)" fill="#ba5c36"/>
      <path id="Path_46912" data-name="Path 46912" d="M696.445,1132.963c-5.2.357-21.586,13.9-25.525,5.162,0,0,.548-32.612,17.382-32.007a7.1,7.1,0,0,1,6.5,4.935,33.218,33.218,0,0,1,1.121,5.123,68.031,68.031,0,0,1,.643,8.144C696.634,1126.836,696.6,1129.7,696.445,1132.963Z" transform="translate(-602.649 -1005.895)" fill="#ed7545"/>
      <path id="Path_46913" data-name="Path 46913" d="M846.849,1198.7c-2.6-1.683-5.319-6.757-5.319-6.757l4.676-1.387A68.054,68.054,0,0,1,846.849,1198.7Z" transform="translate(-752.933 -1080.284)" fill="#ba5c36"/>
      <path id="Path_46914" data-name="Path 46914" d="M1003.179,997.654c-.6,1.027-1.065,1.808-1.065,1.808l-3.674,1.072-2.621-3.952-.019-.668v-.044h.013Z" transform="translate(-888.824 -908.789)" fill="#e28b6d"/>
      <path id="Path_46915" data-name="Path 46915" d="M816.83,1009.021s8.084.567,12.969,1.513l8.351-14.654a19.056,19.056,0,0,0,8.509,3.939l-7.309,17.222a9.888,9.888,0,0,1-8.536,5.513l-12.517.429Z" transform="translate(-731.176 -908.797)" fill="#ed7545"/>
      <path id="Path_46916" data-name="Path 46916" d="M789.118,1106.814h-.043c-.154-.029-15.42-2.828-18.02-.529a.238.238,0,1,1-.313-.357c2.772-2.451,17.782.3,18.419.417a.238.238,0,0,1-.043.469Z" transform="translate(-690.495 -1004.842)" fill="#ba5c36"/>
      <path id="Path_46917" data-name="Path 46917" d="M2208.319,1639.291l1.05,13.447H2191.88l8.823-6.092-.157-8.405Z" transform="translate(-1942.41 -1474.63)" fill="#102048"/>
      <path id="Path_46918" data-name="Path 46918" d="M2488.078,1599l4.726,11.5-11.974,10.085,1.733-11.345-2.364-7.564Z" transform="translate(-2196.381 -1440.065)" fill="#102048"/>
      <path id="Path_46919" data-name="Path 46919" d="M2234.345,1054.49a12.985,12.985,0,0,0-.442,1.676c-.232,1.166-.435,2.653-.605,4.408-.554,5.719-.787,14.226-.851,23.259-.132,20.34.637,43.358.637,43.358l-3.2-.05-7.878-.119-2.785-.045a366,366,0,0,1-2.383-68.9c.019-.328.044-.63.057-.914.132-1.74.22-2.666.22-2.666Z" transform="translate(-1963.812 -960.425)" fill="#1f3c88"/>
      <path id="Path_46920" data-name="Path 46920" d="M2335.325,1131.673l-1.6.4-8.4,2.1-5.13,1.286s-6.076-22.546-10.929-42.306c-2.331-9.531-4.386-18.411-5.331-23.8a35,35,0,0,1-.549-4.279l7.336.416,9.265.529s.226,1.331.668,3.719C2322.424,1079.258,2327.6,1105.629,2335.325,1131.673Z" transform="translate(-2040.635 -969.745)" fill="#1f3c88"/>
      <path id="Path_46921" data-name="Path 46921" d="M2236.379,1060.432a79.487,79.487,0,0,1-10.539.157c-2.211-.119-4.289-.309-6.182-.542a78.834,78.834,0,0,1-10.28-1.96c-1.072-.291-1.668-.477-1.668-.477l1.72-.435,10.614-2.666h6.838a13.025,13.025,0,0,0-.442,1.676l9.265.529S2235.937,1058.043,2236.379,1060.432Z" transform="translate(-1956.354 -960.443)" fill="#102048"/>
      <path id="Path_46922" data-name="Path 46922" d="M2295.592,1200.2c-.509-2.137-2.917-12.258-3.231-13.972l-4.871-1.826.222-.6,5.242,1.968V1186c.036.467,1.962,8.663,3.248,14.058Z" transform="translate(-2026.63 -1074.339)" fill="#3a6bea"/>
      <path id="Path_46923" data-name="Path 46923" d="M2223.379,1390.112a11.339,11.339,0,0,1-3.829-.6l.238-.586a12.119,12.119,0,0,0,6.231.3l.119.62A14.407,14.407,0,0,1,2223.379,1390.112Z" transform="translate(-1966.784 -1255.022)" fill="#3a6bea"/>
      <path id="Path_46924" data-name="Path 46924" d="M2384.185,1384.454a16.488,16.488,0,0,1-2.795-.247l.119-.62c.043.008,4.305.8,6.272-.578l.357.516A7.151,7.151,0,0,1,2384.185,1384.454Z" transform="translate(-2109.343 -1249.807)" fill="#3a6bea"/>
      <rect id="Rectangle_5045" data-name="Rectangle 5045" width="0.63" height="3.109" transform="translate(258.108 172.285) rotate(-52.54)" fill="#fff"/>
      <rect id="Rectangle_5046" data-name="Rectangle 5046" width="0.63" height="3.628" transform="translate(286.047 169.446) rotate(-67.9)" fill="#fff"/>
      <path id="Path_46925" data-name="Path 46925" d="M2190.88,765.28s-10.82,1.367-13.55,13.548l3.256,14.5-1.47,9.664a128.1,128.1,0,0,0,29.833-1.051l-4.6-24.633Z" transform="translate(-1929.594 -705.67)" fill="#ed7545"/>
      <path id="Path_46926" data-name="Path 46926" d="M2338.693,929.387s-3.256-2.39,1-12.867l2.835,10.321Z" transform="translate(-2070.683 -838.892)" fill="#6e3620"/>
      <path id="Path_46927" data-name="Path 46927" d="M.695,0H.989a.693.693,0,0,1,.693.693v13.7H0V.693A.693.693,0,0,1,.695,0Z" transform="matrix(0.468, 0.884, -0.884, 0.468, 267.264, 69.103)" fill="#102048"/>
      <path id="Path_46928" data-name="Path 46928" d="M2270.011,878.473l-.322-.176-4.178-2.256-7-3.788a2.268,2.268,0,0,1,.476-2.055l-.346-.138a1.846,1.846,0,0,1-1.1-1.362l-.013-.076a3.2,3.2,0,0,1-.038-1.493l.164-.214a5.687,5.687,0,0,1,1.122-1.229l-.9.05s-2.205.605-1.178-.812a8.852,8.852,0,0,1,3.189-2.231.99.99,0,0,1,1.128.2,72.451,72.451,0,0,0,8.363,6.91l.057.768.52,7.085Z" transform="translate(-1999.271 -791.392)" fill="#f9b384"/>
      <path id="Path_46929" data-name="Path 46929" d="M2266.831,884.77l-1.906-.932a1.037,1.037,0,0,0-.639-.091l-2.031.357-.055-.31,2.032-.357a1.355,1.355,0,0,1,.834.119l1.906.932Z" transform="translate(-2004.352 -809.733)" fill="#e28b6d"/>
      <path id="Path_46930" data-name="Path 46930" d="M2269.189,900.561l-2.288-.877a.882.882,0,0,0-.319-.058h-1.3v-.316h1.3a1.208,1.208,0,0,1,.431.08l2.289.877Z" transform="translate(-2007.066 -823.732)" fill="#e28b6d"/>
      <path id="Path_46931" data-name="Path 46931" d="M2269.7,916.138l-2.079-.785a1.1,1.1,0,0,0-.516-.064l-.852.1-.036-.313.852-.1a1.431,1.431,0,0,1,.664.083l2.078.784Z" transform="translate(-2007.894 -837.523)" fill="#e28b6d"/>
      <path id="Path_46932" data-name="Path 46932" d="M2337.094,925.145l-.266.643-4.178-2.256,2.766-7.022,1.16,1.557Z" transform="translate(-2066.409 -838.883)" fill="#e28b6d"/>
      <path id="Path_46933" data-name="Path 46933" d="M2347.5,1015.588s6.251,5.937,11.345,5.778l-1.471-6.986Z" transform="translate(-2079.49 -925.093)" fill="#ba5c36"/>
      <path id="Path_46934" data-name="Path 46934" d="M2291.07,764.894a16.539,16.539,0,0,1,2.053-.036,22.659,22.659,0,0,1,21.665,23.9c-.254,5.212-1.608,10.386-5.965,10.484l-11.03-3.467a29.029,29.029,0,0,0,1-12.867l5.123,2.442Z" transform="translate(-2029.783 -705.284)" fill="#ed7545"/>
      <path id="Path_46935" data-name="Path 46935" d="M2159.527,873.665l-15.416.378-.423-1.3-1.55-4.765-4.488-13.784,15.416-.379Z" transform="translate(-1894.641 -783.653)" fill="#d3dfff"/>
      <path id="Path_46936" data-name="Path 46936" d="M2178.6,958.83s-.025,4.261-1.72,6.417l-1.549-4.765Z" transform="translate(-1927.832 -876.161)" fill="#1f3c88" opacity="0.3"/>
      <path id="Path_46937" data-name="Path 46937" d="M2137.111,914.456a14.689,14.689,0,0,1,2.344-4.321c.31-.416.984-1.437,1.63-1.282,1.311.316,0,2.621,0,2.621s1.261-1.892,1.734-.946a2.228,2.228,0,0,1-.21,2s2-1.31,1.26,1.31c0,0,1.627-.211.63,1.575a31.262,31.262,0,0,1-2.066,3.867,3.374,3.374,0,0,1-3.991,1.169c-1.65-.791-1.861-2.9-1.657-4.507A8.814,8.814,0,0,1,2137.111,914.456Z" transform="translate(-1893.822 -832.124)" fill="#f9b384"/>
      <path id="Path_46938" data-name="Path 46938" d="M2162.605,925.125a.168.168,0,0,1-.063-.013.158.158,0,0,1-.081-.208l1.5-3.387a.157.157,0,1,1,.287.128l-1.494,3.387A.159.159,0,0,1,2162.605,925.125Z" transform="translate(-1916.484 -843.204)" fill="#e28b6d"/>
      <path id="Path_46939" data-name="Path 46939" d="M2175.5,938.378a.162.162,0,0,1-.067-.014.157.157,0,0,1-.076-.21l1.417-3.033a.158.158,0,1,1,.286.133l-1.419,3.033A.155.155,0,0,1,2175.5,938.378Z" transform="translate(-1927.844 -855.197)" fill="#e28b6d"/>
      <path id="Path_46940" data-name="Path 46940" d="M2185.415,952.213a.149.149,0,0,1-.073-.019.155.155,0,0,1-.078-.092.157.157,0,0,1,.011-.12l1.222-2.324a.157.157,0,0,1,.279.147l-1.222,2.322A.156.156,0,0,1,2185.415,952.213Z" transform="translate(-1936.576 -868.007)" fill="#e28b6d"/>
      <path id="Path_46941" data-name="Path 46941" d="M2181.581,851.381h-5.515l-.946-1.891h5.515Z" transform="translate(-1927.647 -779.848)" fill="#102048"/>
      <path id="Path_46942" data-name="Path 46942" d="M2268.774,807.546a4.835,4.835,0,0,1-2.726-.821.238.238,0,1,1,.288-.374,4.535,4.535,0,0,0,5.092-.068.238.238,0,0,1,.238.405A5.576,5.576,0,0,1,2268.774,807.546Z" transform="translate(-2007.637 -741.775)" fill="#ba5c36"/>
      <path id="Path_46943" data-name="Path 46943" d="M2345.756,927.369a.265.265,0,0,1-.067-.01.239.239,0,0,1-.16-.294c2.264-7.673,1.009-12.691,1-12.747l-.092-.357,9.76,1.637a.238.238,0,0,1-.078.466l-9.054-1.519a28.008,28.008,0,0,1-1.072,12.646A.238.238,0,0,1,2345.756,927.369Z" transform="translate(-2077.747 -836.637)" fill="#ba5c36"/>
      <path id="Path_46944" data-name="Path 46944" d="M2381.121,845.09h-.014a.238.238,0,0,1-.222-.25,18.462,18.462,0,0,0-3.269-10.358.238.238,0,1,1,.392-.266,18.93,18.93,0,0,1,3.349,10.652A.238.238,0,0,1,2381.121,845.09Z" transform="translate(-2105.968 -766.281)" fill="#ba5c36"/>
      <path id="Path_46945" data-name="Path 46945" d="M2276.9,716.59v6.076a3.42,3.42,0,1,1-6.835,0V716.59Z" transform="translate(-2011.285 -662.781)" fill="#f9b384"/>
      <path id="Path_46946" data-name="Path 46946" d="M2273.675,719.753s-.357,3.758-3.605,4.845V719.26Z" transform="translate(-2011.285 -665.132)" fill="#102048"/>
      <path id="Path_46947" data-name="Path 46947" d="M2247.221,641.31s-1.06,8.531,2.264,9.544,6.362-1.928,6.362-1.928l-.627-7.038L2250.306,639Z" transform="translate(-1991.016 -594.434)" fill="#f9b384"/>
      <path id="Path_46948" data-name="Path 46948" d="M2244.593,635.831l-6.561.435a7.7,7.7,0,0,1-1.607-3.649,4.561,4.561,0,0,0,.674,3.712l-1.778.119a15.054,15.054,0,0,1-1.335-12.033l.182-1.053s-1.122-3.4-2.747-3.542c0,0-5.578,3.762-8.062-.435-1.852-3.127-.289-7.236,4.17-4.2,0,0,10.708-5.024,10.683,5.275a6.538,6.538,0,0,0,2.055,4.9,3.769,3.769,0,0,0,.372.322C2243.036,627.574,2245.626,631.368,2244.593,635.831Z" transform="translate(-1969.466 -572.374)" fill="#102048"/>
      <ellipse id="Ellipse_15" data-name="Ellipse 15" cx="1.87" cy="1.6" rx="1.87" ry="1.6" transform="matrix(0.307, -0.952, 0.952, 0.307, 262.772, 52.334)" fill="#f9b384"/>
      <path id="Path_46949" data-name="Path 46949" d="M2318.117,687.409a.159.159,0,0,1-.157-.158,1.307,1.307,0,0,1,1.173-1.31h.009a.158.158,0,0,1,.007.316.985.985,0,0,0-.874,1A.159.159,0,0,1,2318.117,687.409Z" transform="translate(-2053.469 -635.782)" fill="#102048"/>
      <path id="Path_46950" data-name="Path 46950" d="M2252.388,682.784a.394.394,0,1,1-.393-.394A.394.394,0,0,1,2252.388,682.784Z" transform="translate(-1995.015 -632.655)" fill="#102048"/>
      <path id="Path_46951" data-name="Path 46951" d="M2272.339,681.134a.393.393,0,1,1-.115-.279A.395.395,0,0,1,2272.339,681.134Z" transform="translate(-2012.589 -631.201)" fill="#102048"/>
      <path id="Path_46952" data-name="Path 46952" d="M2259.19,690.234a.159.159,0,0,1-.111-.045.976.976,0,0,1-.39-.884.817.817,0,0,1,.456-.511l-.036-.779a.158.158,0,0,1,.151-.164.162.162,0,0,1,.165.15l.044,1-.111.039c-.087.03-.322.148-.357.332s.139.429.3.587a.157.157,0,0,1-.11.27Z" transform="translate(-2001.247 -637.464)" fill="#102048"/>
      <path id="Path_46953" data-name="Path 46953" d="M2262.992,711.033a1.4,1.4,0,0,1-.225-.014.157.157,0,0,1-.131-.18.164.164,0,0,1,.18-.131,2.026,2.026,0,0,0,1.507-.494.158.158,0,0,1,.207.238A2.345,2.345,0,0,1,2262.992,711.033Z" transform="translate(-2004.734 -657.129)" fill="#102048"/>
      <circle id="Ellipse_16" data-name="Ellipse 16" cx="1.034" cy="1.034" r="1.034" transform="translate(260.283 50.701)" fill="#eb5d60" opacity="0.4"/>
    </g>
  </g>
</svg>
