<svg xmlns="http://www.w3.org/2000/svg" xmlns:xlink="http://www.w3.org/1999/xlink" width="24" height="24" viewBox="0 0 24 24">
  <defs>
    <linearGradient id="linear-gradient" x1="0.869" y1="0.191" x2="0.126" y2="0.815" gradientUnits="objectBoundingBox">
      <stop offset="0" stop-color="#00ede3"/>
      <stop offset="1" stop-color="#00c7bf"/>
    </linearGradient>
    <clipPath id="clip-path">
      <rect id="Rectangle_4698" data-name="Rectangle 4698" width="10" height="10" fill="#fff" stroke="#c8c8ca" stroke-width="1"/>
    </clipPath>
  </defs>
  <g id="Group_547" data-name="Group 547" transform="translate(13549 5079)">
    <path id="Path_46396" data-name="Path 46396" d="M12,0A12,12,0,1,1,0,12,12,12,0,0,1,12,0Z" transform="translate(-13549 -5079)" fill="url(#linear-gradient)"/>
    <g id="Group_545" data-name="Group 545" transform="translate(-13542.211 -5072.211)" clip-path="url(#clip-path)">
      <g id="group" transform="translate(-0.019 1.08)">
        <g id="Layer_2" data-name="Layer 2" transform="translate(0 0)">
          <g id="Layer_1" data-name="Layer 1">
            <g id="group-2" data-name="group">
              <path id="Path_46397" data-name="Path 46397" d="M5.888,13.829H1.039a1.039,1.039,0,0,1-.819-.4,1.007,1.007,0,0,1-.194-.86,3.533,3.533,0,0,1,6.874,0,1.013,1.013,0,0,1-.194.862A1.043,1.043,0,0,1,5.888,13.829ZM3.464,10.743A2.627,2.627,0,0,0,.888,12.777a.123.123,0,0,0,.025.1.158.158,0,0,0,.123.059H5.885a.158.158,0,0,0,.123-.059.123.123,0,0,0,.025-.1,2.627,2.627,0,0,0-2.569-2.034Z" transform="translate(0 -5.554)" fill="#fff"/>
              <path id="Path_46398" data-name="Path 46398" d="M5.451,3.843A1.924,1.924,0,1,1,7.373,1.92,1.924,1.924,0,0,1,5.451,3.843Zm0-2.958A1.036,1.036,0,1,0,6.485,1.92,1.036,1.036,0,0,0,5.451.886Z" transform="translate(-1.987 0.004)" fill="#fff"/>
              <path id="Path_46399" data-name="Path 46399" d="M15.916,14.527H11.745a.444.444,0,1,1,0-.888h4.171a.05.05,0,0,0,.039-.018.027.027,0,0,0,0-.021,2.1,2.1,0,0,0-3.419-1.1.444.444,0,1,1-.583-.67A2.984,2.984,0,0,1,16.819,13.4a.908.908,0,0,1-.178.774.936.936,0,0,1-.725.355Z" transform="translate(-6.37 -6.253)" fill="#fff"/>
              <path id="Path_46400" data-name="Path 46400" d="M15.156,6.294a1.661,1.661,0,1,1,1.661-1.661A1.661,1.661,0,0,1,15.156,6.294Zm0-2.434a.769.769,0,1,1,0,.007Z" transform="translate(-7.607 -1.673)" fill="#fff"/>
            </g>
          </g>
        </g>
      </g>
    </g>
  </g>
</svg>
