<svg xmlns="http://www.w3.org/2000/svg" xmlns:xlink="http://www.w3.org/1999/xlink" width="18" height="18" viewBox="0 0 18 18"><defs><clipPath id="a"><rect width="18" height="18" transform="translate(31 194)" fill="#fff" stroke="#707070" stroke-width="1"/></clipPath></defs><g transform="translate(-31 -194)" clip-path="url(#a)"><g transform="translate(31 194)"><path d="M6.507,4.041a.527.527,0,1,0,.364-.608A.527.527,0,0,0,6.507,4.041Z" fill="#fff"/><path d="M17.868,11.407C15,3.054,15.2,3.626,15.183,3.6a2.694,2.694,0,0,0-1.591-1.474C13.491,2.088,7.715.737,7.548.679a1.775,1.775,0,0,0-1.722.381L.876,5.615a2.722,2.722,0,0,0-.876,2V15.68A1.721,1.721,0,0,0,1.715,17.4H12.3a1.721,1.721,0,0,0,1.715-1.724V14.9l2.952-1.263a1.713,1.713,0,0,0,.9-2.23ZM12.3,16.349H1.715a.665.665,0,0,1-.66-.669V7.614A1.665,1.665,0,0,1,1.59,6.391c4.241-3.9,1.619-1.468,4.967-4.555a.669.669,0,0,1,.655-.153c.214.064-.163-.243,5.218,4.708a1.665,1.665,0,0,1,.535,1.223V15.68a.665.665,0,0,1-.66.669Zm4.249-3.681-2.535,1.085V7.614a2.722,2.722,0,0,0-.876-2L9.457,2.223l3.815.905a1.637,1.637,0,0,1,.936.87c2.864,8.337,2.671,7.777,2.683,7.806a.657.657,0,0,1-.338.863Z" fill="#fff"/><path d="M8.507,7.112a.527.527,0,0,0-.69.282L5.249,13.513a.527.527,0,1,0,.973.408L8.789,7.8A.527.527,0,0,0,8.507,7.112Z" fill="#fff"/><path d="M6.035,8.632A1.763,1.763,0,0,0,4.373,6.786,1.763,1.763,0,0,0,2.712,8.632a1.763,1.763,0,0,0,1.662,1.846A1.763,1.763,0,0,0,6.035,8.632Zm-1.662.791a.728.728,0,0,1-.607-.791.728.728,0,0,1,.607-.791.728.728,0,0,1,.607.791A.728.728,0,0,1,4.373,9.423Z" fill="#fff"/><path d="M9.695,10.969a1.763,1.763,0,0,0-1.662,1.846,1.763,1.763,0,0,0,1.662,1.846,1.763,1.763,0,0,0,1.662-1.846A1.763,1.763,0,0,0,9.695,10.969Zm0,2.637a.728.728,0,0,1-.607-.791.728.728,0,0,1,.607-.791.728.728,0,0,1,.607.791A.728.728,0,0,1,9.695,13.606Z" fill="#fff"/></g></g></svg>