<svg xmlns="http://www.w3.org/2000/svg" xmlns:xlink="http://www.w3.org/1999/xlink" width="16" height="16.8" viewBox="0 0 16 16.8">
  <defs>
    <clipPath id="clip-path">
      <rect id="Rectangle_4489" data-name="Rectangle 4489" width="16" height="16.8" transform="translate(-0.333 -0.333)" fill="#00a357" stroke="#00a357" stroke-width="1"/>
    </clipPath>
  </defs>
  <g id="Mask_Group_430" data-name="Mask Group 430" transform="translate(0.333 0.333)" clip-path="url(#clip-path)">
    <g id="event_available" data-name="event available" transform="translate(0.588 -0.241)">
      <g id="Layer_2" data-name="Layer 2">
        <g id="Layer_1" data-name="Layer 1">
          <g id="event_available-2" data-name="event available">
            <path id="Path_44497" data-name="Path 44497" d="M13.064,3.317a.691.691,0,0,1-.691-.691V.691a.691.691,0,1,1,1.382,0V2.626A.691.691,0,0,1,13.064,3.317Z" transform="translate(-2.283)" fill="#00a357"/>
            <path id="Path_44498" data-name="Path 44498" d="M4.589,3.317A.691.691,0,0,1,3.9,2.626V.691a.691.691,0,1,1,1.382,0V2.626a.691.691,0,0,1-.691.691Z" transform="translate(-0.719)" fill="#00a357"/>
            <path id="Path_44499" data-name="Path 44499" d="M11.748,16.747H2.9a2.905,2.905,0,0,1-2.9-2.9V5.275a2.905,2.905,0,0,1,2.9-2.9h8.846a2.905,2.905,0,0,1,2.9,2.9v8.569A2.905,2.905,0,0,1,11.748,16.747ZM2.9,3.755a1.523,1.523,0,0,0-1.52,1.52v8.569a1.523,1.523,0,0,0,1.52,1.52h8.846a1.523,1.523,0,0,0,1.52-1.52V5.275a1.523,1.523,0,0,0-1.52-1.52Z" transform="translate(0 -0.438)" fill="#00a357"/>
            <path id="Path_44500" data-name="Path 44500" d="M7.3,15.42a.691.691,0,0,1-.489-.2l-2.2-2.195a.692.692,0,1,1,.979-.979L7.3,13.761l3.394-3.4a.691.691,0,1,1,.979.976L7.782,15.21a.68.68,0,0,1-.487.21Z" transform="translate(-0.813 -1.875)" fill="#00a357"/>
            <path id="Path_44501" data-name="Path 44501" d="M13.959,8.162H.691a.691.691,0,0,1,0-1.382H13.959a.691.691,0,0,1,0,1.382Z" transform="translate(0 -1.251)" fill="#00a357"/>
          </g>
        </g>
      </g>
    </g>
  </g>
</svg>
