<svg xmlns="http://www.w3.org/2000/svg" xmlns:xlink="http://www.w3.org/1999/xlink" width="16" height="16" viewBox="0 0 16 16">
  <defs>
    <clipPath id="clip-path">
      <rect id="Rectangle_4487" data-name="Rectangle 4487" width="16" height="16" transform="translate(0.346 0.346)" fill="#000" stroke="#000" stroke-width="1"/>
    </clipPath>
  </defs>
  <g id="Mask_Group_431" data-name="Mask Group 431" transform="translate(-0.346 -0.346)" clip-path="url(#clip-path)">
    <g id="call" transform="translate(0.274 0.273)">
      <g id="Layer_2" data-name="Layer 2">
        <g id="Layer_1" data-name="Layer 1">
          <path id="call-2" data-name="call" d="M11.975,15.757a2.978,2.978,0,0,1-1.293-.294A22.118,22.118,0,0,1,4.607,11.15,22.118,22.118,0,0,1,.294,5.074,3.018,3.018,0,0,1,.89,1.64L2.332.195a.671.671,0,0,1,.945,0L6.712,3.632a.665.665,0,0,1,0,.943L5.472,5.814A12.68,12.68,0,0,0,7.425,8.332a12.6,12.6,0,0,0,2.518,1.952l1.239-1.239a.665.665,0,0,1,.943,0l3.437,3.434a.673.673,0,0,1,0,.945l-1.445,1.442a3.028,3.028,0,0,1-2.142.889ZM2.8,1.6l-.972.98A1.685,1.685,0,0,0,1.5,4.5,20.8,20.8,0,0,0,5.55,10.2a20.8,20.8,0,0,0,5.71,4.054,1.682,1.682,0,0,0,1.915-.337l.98-.969-2.492-2.492-1.124,1.124a.668.668,0,0,1-.8.118A13.938,13.938,0,0,1,6.479,9.275,13.866,13.866,0,0,1,4.052,6.017a.668.668,0,0,1,.118-.8L5.293,4.089Z" transform="translate(-0.001 0)" fill="#000"/>
        </g>
      </g>
    </g>
  </g>
</svg>
