<svg xmlns="http://www.w3.org/2000/svg" xmlns:xlink="http://www.w3.org/1999/xlink" width="16" height="16" viewBox="0 0 16 16"><defs><clipPath id="a"><rect width="16" height="16" transform="translate(16 662)" fill="#fff" stroke="#707070" stroke-width="1"/></clipPath></defs><g transform="translate(-16 -662)" clip-path="url(#a)"><g transform="translate(16 662)"><path d="M14.936,8.207a.469.469,0,0,1,0-.414l.6-1.221a1.389,1.389,0,0,0-.6-1.844l-1.2-.637a.469.469,0,0,1-.244-.335l-.235-1.338a1.389,1.389,0,0,0-1.569-1.14l-1.345.19a.469.469,0,0,1-.394-.128L8.97.394a1.389,1.389,0,0,0-1.939,0l-.977.945a.469.469,0,0,1-.394.128l-1.345-.19a1.389,1.389,0,0,0-1.569,1.14L2.51,3.755a.469.469,0,0,1-.244.335l-1.2.637a1.389,1.389,0,0,0-.6,1.844l.6,1.221a.469.469,0,0,1,0,.414l-.6,1.221a1.389,1.389,0,0,0,.6,1.844l1.2.637a.469.469,0,0,1,.244.335l.235,1.338a1.388,1.388,0,0,0,1.369,1.154,1.427,1.427,0,0,0,.2-.014l1.345-.19a.469.469,0,0,1,.394.128l.977.945a1.389,1.389,0,0,0,1.939,0l.977-.945a.469.469,0,0,1,.394-.128l1.345.19a1.389,1.389,0,0,0,1.569-1.14l.235-1.338a.469.469,0,0,1,.244-.335l1.2-.637a1.389,1.389,0,0,0,.6-1.844Zm-.435,2.25-1.2.637a1.386,1.386,0,0,0-.72.991l-.235,1.338a.47.47,0,0,1-.531.386l-1.345-.19A1.385,1.385,0,0,0,9.3,14l-.977.945a.47.47,0,0,1-.656,0L6.7,14a1.384,1.384,0,0,0-.966-.393,1.416,1.416,0,0,0-.2.014l-1.345.19a.47.47,0,0,1-.531-.386l-.235-1.338a1.386,1.386,0,0,0-.72-.991l-1.2-.637a.47.47,0,0,1-.2-.624l.6-1.221a1.386,1.386,0,0,0,0-1.225L1.3,6.167a.47.47,0,0,1,.2-.624l1.2-.637a1.386,1.386,0,0,0,.72-.991l.235-1.338a.47.47,0,0,1,.531-.386l1.345.19A1.386,1.386,0,0,0,6.7,2l.977-.945a.47.47,0,0,1,.656,0L9.3,2a1.386,1.386,0,0,0,1.165.379l1.345-.19a.47.47,0,0,1,.531.386l.235,1.338a1.386,1.386,0,0,0,.72.991l1.2.637a.47.47,0,0,1,.2.624l-.6,1.221a1.386,1.386,0,0,0,0,1.225l.6,1.221A.47.47,0,0,1,14.5,10.457Z" fill="#f6ae33"/><path d="M11.371,4.629a.461.461,0,0,0-.653,0l-6.09,6.09a.461.461,0,1,0,.652.653l6.09-6.09A.461.461,0,0,0,11.371,4.629Z" fill="#f6ae33"/><path d="M6.154,3.847A1.692,1.692,0,1,0,7.846,5.539,1.694,1.694,0,0,0,6.154,3.847Zm0,2.461a.769.769,0,1,1,.769-.769A.77.77,0,0,1,6.154,6.308Z" fill="#f6ae33"/><path d="M9.846,8.769a1.692,1.692,0,1,0,1.692,1.692A1.694,1.694,0,0,0,9.846,8.769Zm0,2.461a.769.769,0,1,1,.769-.769A.77.77,0,0,1,9.846,11.23Z" fill="#f6ae33"/></g></g></svg>