<svg xmlns="http://www.w3.org/2000/svg" xmlns:xlink="http://www.w3.org/1999/xlink" width="16" height="16" viewBox="0 0 16 16"><defs><clipPath id="a"><rect width="16" height="16" transform="translate(342 413)" fill="#707070" stroke="#707070" stroke-width="1"/></clipPath></defs><g transform="translate(-342 -413)" clip-path="url(#a)"><g transform="translate(341.07 412.07)"><path d="M8.93,16.93a8,8,0,1,1,8-8A8.007,8.007,0,0,1,8.93,16.93Zm0-14.884A6.884,6.884,0,1,0,15.814,8.93,6.892,6.892,0,0,0,8.93,2.047Z" fill="#707070"/><path d="M6.824,11.594a.552.552,0,0,1-.394-.164.561.561,0,0,1,0-.789L10.642,6.43a.558.558,0,1,1,.789.789L7.219,11.431A.54.54,0,0,1,6.824,11.594Z" fill="#707070"/><path d="M11.036,11.594a.552.552,0,0,1-.394-.164L6.43,7.219a.558.558,0,0,1,.789-.789l4.212,4.212a.561.561,0,0,1,0,.789.552.552,0,0,1-.394.164Z" fill="#707070"/></g></g></svg>