<svg id="Component_64_11" data-name="Component 64 – 11" xmlns="http://www.w3.org/2000/svg" xmlns:xlink="http://www.w3.org/1999/xlink" width="316" height="83" viewBox="0 0 316 83">
  <defs>
    <clipPath id="clip-path">
      <rect id="Rectangle_147" data-name="Rectangle 147" width="30" height="30" fill="#f2f2f7" stroke="#f2f2f7" stroke-width="2"/>
    </clipPath>
    <clipPath id="clip-path-2">
      <rect id="Rectangle_146" data-name="Rectangle 146" width="38" height="29" fill="rgba(60,60,67,0.6)" stroke="rgba(60,60,67,0.6)" stroke-width="2"/>
    </clipPath>
    <clipPath id="clip-path-3">
      <rect id="Rectangle_143" data-name="Rectangle 143" width="30" height="30" transform="translate(-0.107)" fill="#00adab" stroke="#f2f2f7" stroke-width="1"/>
    </clipPath>
  </defs>
  <g id="Path_44243" data-name="Path 44243" transform="translate(3)" fill="#00adab">
    <path d="M 25 49.5 C 21.69230079650879 49.5 18.48381042480469 48.85229110717773 15.46364974975586 47.57487106323242 C 12.54625988006592 46.3409309387207 9.926079750061035 44.57432174682617 7.675879955291748 42.32411956787109 C 5.425680160522461 40.07392120361328 3.659070014953613 37.45373916625977 2.425129890441895 34.53635025024414 C 1.147709965705872 31.51618957519531 0.5 28.30769920349121 0.5 25 C 0.5 21.69230079650879 1.147709965705872 18.48381042480469 2.425129890441895 15.46364974975586 C 3.659070014953613 12.54625988006592 5.425680160522461 9.926079750061035 7.675879955291748 7.675879955291748 C 9.926079750061035 5.425680160522461 12.54625988006592 3.659070014953613 15.46364974975586 2.425129890441895 C 18.48381042480469 1.147709965705872 21.69230079650879 0.5 25 0.5 C 28.30769920349121 0.5 31.51618957519531 1.147709965705872 34.53635025024414 2.425129890441895 C 37.45373916625977 3.659070014953613 40.07392120361328 5.425680160522461 42.32411956787109 7.675879955291748 C 44.57432174682617 9.926079750061035 46.3409309387207 12.54625988006592 47.57487106323242 15.46364974975586 C 48.85229110717773 18.48381042480469 49.5 21.69230079650879 49.5 25 C 49.5 28.30769920349121 48.85229110717773 31.51618957519531 47.57487106323242 34.53635025024414 C 46.3409309387207 37.45373916625977 44.57432174682617 40.07392120361328 42.32411956787109 42.32411956787109 C 40.07392120361328 44.57432174682617 37.45373916625977 46.3409309387207 34.53635025024414 47.57487106323242 C 31.51618957519531 48.85229110717773 28.30769920349121 49.5 25 49.5 Z" stroke="none"/>
    <path d="M 25 1 C 21.75958061218262 1 18.61661911010742 1.634418487548828 15.65842056274414 2.885631561279297 C 12.80064010620117 4.094371795654297 10.23387908935547 5.825000762939453 8.029441833496094 8.029441833496094 C 5.825000762939453 10.23387908935547 4.094371795654297 12.80064010620117 2.885631561279297 15.65842056274414 C 1.634418487548828 18.61661911010742 1 21.75958061218262 1 25 C 1 28.24041938781738 1.634418487548828 31.38338088989258 2.885631561279297 34.34157943725586 C 4.094371795654297 37.19935989379883 5.825000762939453 39.76612091064453 8.029441833496094 41.97055816650391 C 10.23387908935547 44.17499923706055 12.80064010620117 45.90563201904297 15.65842056274414 47.1143684387207 C 18.61661911010742 48.36558151245117 21.75958061218262 49 25 49 C 28.24041938781738 49 31.38338088989258 48.36558151245117 34.34157943725586 47.1143684387207 C 37.19935989379883 45.90563201904297 39.76612091064453 44.17499923706055 41.97055816650391 41.97055816650391 C 44.17499923706055 39.76612091064453 45.90563201904297 37.19935989379883 47.1143684387207 34.34157943725586 C 48.36558151245117 31.38338088989258 49 28.24041938781738 49 25 C 49 21.75958061218262 48.36558151245117 18.61661911010742 47.1143684387207 15.65842056274414 C 45.90563201904297 12.80064010620117 44.17499923706055 10.23387908935547 41.97055816650391 8.029441833496094 C 39.76612091064453 5.825000762939453 37.19935989379883 4.094371795654297 34.34157943725586 2.885631561279297 C 31.38338088989258 1.634418487548828 28.24041938781738 1 25 1 M 25 0 C 38.80712127685547 0 50 11.19287872314453 50 25 C 50 38.80712127685547 38.80712127685547 50 25 50 C 11.19287872314453 50 0 38.80712127685547 0 25 C 0 11.19287872314453 11.19287872314453 0 25 0 Z" stroke="none" fill="#00adab"/>
  </g>
  <g id="Path_44244" data-name="Path 44244" transform="translate(131)" fill="none">
    <path d="M25,0A25,25,0,1,1,0,25,25,25,0,0,1,25,0Z" stroke="none"/>
    <path d="M 25 1 C 21.75958061218262 1 18.61661911010742 1.634418487548828 15.65842056274414 2.885631561279297 C 12.80064010620117 4.094371795654297 10.23387908935547 5.825000762939453 8.029441833496094 8.029441833496094 C 5.825000762939453 10.23387908935547 4.094371795654297 12.80064010620117 2.885631561279297 15.65842056274414 C 1.634418487548828 18.61661911010742 1 21.75958061218262 1 25 C 1 28.24041938781738 1.634418487548828 31.38338088989258 2.885631561279297 34.34157943725586 C 4.094371795654297 37.19935989379883 5.825000762939453 39.76612091064453 8.029441833496094 41.97055816650391 C 10.23387908935547 44.17499923706055 12.80064010620117 45.90563201904297 15.65842056274414 47.1143684387207 C 18.61661911010742 48.36558151245117 21.75958061218262 49 25 49 C 28.24041938781738 49 31.38338088989258 48.36558151245117 34.34157943725586 47.1143684387207 C 37.19935989379883 45.90563201904297 39.76612091064453 44.17499923706055 41.97055816650391 41.97055816650391 C 44.17499923706055 39.76612091064453 45.90563201904297 37.19935989379883 47.1143684387207 34.34157943725586 C 48.36558151245117 31.38338088989258 49 28.24041938781738 49 25 C 49 21.75958061218262 48.36558151245117 18.61661911010742 47.1143684387207 15.65842056274414 C 45.90563201904297 12.80064010620117 44.17499923706055 10.23387908935547 41.97055816650391 8.029441833496094 C 39.76612091064453 5.825000762939453 37.19935989379883 4.094371795654297 34.34157943725586 2.885631561279297 C 31.38338088989258 1.634418487548828 28.24041938781738 1 25 1 M 25 0 C 38.80712127685547 0 50 11.19287872314453 50 25 C 50 38.80712127685547 38.80712127685547 50 25 50 C 11.19287872314453 50 0 38.80712127685547 0 25 C 0 11.19287872314453 11.19287872314453 0 25 0 Z" stroke="none" fill="#00adab"/>
  </g>
  <g id="Path_44245" data-name="Path 44245" transform="translate(259)" fill="none">
    <path d="M25,0A25,25,0,1,1,0,25,25,25,0,0,1,25,0Z" stroke="none"/>
    <path d="M 25 1 C 21.75958061218262 1 18.61661911010742 1.634418487548828 15.65842056274414 2.885631561279297 C 12.80064010620117 4.094371795654297 10.23387908935547 5.825000762939453 8.029441833496094 8.029441833496094 C 5.825000762939453 10.23387908935547 4.094371795654297 12.80064010620117 2.885631561279297 15.65842056274414 C 1.634418487548828 18.61661911010742 1 21.75958061218262 1 25 C 1 28.24041938781738 1.634418487548828 31.38338088989258 2.885631561279297 34.34157943725586 C 4.094371795654297 37.19935989379883 5.825000762939453 39.76612091064453 8.029441833496094 41.97055816650391 C 10.23387908935547 44.17499923706055 12.80064010620117 45.90563201904297 15.65842056274414 47.1143684387207 C 18.61661911010742 48.36558151245117 21.75958061218262 49 25 49 C 28.24041938781738 49 31.38338088989258 48.36558151245117 34.34157943725586 47.1143684387207 C 37.19935989379883 45.90563201904297 39.76612091064453 44.17499923706055 41.97055816650391 41.97055816650391 C 44.17499923706055 39.76612091064453 45.90563201904297 37.19935989379883 47.1143684387207 34.34157943725586 C 48.36558151245117 31.38338088989258 49 28.24041938781738 49 25 C 49 21.75958061218262 48.36558151245117 18.61661911010742 47.1143684387207 15.65842056274414 C 45.90563201904297 12.80064010620117 44.17499923706055 10.23387908935547 41.97055816650391 8.029441833496094 C 39.76612091064453 5.825000762939453 37.19935989379883 4.094371795654297 34.34157943725586 2.885631561279297 C 31.38338088989258 1.634418487548828 28.24041938781738 1 25 1 M 25 0 C 38.80712127685547 0 50 11.19287872314453 50 25 C 50 38.80712127685547 38.80712127685547 50 25 50 C 11.19287872314453 50 0 38.80712127685547 0 25 C 0 11.19287872314453 11.19287872314453 0 25 0 Z" stroke="none" fill="rgba(60,60,67,0.6)"/>
  </g>
  <g id="Mask_Group_20" data-name="Mask Group 20" transform="translate(14 9)" clip-path="url(#clip-path)">
    <path id="approval" d="M12.6,28.828A1.172,1.172,0,0,1,11.426,30H4.688A4.693,4.693,0,0,1,0,25.313V4.688A4.693,4.693,0,0,1,4.688,0H19.1a4.693,4.693,0,0,1,4.688,4.688V17.109a1.172,1.172,0,0,1-2.344,0V4.688A2.347,2.347,0,0,0,19.1,2.344H4.688A2.347,2.347,0,0,0,2.344,4.688V25.313a2.347,2.347,0,0,0,2.344,2.344h6.738A1.172,1.172,0,0,1,12.6,28.828ZM26.4,19.086a1.172,1.172,0,0,0-1.635.271l-5.776,8.069a.67.67,0,0,1-.964.05L14.29,23.885a1.172,1.172,0,1,0-1.623,1.691l3.743,3.594A3.023,3.023,0,0,0,18.489,30q.1,0,.2-.007a3.02,3.02,0,0,0,2.148-1.119c.014-.017.027-.034.039-.052l5.8-8.1A1.172,1.172,0,0,0,26.4,19.086ZM17.923,7.031H5.853a1.172,1.172,0,0,0,0,2.344h12.07a1.172,1.172,0,0,0,0-2.344ZM19.1,12.891a1.172,1.172,0,0,0-1.172-1.172H5.853a1.172,1.172,0,0,0,0,2.344h12.07A1.172,1.172,0,0,0,19.1,12.891ZM5.853,16.406a1.172,1.172,0,0,0,0,2.344h7.331a1.172,1.172,0,0,0,0-2.344Zm0,0" transform="translate(1.553)" fill="#f2f2f7" stroke="#00adab" stroke-width="1"/>
  </g>
  <g id="Mask_Group_19" data-name="Mask Group 19" transform="translate(265 10)" clip-path="url(#clip-path-2)">
    <g id="delivery-truck" transform="translate(0 1.082)">
      <g id="Group_358" data-name="Group 358" transform="translate(0 0)">
        <g id="Group_357" data-name="Group 357">
          <path id="Path_202" data-name="Path 202" d="M30.6,12.866h-2.38l.717-8.229c0-.015,0-.03,0-.044s0,0,0,0h0a.553.553,0,0,0-.334-.507l-.005,0-.038-.014-.014,0-.032-.008L28.5,4.046l-.029,0-.027,0H17.056a.553.553,0,1,0,0,1.107H27.786l-1.1,12.647v0l-.278,3.191H7.163l.322-3.321h3.664a.553.553,0,1,0,0-1.107H7.592l.68-7.01H14.1a.553.553,0,1,0,0-1.107H8.379l.32-3.3h6.143a.553.553,0,1,0,0-1.107H8.2a.554.554,0,0,0-.54.437v.005c0,.014,0,.028-.006.042s0,.009,0,.013v0l-.378,3.9H.554a.553.553,0,1,0,0,1.107H7.159l-.68,7.01H4.5a.553.553,0,1,0,0,1.107H6.373L6,21.479v0l-.572,5.9v0c0,.008,0,.015,0,.023s0,.02,0,.03h0c0,.014,0,.028,0,.042s0,.009,0,.014,0,.028.006.042,0,.008,0,.012.005.021.008.031,0,.015.006.022l0,.006a.553.553,0,0,0,.132.217l0,0,.019.017a.55.55,0,0,0,.128.088l.03.014.009,0,.042.015h0l.05.013h.007l.049.007h0l.054,0H8.447a4.215,4.215,0,0,0,8.357,0h8.882a4.215,4.215,0,0,0,8.358,0h2.467l.055,0h.01l.043-.006.018,0,.032-.008.021-.007.027-.01.022-.01.024-.012.022-.012.023-.014.021-.014.022-.016.018-.015.022-.02.015-.015.022-.024.012-.013.023-.031.008-.011c.009-.014.017-.027.025-.042l0,0c.008-.015.016-.031.023-.047l.005-.014c0-.011.009-.023.013-.035s0-.016.006-.023.005-.018.007-.028,0-.017,0-.025,0-.015,0-.022c.023-.188.457-3.665.651-5.914v-.006c.056-.648.091-1.194.091-1.528A7.205,7.205,0,0,0,30.6,12.866Zm-2.476,1.107h2.265L30.1,17.293H27.838Zm-15.5,16.575a3.107,3.107,0,1,1,3.109-3.107A3.112,3.112,0,0,1,12.626,30.548Zm17.239,0a3.107,3.107,0,1,1,3.109-3.107A3.111,3.111,0,0,1,29.866,30.548Zm6.155-3.661H34.045a4.215,4.215,0,0,0-8.358,0H16.805a4.215,4.215,0,0,0-8.358,0H6.591l.465-4.8H26.913l.055,0h.01l.043-.007.018,0,.033-.008.022-.007.028-.01.023-.01.024-.012.022-.013L27.214,22l.021-.014.021-.016.019-.016.021-.019.017-.017.019-.021.015-.017.018-.024.013-.018.016-.026.011-.02.013-.026.01-.022c0-.009.007-.018.01-.027l.008-.024.007-.026c0-.009,0-.017.006-.026s0-.018,0-.026,0-.018,0-.027v0l.278-3.184H30.6a3.967,3.967,0,0,1,3.272,1.809,4.544,4.544,0,0,0,2.683,1.833C36.4,23.744,36.138,25.93,36.021,26.887Zm.633-5.954a3.624,3.624,0,0,1-1.943-1.45,5.2,5.2,0,0,0-3.5-2.156l.286-3.288a6.1,6.1,0,0,1,5.2,6.022C36.7,20.269,36.68,20.57,36.654,20.933Z" transform="translate(0 -4.035)" fill="rgba(60,60,67,0.6)"/>
        </g>
      </g>
      <g id="Group_360" data-name="Group 360" transform="translate(10.596 21.376)">
        <g id="Group_359" data-name="Group 359">
          <path id="Path_203" data-name="Path 203" d="M10.439,21.007a2.029,2.029,0,1,0,2.03,2.029A2.032,2.032,0,0,0,10.439,21.007Zm0,2.952a.922.922,0,1,1,.923-.922A.924.924,0,0,1,10.439,23.959Z" transform="translate(-8.409 -21.007)" fill="rgba(60,60,67,0.6)"/>
        </g>
      </g>
      <g id="Group_362" data-name="Group 362" transform="translate(27.835 21.376)">
        <g id="Group_361" data-name="Group 361">
          <path id="Path_204" data-name="Path 204" d="M24.12,21.007a2.029,2.029,0,1,0,2.03,2.029A2.032,2.032,0,0,0,24.12,21.007Zm0,2.952a.922.922,0,1,1,.923-.922A.924.924,0,0,1,24.12,23.959Z" transform="translate(-22.09 -21.007)" fill="rgba(60,60,67,0.6)"/>
        </g>
      </g>
      <g id="Group_364" data-name="Group 364" transform="translate(1.981 8.831)">
        <g id="Group_363" data-name="Group 363">
          <path id="Path_205" data-name="Path 205" d="M4.833,11.047H2.126a.553.553,0,1,0,0,1.107H4.833a.553.553,0,1,0,0-1.107Z" transform="translate(-1.572 -11.047)" fill="rgba(60,60,67,0.6)"/>
        </g>
      </g>
    </g>
  </g>
  <g id="Mask_Group_17" data-name="Mask Group 17" transform="translate(141.107 9)" clip-path="url(#clip-path-3)">
    <g id="contact-book" transform="translate(1.873)">
      <path id="Path_190" data-name="Path 190" d="M22.724,0H5.845A3.573,3.573,0,0,0,2.274,3.571V5.114H.6a.714.714,0,1,0,0,1.429H2.267v4.686H.6a.714.714,0,1,0,0,1.429H2.267v4.686H.6a.714.714,0,0,0,0,1.429H2.267v4.686H.6a.714.714,0,1,0,0,1.429H2.267v1.543A3.573,3.573,0,0,0,5.838,30H22.717a3.573,3.573,0,0,0,3.571-3.571V3.571A3.566,3.566,0,0,0,22.724,0Zm2.143,26.429a2.149,2.149,0,0,1-2.143,2.143H5.845A2.149,2.149,0,0,1,3.7,26.429V24.886H5.374a.714.714,0,1,0,0-1.429H3.7V18.771H5.374a.714.714,0,1,0,0-1.429H3.7V12.657H5.374a.714.714,0,1,0,0-1.429H3.7V6.543H5.374a.714.714,0,1,0,0-1.429H3.7V3.571A2.149,2.149,0,0,1,5.845,1.429H22.724a2.149,2.149,0,0,1,2.143,2.143Zm0,0" transform="translate(0.119)" fill="#00adab" stroke="#f2f2f7" stroke-width="0.3"/>
      <path id="Path_191" data-name="Path 191" d="M14.281,14.793a3.464,3.464,0,1,0-3.464-3.464A3.464,3.464,0,0,0,14.281,14.793Zm0-5.507a2.036,2.036,0,1,1-2.036,2.036A2.036,2.036,0,0,1,14.281,9.286Zm0,0" transform="translate(0.119)" fill="#00adab"/>
      <path id="Path_192" data-name="Path 192" d="M14.281,15.943a5.337,5.337,0,0,0-5.3,5.486.716.716,0,0,0,.714.714h9.172a.716.716,0,0,0,.714-.714A5.337,5.337,0,0,0,14.281,15.943Zm-3.815,4.771a3.848,3.848,0,0,1,7.629,0Zm0,0" transform="translate(0.119)" fill="#00adab"/>
    </g>
  </g>
  <g id="Rectangle_4140" data-name="Rectangle 4140" transform="translate(53 24)" fill="none" stroke="#00adab" stroke-width="1">
    <rect width="78" height="1" stroke="none"/>
    <rect x="0.5" y="0.5" width="77" fill="none"/>
  </g>
  <g id="Rectangle_4141" data-name="Rectangle 4141" transform="translate(181 24)" fill="#fff" stroke="rgba(60,60,67,0.6)" stroke-width="1">
    <rect width="78" height="1" stroke="none"/>
    <rect x="0.5" y="0.5" width="77" fill="none"/>
  </g>
  <text id="Xác_nhận" data-name="Xác nhận" transform="translate(59 79)" fill="#00adab" font-size="14" font-family="SFProText-Regular, SF Pro Text" letter-spacing="-0.024em"><tspan x="-58.809" y="0">Xác nhận</tspan></text>
  <text id="Liên_hệ" data-name="Liên hệ" transform="translate(158 79)" fill="#00adab" font-size="14" font-family="SFProText-Regular, SF Pro Text" letter-spacing="-0.024em"><tspan x="-22.867" y="0">Liên hệ</tspan></text>
  <text id="Giao_hàng" data-name="Giao hàng" transform="translate(284 79)" fill="rgba(60,60,67,0.6)" font-size="14" font-family="SFProText-Regular, SF Pro Text" letter-spacing="-0.024em"><tspan x="-31.909" y="0">Giao hàng</tspan></text>
</svg>
