<svg xmlns="http://www.w3.org/2000/svg" xmlns:xlink="http://www.w3.org/1999/xlink" width="28" height="28" viewBox="0 0 28 28">
  <defs>
    <linearGradient id="linear-gradient" x1="1.372" y1="-0.298" x2="0.157" y2="0.862" gradientUnits="objectBoundingBox">
      <stop offset="0" stop-color="#ffe98a"/>
      <stop offset="1" stop-color="#e60456"/>
    </linearGradient>
    <clipPath id="clip-path">
      <rect id="Rectangle_102" data-name="Rectangle 102" width="12" height="12" transform="translate(0.051 0.05)" fill="#fff" stroke="#707070" stroke-width="1"/>
    </clipPath>
    <clipPath id="clip-path-2">
      <rect id="Rectangle_4612" data-name="Rectangle 4612" width="12" height="12" transform="translate(209 381)" fill="#fff" stroke="#707070" stroke-width="1"/>
    </clipPath>
  </defs>
  <g id="Group_46" data-name="Group 46" transform="translate(-201 -353)">
    <g id="Group_25" data-name="Group 25" transform="translate(201 353)">
      <rect id="Rectangle_26" data-name="Rectangle 26" width="28" height="28" rx="14" fill="url(#linear-gradient)"/>
    </g>
    <g id="Mask_Group_456" data-name="Mask Group 456" transform="translate(0 -20)" clip-path="url(#clip-path-2)">
      <g id="history" transform="translate(209 381)">
        <path id="Path_44551" data-name="Path 44551" d="M6.469,3.234V5.806L8.175,7.512a.469.469,0,0,1-.663.663L5.669,6.331A.469.469,0,0,1,5.531,6V3.234a.469.469,0,0,1,.938,0ZM7.844,0H4.156A4.142,4.142,0,0,0,1.431,1.019V.469a.469.469,0,0,0-.938,0V2.313a.47.47,0,0,0,.469.469H2.806a.469.469,0,1,0,0-.937H1.919A3.23,3.23,0,0,1,4.156.938H7.844a3.222,3.222,0,0,1,3.219,3.219V7.844a3.222,3.222,0,0,1-3.219,3.219H4.156A3.222,3.222,0,0,1,.938,7.844V6A.469.469,0,0,0,0,6V7.844A4.161,4.161,0,0,0,4.156,12H7.844A4.161,4.161,0,0,0,12,7.844V4.156A4.161,4.161,0,0,0,7.844,0Z" fill="#fff" stroke="#fff" stroke-width="0.2"/>
      </g>
    </g>
  </g>
</svg>
