<svg xmlns="http://www.w3.org/2000/svg" xmlns:xlink="http://www.w3.org/1999/xlink" width="16" height="16" viewBox="0 0 16 16"><defs><clipPath id="a"><rect width="16" height="16" transform="translate(-22057 6899)" fill="#24c14a" stroke="#24c14a" stroke-width="1"/></clipPath></defs><g transform="translate(22057 -6899)" clip-path="url(#a)"><g transform="translate(-22057.93 6898.07)"><path d="M5.953,4.279A.562.562,0,0,1,5.4,3.721V1.488a.558.558,0,1,1,1.116,0V3.721A.562.562,0,0,1,5.953,4.279Z" fill="#24c14a"/><path d="M11.907,4.279a.562.562,0,0,1-.558-.558V1.488a.558.558,0,0,1,1.116,0V3.721A.562.562,0,0,1,11.907,4.279Z" fill="#24c14a"/><path d="M11.907,16.93H5.953a3.9,3.9,0,0,1-4.279-4.279V6.326A3.9,3.9,0,0,1,5.953,2.047h5.953a3.9,3.9,0,0,1,4.279,4.279v6.326A3.9,3.9,0,0,1,11.907,16.93ZM5.953,3.163c-2.128,0-3.163,1.034-3.163,3.163v6.326c0,2.128,1.034,3.163,3.163,3.163h5.953c2.128,0,3.163-1.034,3.163-3.163V6.326c0-2.128-1.034-3.163-3.163-3.163Z" fill="#24c14a"/><path d="M11.907,8.744H5.953a.558.558,0,0,1,0-1.116h5.953a.558.558,0,1,1,0,1.116Z" fill="#24c14a"/><path d="M8.93,12.465H5.953a.558.558,0,0,1,0-1.116H8.93a.558.558,0,0,1,0,1.116Z" fill="#24c14a"/></g></g></svg>