<svg xmlns="http://www.w3.org/2000/svg" xmlns:xlink="http://www.w3.org/1999/xlink" width="16" height="16" viewBox="0 0 16 16"><defs><clipPath id="a"><rect width="16" height="16" transform="translate(14 662)" fill="#007aff" stroke="#707070" stroke-width="1"/></clipPath></defs><g transform="translate(-14 -662)" clip-path="url(#a)"><g transform="translate(13.07 661.07)"><path d="M8.93,16.93A1.93,1.93,0,0,1,7.4,16.112l-.752-1a.8.8,0,0,0-.588-.342.833.833,0,0,0-.625.275l-.424-.38.409.38c-1.072,1.146-1.9,1.057-2.292.9s-1.079-.67-1.079-2.322V5.239C2.047,1.935,3,.93,6.117.93h5.626c3.118,0,4.071,1,4.071,4.309v8.38c0,1.645-.677,2.158-1.079,2.322s-1.213.246-2.292-.9a.765.765,0,0,0-.633-.275.818.818,0,0,0-.6.342l-.752,1a1.93,1.93,0,0,1-1.533.819ZM6.013,13.641h.1a1.92,1.92,0,0,1,1.421.789l.752,1a.752.752,0,0,0,1.287,0l.752-1a1.87,1.87,0,0,1,2.932-.156c.566.6.93.677,1.064.625.179-.074.372-.506.372-1.28V5.239c0-2.687-.469-3.193-2.954-3.193H6.117c-2.486,0-2.954.506-2.954,3.193v8.38c0,.781.193,1.213.372,1.28.127.052.5-.022,1.064-.625a1.985,1.985,0,0,1,1.414-.633Z" fill="#007aff"/><path d="M12.078,8.744H7.985a.558.558,0,0,1,0-1.116h4.093a.558.558,0,0,1,0,1.116Z" fill="#007aff"/><path d="M12.078,5.767H7.985a.558.558,0,1,1,0-1.116h4.093a.558.558,0,1,1,0,1.116Z" fill="#007aff"/><path d="M5.79,5.953a.744.744,0,1,1,.744-.744A.746.746,0,0,1,5.79,5.953Z" fill="#007aff"/><path d="M5.79,8.93a.744.744,0,1,1,.744-.744A.746.746,0,0,1,5.79,8.93Z" fill="#007aff"/></g></g></svg>