<svg xmlns="http://www.w3.org/2000/svg" xmlns:xlink="http://www.w3.org/1999/xlink" width="18" height="18.273" viewBox="0 0 18 18.273"><defs><clipPath id="a"><rect width="16" height="16" rx="4" transform="translate(-22081 6846)" fill="#ff2d55" stroke="#707070" stroke-width="1"/></clipPath></defs><g transform="translate(22081 -6846)"><g clip-path="url(#a)"><g transform="translate(-22081.945 6845.07)"><path d="M8.93,16.93A1.93,1.93,0,0,1,7.4,16.112l-.752-1a.8.8,0,0,0-.588-.342.833.833,0,0,0-.625.275l-.409-.38.409.38c-1.072,1.146-1.9,1.057-2.292.9s-1.079-.67-1.079-2.322V5.239c0-3.3.953-4.309,4.071-4.309h5.626c3.118,0,4.071,1,4.071,4.309v5.733c0,1.645-2.849.274-3.251.438a1.121,1.121,0,0,0-.625,1.018c-.016.615.571,2.035-.2,1.213-.179-.193-.536.448-.766.463s-.35.381-.506.59v1.418a1.978,1.978,0,0,1-1.548.819ZM6.013,13.641h.1a1.92,1.92,0,0,1,1.421.789l.752,1a.752.752,0,0,0,1.287,0l.752-1a1.934,1.934,0,0,1,1.429-.789c.558-.03-.2-1.261.2-.829.566.6.118-1.252.252-1.3.179-.074,2.485.676,2.485-.1V5.239c0-2.687-.469-3.193-2.954-3.193H6.11c-2.486,0-2.954.506-2.954,3.193v8.38c0,.781.193,1.213.372,1.28.127.052.5-.022,1.064-.625a2.014,2.014,0,0,1,1.421-.633Z" fill="#ff2d55"/><path d="M10.977,8H6.884a.558.558,0,0,1,0-1.116h4.093a.558.558,0,1,1,0,1.116Z" transform="translate(0.014 0.046)" fill="#ff2d55"/><path d="M10.977,8H6.884a.558.558,0,0,1,0-1.116h4.093a.558.558,0,1,1,0,1.116Z" transform="translate(0.014 3)" fill="#ff2d55"/><path d="M10.977,8H6.884a.558.558,0,0,1,0-1.116h4.093a.558.558,0,1,1,0,1.116Z" transform="translate(0.014 -2)" fill="#ff2d55"/><path d="M9.666,14.414a4.116,4.116,0,0,0,.154,1.609,1.5,1.5,0,0,0,.863.786" fill="none" stroke="#fff" stroke-width="1"/><path d="M14.463,10.993c-.34.287.458-.883.922-.862a2.022,2.022,0,0,1,1.01.578A5.348,5.348,0,0,0,14.463,10.993Z" fill="none" stroke="#fff" stroke-width="1"/></g></g><path d="M13.687,16.922a1.21,1.21,0,0,1-1.049-.6l-.052-.082a.443.443,0,0,0-.164-.186.436.436,0,0,0-.164.186l-.045.074a1.212,1.212,0,0,1-1.666.439l-.669-.387a1.269,1.269,0,0,1-.61-.8,1.31,1.31,0,0,1,.126-.989c.082-.141.082-.223.074-.238a.432.432,0,0,0-.238-.045,1.31,1.31,0,0,1-1.309-1.3V12.3a1.3,1.3,0,0,1,1.3-1.3.459.459,0,0,0,.245-.052.49.49,0,0,0-.082-.231,1.281,1.281,0,0,1-.126-.989,1.309,1.309,0,0,1,.61-.8l.677-.394a1.208,1.208,0,0,1,1.651.439l.045.082a.443.443,0,0,0,.164.186.436.436,0,0,0,.164-.186l.045-.074a1.214,1.214,0,0,1,1.666-.439l.692.379a1.269,1.269,0,0,1,.61.8,1.31,1.31,0,0,1-.126.989c-.082.141-.082.223-.074.238a.432.432,0,0,0,.238.045,1.31,1.31,0,0,1,1.309,1.3v.692a1.3,1.3,0,0,1-1.3,1.3.459.459,0,0,0-.245.052.49.49,0,0,0,.082.231,1.281,1.281,0,0,1,.126.989,1.309,1.309,0,0,1-.61.8l-.677.394a1.269,1.269,0,0,1-.617.171ZM12.43,14.936a1.329,1.329,0,0,1,1.131.744l.045.082a.093.093,0,0,0,.126.03l.684-.394a.181.181,0,0,0,.089-.119.2.2,0,0,0-.015-.141,1.234,1.234,0,0,1,1.131-1.956.2.2,0,0,0,.193-.186V12.3a.189.189,0,0,0-.186-.186,1.321,1.321,0,0,1-1.205-.61,1.335,1.335,0,0,1,.074-1.346.143.143,0,0,0,.015-.141.2.2,0,0,0-.089-.119l-.677-.394a.106.106,0,0,0-.141.037l-.037.067a1.329,1.329,0,0,1-1.131.744,1.329,1.329,0,0,1-1.131-.744l-.045-.074a.1.1,0,0,0-.126-.037l-.684.394a.181.181,0,0,0-.089.119.2.2,0,0,0,.015.141A1.234,1.234,0,0,1,9.246,12.11a.2.2,0,0,0-.193.186v.692a.189.189,0,0,0,.186.186,1.321,1.321,0,0,1,1.205.61,1.335,1.335,0,0,1-.074,1.346.2.2,0,0,0,.074.26l.677.394a.106.106,0,0,0,.141-.037l.037-.074a1.326,1.326,0,0,1,1.131-.736Z" transform="translate(-22079.93 6847.351)" fill="#ff2d55"/><path d="M12,13.573a1.334,1.334,0,1,1,1.311-1.334A1.324,1.324,0,0,1,12,13.573Zm0-1.813a.479.479,0,1,0,.471.479A.478.478,0,0,0,12,11.76Z" transform="translate(-22079.504 6847.761)" fill="#ff2d55"/></g></svg>