<svg xmlns="http://www.w3.org/2000/svg" xmlns:xlink="http://www.w3.org/1999/xlink" width="84" height="84" viewBox="0 0 84 84">
  <defs>
    <clipPath id="clip-path">
      <rect id="Rectangle_8913" data-name="Rectangle 8913" width="84" height="84" transform="translate(146 287)" fill="#707070" stroke="#707070" stroke-width="1"/>
    </clipPath>
  </defs>
  <g id="Mask_Group_765" data-name="Mask Group 765" transform="translate(-146 -287)" opacity="0.5" clip-path="url(#clip-path)">
    <g id="gallery-import" transform="translate(138 283)">
      <path id="Path_53315" data-name="Path 53315" d="M88,55.6v9.16C88,79.32,79.32,88,64.76,88H31.24c-10.2,0-17.56-4.28-21-11.88l.44-.32L30.36,62.6a8.884,8.884,0,0,1,10.56.56l1.36,1.12a8.918,8.918,0,0,0,11.28,0L70.2,50a8.918,8.918,0,0,1,11.28,0Z" fill="#707070"/>
      <path id="Path_53316" data-name="Path 53316" d="M83.88,32H72.12C67.04,32,64,28.96,64,23.88V12.12A9.343,9.343,0,0,1,64.88,8H31.24C16.68,8,8,16.68,8,31.24V64.76a26.892,26.892,0,0,0,2.24,11.36l.44-.32L30.36,62.6a8.884,8.884,0,0,1,10.56.56l1.36,1.12a8.918,8.918,0,0,0,11.28,0L70.2,50a8.918,8.918,0,0,1,11.28,0L88,55.6V31.12a9.342,9.342,0,0,1-4.12.88Z" fill="#707070" opacity="0.4"/>
      <path id="Path_53317" data-name="Path 53317" d="M36,41.52A9.52,9.52,0,1,0,26.48,32,9.52,9.52,0,0,0,36,41.52Z" fill="#707070"/>
      <path id="Path_53318" data-name="Path 53318" d="M83.88,32H72.12C67.04,32,64,28.96,64,23.88V12.12C64,7.04,67.04,4,72.12,4H83.88C88.96,4,92,7.04,92,12.12V23.88C92,28.96,88.96,32,83.88,32Zm.88-13.24a2.511,2.511,0,0,0-3.52,0l-.72.72V10.52a2.52,2.52,0,1,0-5.04,0v8.96l-.72-.72a2.489,2.489,0,0,0-3.52,3.52l5,5a2.46,2.46,0,0,0,.76.48c.08.04.16.04.24.08a1.658,1.658,0,0,0,.64.12h.24a1.907,1.907,0,0,0,.8-.16H79a2.27,2.27,0,0,0,.72-.48c.04-.04.04-.04.08-.04l5-5a2.475,2.475,0,0,0-.04-3.52Z" fill="#707070"/>
    </g>
  </g>
</svg>
