<svg xmlns="http://www.w3.org/2000/svg" xmlns:xlink="http://www.w3.org/1999/xlink" width="16" height="16" viewBox="0 0 16 16"><defs><clipPath id="a"><rect width="16" height="16" transform="translate(324 6611)" fill="#fff" stroke="#707070" stroke-width="1"/></clipPath></defs><g transform="translate(-324 -6611)" clip-path="url(#a)"><path d="M23.03,9.724a.143.143,0,0,0,0-.247L17.575,6.309a2.29,2.29,0,0,0-2.3,0L9.825,9.478a.143.143,0,0,0,0,.247l6.531,3.842a.143.143,0,0,0,.145,0ZM9.213,10.7A.143.143,0,0,0,9,10.821v6.21a1.714,1.714,0,0,0,.851,1.478l5.791,3.472a.143.143,0,0,0,.214-.124v-7.2a.143.143,0,0,0-.071-.124ZM17,14.677v7.178a.143.143,0,0,0,.214.124L23,18.507a1.714,1.714,0,0,0,.852-1.476v-6.21a.143.143,0,0,0-.214-.123L17.07,14.554A.143.143,0,0,0,17,14.677Z" transform="translate(315.573 6605)" fill="#e6e6e6"/></g></svg>