<svg xmlns="http://www.w3.org/2000/svg" xmlns:xlink="http://www.w3.org/1999/xlink" width="17" height="18" viewBox="0 0 17 18"><defs><clipPath id="a"><rect width="17" height="18" transform="translate(331 140)" fill="#707070" stroke="#707070" stroke-width="1"/></clipPath></defs><g transform="translate(-331 -140)" clip-path="url(#a)"><g transform="translate(329.039 138.539)"><path d="M4.359,12.859a2.4,2.4,0,1,1,2.4-2.4A2.4,2.4,0,0,1,4.359,12.859Zm0-3.487a1.09,1.09,0,1,0,1.09,1.09A1.09,1.09,0,0,0,4.359,9.372Z" fill="#707070"/><path d="M16.564,12.859a2.4,2.4,0,1,1,2.4-2.4A2.4,2.4,0,0,1,16.564,12.859Zm0-3.487a1.09,1.09,0,1,0,1.09,1.09A1.09,1.09,0,0,0,16.564,9.372Z" fill="#707070"/><path d="M10.462,12.859a2.4,2.4,0,1,1,2.4-2.4A2.4,2.4,0,0,1,10.462,12.859Zm0-3.487a1.09,1.09,0,1,0,1.09,1.09A1.09,1.09,0,0,0,10.462,9.372Z" fill="#707070"/></g></g></svg>