<svg xmlns="http://www.w3.org/2000/svg" width="14.372" height="16" viewBox="0 0 14.372 16">
  <g id="Group_385" data-name="Group 385" transform="translate(18708.492 6832)">
    <g id="calendar" transform="translate(-18708.492 -6832)">
      <g id="Layer_2" data-name="Layer 2">
        <g id="Layer_1" data-name="Layer 1">
          <g id="calendar-2" data-name="calendar">
            <path id="Path_44429" data-name="Path 44429" d="M6.695,5.932H6.525a.424.424,0,1,1,0-.847h.169a.424.424,0,1,1,0,.847Z" transform="translate(4.128 3.333)" fill="#8a8a8e"/>
            <path id="Path_44430" data-name="Path 44430" d="M6.695,8.305H6.525a.424.424,0,0,1,0-.847h.169a.424.424,0,1,1,0,.847Z" transform="translate(4.128 4.889)" fill="#8a8a8e"/>
            <path id="Path_44431" data-name="Path 44431" d="M2.458,5.932H2.288a.424.424,0,1,1,0-.847h.169a.424.424,0,1,1,0,.847Z" transform="translate(1.261 3.333)" fill="#8a8a8e"/>
            <path id="Path_44432" data-name="Path 44432" d="M2.458,8.305H2.288a.424.424,0,0,1,0-.847h.169a.424.424,0,0,1,0,.847Z" transform="translate(1.261 4.889)" fill="#8a8a8e"/>
            <path id="Path_44433" data-name="Path 44433" d="M4.576,5.932H4.407a.424.424,0,0,1,0-.847h.169a.424.424,0,1,1,0,.847Z" transform="translate(2.694 3.333)" fill="#8a8a8e"/>
            <path id="Path_44434" data-name="Path 44434" d="M4.576,8.305H4.407a.424.424,0,0,1,0-.847h.169a.424.424,0,0,1,0,.847Z" transform="translate(2.694 4.889)" fill="#8a8a8e"/>
            <path id="Path_44435" data-name="Path 44435" d="M6.61,2.034a.424.424,0,0,1-.424-.424V.424a.424.424,0,1,1,.847,0V1.61A.424.424,0,0,1,6.61,2.034Z" transform="translate(4.098)" fill="#8a8a8e"/>
            <path id="Path_44436" data-name="Path 44436" d="M2.373,2.034a.424.424,0,0,1-.424-.424V.424a.424.424,0,0,1,.847,0V1.61a.424.424,0,0,1-.424.424Z" transform="translate(1.291)" fill="#8a8a8e"/>
            <path id="Path_44437" data-name="Path 44437" d="M11.525,16H2.847A2.925,2.925,0,0,1,0,13.009V4.178A2.925,2.925,0,0,1,2.847,1.186h8.677a2.925,2.925,0,0,1,2.847,2.991v8.831A2.925,2.925,0,0,1,11.525,16ZM2.847,2.611A1.533,1.533,0,0,0,1.356,4.178v8.831a1.533,1.533,0,0,0,1.491,1.567h8.677a1.533,1.533,0,0,0,1.491-1.567V4.178a1.533,1.533,0,0,0-1.491-1.567Z" transform="translate(0 0)" fill="#8a8a8e"/>
            <path id="Path_44438" data-name="Path 44438" d="M13.694,4.237H.678C.3,4.237,0,4.048,0,3.814S.3,3.39.678,3.39H13.694c.374,0,.678.19.678.424S14.068,4.237,13.694,4.237Z" transform="translate(0 2.222)" fill="#8a8a8e"/>
          </g>
        </g>
      </g>
    </g>
  </g>
</svg>
