<svg xmlns="http://www.w3.org/2000/svg" xmlns:xlink="http://www.w3.org/1999/xlink" width="16" height="16" viewBox="0 0 16 16">
  <defs>
    <clipPath id="clip-path">
      <rect id="scale-white-color-0" width="16" height="16" fill="#8a8a8e" stroke="rgba(0,0,0,0)" stroke-width="1"/>
    </clipPath>
  </defs>
  <g id="Mask_Group_28" data-name="Mask Group 28" clip-path="url(#clip-path)">
    <g id="shopping_basket" data-name="shopping basket" transform="translate(0 1.212)">
      <g id="Layer_2" data-name="Layer 2" transform="translate(0 0)">
        <g id="Layer_1" data-name="Layer 1">
          <g id="shopping_basket-2" data-name="shopping basket">
            <path id="Path_110" data-name="Path 110" d="M11.387,18.2H4.617a2.982,2.982,0,0,1-2.863-2.172L.072,10.05A1.837,1.837,0,0,1,1.844,7.711H14.16a1.843,1.843,0,0,1,1.775,2.339l-1.681,5.979A2.988,2.988,0,0,1,11.387,18.2ZM1.844,9.129a.42.42,0,0,0-.337.167.411.411,0,0,0-.071.371L3.12,15.644a1.562,1.562,0,0,0,1.5,1.134h6.767a1.565,1.565,0,0,0,1.5-1.134l1.681-5.976a.425.425,0,0,0-.411-.539Z" transform="translate(-0.002 -4.626)" fill="#8a8a8e"/>
            <path id="Path_111" data-name="Path 111" d="M7.694,4.5a.712.712,0,0,1-.5-1.211L10.277.206a.71.71,0,0,1,1,1L8.2,4.291a.709.709,0,0,1-.5.21Z" transform="translate(-4.194 0.002)" fill="#8a8a8e"/>
            <path id="Path_112" data-name="Path 112" d="M25.569,4.5a.709.709,0,0,1-.5-.21L21.986,1.209a.71.71,0,0,1,1-1L26.071,3.29a.712.712,0,0,1-.5,1.211Z" transform="translate(-13.068 0.002)" fill="#8a8a8e"/>
            <circle id="Ellipse_7" data-name="Ellipse 7" cx="1.134" cy="1.134" r="1.134" transform="translate(6.865 7.193)" fill="#8a8a8e"/>
          </g>
        </g>
      </g>
    </g>
  </g>
</svg>
