<svg xmlns="http://www.w3.org/2000/svg" xmlns:xlink="http://www.w3.org/1999/xlink" width="16" height="16" viewBox="0 0 16 16">
  <defs>
    <clipPath id="clip-path">
      <rect id="Rectangle_4450" data-name="Rectangle 4450" width="16" height="16" transform="translate(-18709 -6815)" fill="#ee0033" stroke="#707070" stroke-width="1"/>
    </clipPath>
  </defs>
  <g id="Mask_Group_407" data-name="Mask Group 407" transform="translate(18709 6815)" clip-path="url(#clip-path)">
    <g id="alarm" transform="translate(-18708.725 -6815)">
      <g id="Layer_2" data-name="Layer 2" transform="translate(0)">
        <g id="Layer_1" data-name="Layer 1">
          <g id="alarm-2" data-name="alarm">
            <path id="Path_44439" data-name="Path 44439" d="M7.452,15.253a7,7,0,1,1,7-7,7,7,0,0,1-7,7Zm0-12.646A5.647,5.647,0,1,0,13.1,8.253,5.647,5.647,0,0,0,7.452,2.606Z" transform="translate(0.271 0.747)" fill="#ee0033"/>
            <path id="Path_44440" data-name="Path 44440" d="M6.9,9.7a.659.659,0,0,1-.325-.089L4.749,8.551a.678.678,0,0,1-.342-.586V4.453a.678.678,0,1,1,1.356,0V7.574l1.489.857A.678.678,0,0,1,6.9,9.7Z" transform="translate(2.646 2.264)" fill="#ee0033"/>
            <path id="Path_44441" data-name="Path 44441" d="M11.1,4.509a.673.673,0,0,1-.561-.3A7.138,7.138,0,0,0,6.611,1.347a.678.678,0,1,1,.372-1.3,8.492,8.492,0,0,1,4.676,3.409A.678.678,0,0,1,11.1,4.509Z" transform="translate(3.672 0.008)" fill="#ee0033"/>
            <path id="Path_44442" data-name="Path 44442" d="M.679,4.493a.678.678,0,0,1-.561-1.06A8.649,8.649,0,0,1,4.785.029a.678.678,0,1,1,.388,1.3A7.277,7.277,0,0,0,1.24,4.2.678.678,0,0,1,.679,4.493Z" transform="translate(0.001 -0.001)" fill="#ee0033"/>
          </g>
        </g>
      </g>
    </g>
  </g>
</svg>
