<svg xmlns="http://www.w3.org/2000/svg" xmlns:xlink="http://www.w3.org/1999/xlink" width="10" height="10" viewBox="0 0 10 10">
  <defs>
    <clipPath id="clip-path">
      <rect id="Rectangle_4640" data-name="Rectangle 4640" width="10" height="10" transform="translate(-13502 -16492)" fill="#fff" stroke="#707070" stroke-width="1"/>
    </clipPath>
  </defs>
  <g id="Mask_Group_468" data-name="Mask Group 468" transform="translate(13502 16492)" clip-path="url(#clip-path)">
    <path id="checkmark-circle" d="M6.154,1.154a5,5,0,1,0,5,5A5.006,5.006,0,0,0,6.154,1.154Zm2.6,3.324L5.525,8.324a.385.385,0,0,1-.288.137H5.23a.385.385,0,0,1-.286-.127L3.56,6.8a.385.385,0,1,1,.572-.514L5.22,7.491,8.167,3.983a.385.385,0,1,1,.589.495Z" transform="translate(-13503.154 -16493.154)" fill="#00a357"/>
  </g>
</svg>
