<svg xmlns="http://www.w3.org/2000/svg" xmlns:xlink="http://www.w3.org/1999/xlink" width="16" height="14" viewBox="0 0 16 14">
  <defs>
    <clipPath id="clip-path">
      <rect id="Rectangle_3994" data-name="Rectangle 3994" width="16" height="14" transform="translate(70.55 659.554)" fill="#00adab" stroke="#00adab" stroke-width="1"/>
    </clipPath>
  </defs>
  <g id="Mask_Group_38" data-name="Mask Group 38" transform="translate(-70.55 -659.554)" clip-path="url(#clip-path)">
    <g id="File" transform="translate(73.073 660)">
      <path id="Path_43245" data-name="Path 43245" d="M14.293,2.089H10.638a.978.978,0,0,0,.026-.226,1.221,1.221,0,0,0-1.3-1.13,1.221,1.221,0,0,0-1.3,1.13.978.978,0,0,0,.026.226H4.444a.733.733,0,0,0-.778.678V13.836a.489.489,0,0,0,.518.452H14.552a.489.489,0,0,0,.518-.452V2.766A.733.733,0,0,0,14.293,2.089Zm-.778,9.036H11.7a.244.244,0,0,0-.259.226v1.581H5.222V3.444H6.777V3.67a.244.244,0,0,0,.259.226H11.7a.244.244,0,0,0,.259-.226V3.444h1.555Zm-.366.452L11.96,12.613V11.577ZM8.472,2.541A.268.268,0,0,0,8.7,2.428a.2.2,0,0,0,0-.226.619.619,0,0,1,.172-.859.867.867,0,0,1,1,0,.619.619,0,0,1,.172.859.2.2,0,0,0,0,.226.268.268,0,0,0,.224.113h1.177v.9H7.3v-.9Zm6.08,11.3H4.185V2.766a.244.244,0,0,1,.259-.226H6.777v.452H4.963a.244.244,0,0,0-.259.226v9.94a.244.244,0,0,0,.259.226H11.7a.289.289,0,0,0,.1-.018.265.265,0,0,0,.084-.049l2.073-1.807a.214.214,0,0,0,.076-.159V3.218a.244.244,0,0,0-.259-.226H11.96V2.541h2.333a.244.244,0,0,1,.259.226Z" transform="translate(-3.667 -0.733)" fill="#00adab"/>
      <path id="Path_43246" data-name="Path 43246" d="M9.211,11.4h3.11a.733.733,0,0,0,.778-.678V8.011a.733.733,0,0,0-.778-.678H9.211a.733.733,0,0,0-.778.678v2.711A.733.733,0,0,0,9.211,11.4Zm1.814-3.614V9l-.143-.063a.294.294,0,0,0-.232,0L10.507,9V7.785Zm-2.073.226a.244.244,0,0,1,.259-.226h.778V9.366a.221.221,0,0,0,.123.192.293.293,0,0,0,.252.01l.4-.176.4.176a.293.293,0,0,0,.252-.01.221.221,0,0,0,.123-.192V7.785h.778a.244.244,0,0,1,.259.226v2.711a.244.244,0,0,1-.259.226H9.211a.244.244,0,0,1-.259-.226Z" transform="translate(-5.064 -3.267)" fill="#00adab"/>
      <path id="Path_43247" data-name="Path 43247" d="M7.593,15.852h.259a.228.228,0,1,0,0-.452H7.593a.228.228,0,1,0,0,.452Z" transform="translate(-4.742 -6.364)" fill="#00adab"/>
      <path id="Path_43248" data-name="Path 43248" d="M9.426,15.4a.228.228,0,1,0,0,.452h4.406a.228.228,0,1,0,0-.452Z" transform="translate(-5.279 -6.364)" fill="#00adab"/>
      <path id="Path_43249" data-name="Path 43249" d="M7.593,17.318h1.3a.228.228,0,1,0,0-.452h-1.3a.228.228,0,1,0,0,.452Z" transform="translate(-4.742 -6.927)" fill="#00adab"/>
      <path id="Path_43250" data-name="Path 43250" d="M12.966,16.867H10.893a.228.228,0,1,0,0,.452h2.073a.228.228,0,1,0,0-.452Z" transform="translate(-5.709 -6.927)" fill="#00adab"/>
      <path id="Path_43251" data-name="Path 43251" d="M11.221,18.333H7.593a.228.228,0,1,0,0,.452h3.628a.228.228,0,1,0,0-.452Z" transform="translate(-4.742 -7.49)" fill="#00adab"/>
    </g>
  </g>
</svg>
