<svg xmlns="http://www.w3.org/2000/svg" width="16" height="16" viewBox="0 0 16 16">
  <g id="Group_502" data-name="Group 502" transform="translate(-25 -698)">
    <g id="Path_44561" data-name="Path 44561" transform="translate(25 698)" fill="#fff">
      <path d="M 8 15.5 C 3.864490032196045 15.5 0.5 12.13551044464111 0.5 8 C 0.5 3.864490032196045 3.864490032196045 0.5 8 0.5 C 12.13551044464111 0.5 15.5 3.864490032196045 15.5 8 C 15.5 12.13551044464111 12.13551044464111 15.5 8 15.5 Z" stroke="none"/>
      <path d="M 8 1 C 4.140190124511719 1 1 4.140190124511719 1 8 C 1 11.85980987548828 4.140190124511719 15 8 15 C 11.85980987548828 15 15 11.85980987548828 15 8 C 15 4.140190124511719 11.85980987548828 1 8 1 M 8 0 C 12.41827964782715 0 16 3.581720352172852 16 8 C 16 12.41827964782715 12.41827964782715 16 8 16 C 3.581720352172852 16 0 12.41827964782715 0 8 C 0 3.581720352172852 3.581720352172852 0 8 0 Z" stroke="none" fill="#000"/>
    </g>
    <g id="Path_44560" data-name="Path 44560" transform="translate(28 701)" fill="#000">
      <path d="M 5 9.5 C 2.51869010925293 9.5 0.5 7.48130989074707 0.5 5 C 0.5 2.51869010925293 2.51869010925293 0.5 5 0.5 C 7.48130989074707 0.5 9.5 2.51869010925293 9.5 5 C 9.5 7.48130989074707 7.48130989074707 9.5 5 9.5 Z" stroke="none"/>
      <path d="M 5 1 C 2.794390201568604 1 1 2.794390201568604 1 5 C 1 7.205610275268555 2.794390201568604 9 5 9 C 7.205610275268555 9 9 7.205610275268555 9 5 C 9 2.794390201568604 7.205610275268555 1 5 1 M 5 0 C 7.761420249938965 0 10 2.238580226898193 10 5 C 10 7.761420249938965 7.761420249938965 10 5 10 C 2.238580226898193 10 0 7.761420249938965 0 5 C 0 2.238580226898193 2.238580226898193 0 5 0 Z" stroke="none" fill="#000"/>
    </g>
  </g>
</svg>
