<svg xmlns="http://www.w3.org/2000/svg" xmlns:xlink="http://www.w3.org/1999/xlink" width="17" height="14.783" viewBox="0 0 17 14.783">
  <defs>
    <clipPath id="clip-path">
      <rect id="Rectangle_4718" data-name="Rectangle 4718" width="17" height="14.783" transform="translate(-1.788 0.212)" fill="#00a357" stroke="#00a357" stroke-width="1.5"/>
    </clipPath>
  </defs>
  <g id="Mask_Group_510" data-name="Mask Group 510" transform="translate(1.788 -0.212)" clip-path="url(#clip-path)">
    <g id="like" transform="translate(-0.889 0.32)">
      <g id="Layer_2" data-name="Layer 2" transform="translate(0)">
        <g id="Layer_1" data-name="Layer 1">
          <g id="like-2" data-name="like">
            <path id="Path_46433" data-name="Path 46433" d="M11.733,14.291H6.827a3.539,3.539,0,0,1-2.047-.648l-1.27-.9H1.648A1.65,1.65,0,0,1,0,11.1V8.038A1.65,1.65,0,0,1,1.648,6.377h1.76L5.19,4.086a.466.466,0,0,0,.1-.287V1.139A1.141,1.141,0,0,1,6.43,0,2.985,2.985,0,0,1,9.41,2.982v2h4.115A2.143,2.143,0,0,1,15.54,7.85l-1.784,5.01A2.143,2.143,0,0,1,11.733,14.291ZM1.648,7.582a.442.442,0,0,0-.442.455V11.1a.442.442,0,0,0,.442.442H3.7a.616.616,0,0,1,.346.11l1.425,1.007a2.334,2.334,0,0,0,1.353.429h4.906a.946.946,0,0,0,.887-.624l1.792-5.016a.943.943,0,0,0-.887-1.259H8.807a.6.6,0,0,1-.6-.6v-2.6A1.782,1.782,0,0,0,6.495,1.206V3.8a1.691,1.691,0,0,1-.354,1.023L4.177,7.344a.6.6,0,0,1-.474.233Z" transform="translate(0 0)" stroke="#000" stroke-width="0.342"/>
            <path id="Path_46434" data-name="Path 46434" d="M4.56,14.509a.6.6,0,0,1-.6-.6V8.743a.6.6,0,1,1,1.206,0v5.163A.6.6,0,0,1,4.56,14.509Z" transform="translate(-0.857 -1.764)" stroke="#000" stroke-width="0.342"/>
          </g>
        </g>
      </g>
    </g>
  </g>
</svg>
