<svg xmlns="http://www.w3.org/2000/svg" xmlns:xlink="http://www.w3.org/1999/xlink" width="20" height="20" viewBox="0 0 20 20"><defs><clipPath id="a"><rect width="20" height="20" fill="#fff" stroke="#707070" stroke-width="1"/></clipPath></defs><g clip-path="url(#a)"><g transform="translate(0 2)"><path d="M3.333,2H.667A.667.667,0,0,0,0,2.667V5.333a.667.667,0,0,0,1.333,0v-2h2A.667.667,0,0,0,3.333,2Z" transform="translate(0 -2)" fill="#fff"/><g transform="translate(16 12)"><path d="M19.333,14a.667.667,0,0,0-.667.667v2h-2a.667.667,0,1,0,0,1.333h2.667A.667.667,0,0,0,20,17.333V14.667A.667.667,0,0,0,19.333,14Z" transform="translate(-16 -14)" fill="#fff"/></g><g transform="translate(16)"><path d="M19.333,2H16.667a.667.667,0,1,0,0,1.333h2v2a.667.667,0,1,0,1.333,0V2.667A.667.667,0,0,0,19.333,2Z" transform="translate(-16 -2)" fill="#fff"/></g><g transform="translate(0 12)"><path d="M3.333,16.667h-2v-2a.667.667,0,1,0-1.333,0v2.667A.667.667,0,0,0,.667,18H3.333a.667.667,0,1,0,0-1.333Z" transform="translate(0 -14)" fill="#fff"/></g><g transform="translate(2.667 2.667)"><path d="M3.333,4.667a.667.667,0,0,0-.667.667v9.333a.667.667,0,1,0,1.333,0V5.333A.667.667,0,0,0,3.333,4.667Z" transform="translate(-2.667 -4.667)" fill="#fff"/></g><g transform="translate(5.333 2.667)"><path d="M6,4.667a.667.667,0,0,0-.667.667V12a.667.667,0,1,0,1.333,0V5.333A.667.667,0,0,0,6,4.667Z" transform="translate(-5.333 -4.667)" fill="#fff"/></g><g transform="translate(8 2.667)"><path d="M8.667,4.667A.667.667,0,0,0,8,5.333V12a.667.667,0,1,0,1.333,0V5.333A.667.667,0,0,0,8.667,4.667Z" transform="translate(-8 -4.667)" fill="#fff"/></g><g transform="translate(10.667 2.667)"><path d="M11.333,4.667a.667.667,0,0,0-.667.667v9.333a.667.667,0,1,0,1.333,0V5.333A.667.667,0,0,0,11.333,4.667Z" transform="translate(-10.667 -4.667)" fill="#fff"/></g><g transform="translate(13.333 2.667)"><path d="M14,4.667a.667.667,0,0,0-.667.667V12a.667.667,0,1,0,1.333,0V5.333A.667.667,0,0,0,14,4.667Z" transform="translate(-13.333 -4.667)" fill="#fff"/></g><g transform="translate(16 2.667)"><path d="M16.667,4.667A.667.667,0,0,0,16,5.333v9.333a.667.667,0,1,0,1.333,0V5.333A.667.667,0,0,0,16.667,4.667Z" transform="translate(-16 -4.667)" fill="#fff"/></g><g transform="translate(5.353 12)"><path d="M6.027,14H6.013a.661.661,0,0,0-.66.667A.67.67,0,1,0,6.027,14Z" transform="translate(-5.353 -14)" fill="#fff"/></g><g transform="translate(8.02 12)"><path d="M8.693,14H8.68a.661.661,0,0,0-.66.667A.67.67,0,1,0,8.693,14Z" transform="translate(-8.02 -14)" fill="#fff"/></g><g transform="translate(13.353 12)"><path d="M14.027,14h-.013a.661.661,0,0,0-.66.667A.67.67,0,1,0,14.027,14Z" transform="translate(-13.353 -14)" fill="#fff"/></g></g></g></svg>