<svg width="16" height="16" viewBox="0 0 16 16" fill="none" xmlns="http://www.w3.org/2000/svg">
<g clip-path="url(#clip0)">
<path d="M11.143 3.99999C11.1258 4.85602 10.7971 5.67643 10.2186 6.30761C9.64006 6.93879 8.8513 7.33746 8 7.42899C7.14899 7.3374 6.36059 6.93861 5.78255 6.30737C5.20451 5.67613 4.8765 4.85575 4.86 3.99999C4.81007 3.56217 4.85465 3.11874 4.99076 2.69963C5.12686 2.28053 5.35132 1.8955 5.64896 1.57056C5.9466 1.24562 6.3105 0.988332 6.71608 0.816065C7.12167 0.643798 7.5595 0.560566 8 0.571988C8.43983 0.563408 8.87645 0.648537 9.28084 0.821716C9.68523 0.994895 10.0481 1.25216 10.3454 1.57641C10.6427 1.90066 10.8676 2.28447 11.0051 2.70234C11.1426 3.12021 11.1896 3.56255 11.143 3.99999V3.99999Z" stroke="#AAAAAA" stroke-width="1.429" stroke-linecap="round" stroke-linejoin="round"/>
<path d="M8 9.71399C4.893 9.71399 1.739 11.428 1.156 14.664C1.13101 14.7518 1.12638 14.8441 1.14247 14.934C1.15856 15.0239 1.19494 15.1089 1.24885 15.1826C1.30276 15.2562 1.37277 15.3166 1.45355 15.3592C1.53433 15.4017 1.62375 15.4252 1.715 15.428H14.286C14.3773 15.4252 14.4667 15.4017 14.5475 15.3592C14.6282 15.3166 14.6982 15.2562 14.7522 15.1826C14.8061 15.1089 14.8424 15.0239 14.8585 14.934C14.8746 14.8441 14.87 14.7518 14.845 14.664C14.261 11.429 11.107 9.71399 8 9.71399Z" stroke="#AAAAAA" stroke-width="1.429" stroke-miterlimit="10"/>
</g>
<defs>
<clipPath id="clip0">
<rect width="16" height="16" fill="white"/>
</clipPath>
</defs>
</svg>
