<svg xmlns="http://www.w3.org/2000/svg" xmlns:xlink="http://www.w3.org/1999/xlink" width="84" height="84" viewBox="0 0 84 84">
  <defs>
    <clipPath id="clip-path">
      <rect id="Rectangle_5001" data-name="Rectangle 5001" width="84" height="84" rx="16" transform="translate(144 172)" fill="#fff" stroke="#707070" stroke-width="1"/>
    </clipPath>
    <clipPath id="clip-path-2">
      <rect id="Rectangle_5003" data-name="Rectangle 5003" width="84" height="84" fill="none"/>
    </clipPath>
  </defs>
  <g id="Mask_Group_642" data-name="Mask Group 642" transform="translate(-144 -172)" clip-path="url(#clip-path)">
    <g id="Logo_MVS_2" data-name="Logo MVS 2" transform="translate(144 172)">
      <rect id="Rectangle_5002" data-name="Rectangle 5002" width="83.927" height="83.897" fill="#fff"/>
      <g id="Group_2840" data-name="Group 2840" clip-path="url(#clip-path-2)">
        <path id="Path_46822" data-name="Path 46822" d="M47.873,1.639l-32,12.228A24.665,24.665,0,0,0,1.652,45.717c0,.006,0,.011.006.016l21.449,56.108.328-.125C20.648,87.8,30.264,68.5,51.915,60.22L67.931,54.1A24.659,24.659,0,0,0,82.159,22.259l-2.437-6.373A24.666,24.666,0,0,0,47.889,1.624l-.016.007" transform="translate(-0.002 0)" fill="#e03" opacity="0.04"/>
        <path id="Path_46823" data-name="Path 46823" d="M47.755,8.59l-27.98,10.7A21.562,21.562,0,0,0,7.336,47.138l0,.014L26.1,96.217l.285-.109c-2.434-12.166,5.969-29.05,24.906-36.288l14-5.354A21.565,21.565,0,0,0,77.735,26.624L75.6,21.051A21.567,21.567,0,0,0,47.767,8.58l-.013,0" transform="translate(-0.633 -0.767)" fill="none" stroke="#db3239" stroke-miterlimit="10" stroke-width="0.6"/>
        <path id="Path_46824" data-name="Path 46824" d="M24.192,39.866h-.648a.466.466,0,0,0-.466.466v4.793a.466.466,0,0,0,.466.467h.648a.466.466,0,0,0,.466-.467V40.334a.466.466,0,0,0-.466-.466" transform="translate(-2.473 -4.272)" fill="#db3239"/>
        <path id="Path_46825" data-name="Path 46825" d="M20.916,39.866a1.014,1.014,0,0,0-.916.594l-1.721,3.652c-.041.082-.121.227-.189.227s-.148-.142-.189-.227l-1.73-3.652a1.013,1.013,0,0,0-.916-.594h-1l2.728,5.283a1.109,1.109,0,0,0,1.107.507,1.056,1.056,0,0,0,1.094-.507l2.728-5.283Z" transform="translate(-1.528 -4.272)" fill="#db3239"/>
        <path id="Path_46826" data-name="Path 46826" d="M55.285,38.827a.466.466,0,0,0-.467-.466h-.647a.466.466,0,0,0-.466.466h0v4.735a1.555,1.555,0,0,0,.716,1.447,3.239,3.239,0,0,0,1.918.422h.52a.467.467,0,0,0,.466-.467h0v-.506h-.392a2.441,2.441,0,0,1-1.229-.246,1.3,1.3,0,0,1-.419-1.229Z" transform="translate(-5.755 -4.111)" fill="#db3239"/>
        <path id="Path_46827" data-name="Path 46827" d="M43.054,44.459a2.44,2.44,0,0,1-1.229-.246,1.3,1.3,0,0,1-.418-1.229V40.677h1.532a.466.466,0,0,0,.467-.466v-.506h-2v-.878a.466.466,0,0,0-.466-.466h-.648a.466.466,0,0,0-.466.466v.878h-3.3v-.878a.466.466,0,0,0-.466-.466h-.647a.466.466,0,0,0-.466.466v.878h-.987v.507a.466.466,0,0,0,.466.466h.517v2.885a1.554,1.554,0,0,0,.716,1.447,3.233,3.233,0,0,0,1.918.422h.52a.466.466,0,0,0,.466-.466h0v-.507h-.393a2.443,2.443,0,0,1-1.229-.246,1.3,1.3,0,0,1-.419-1.229V40.677h3.3v2.885a1.553,1.553,0,0,0,.716,1.447,3.23,3.23,0,0,0,1.917.422h.525a.466.466,0,0,0,.466-.466v-.507Z" transform="translate(-3.64 -4.111)" fill="#db3239"/>
        <path id="Path_46828" data-name="Path 46828" d="M32.514,45.123v-.507h-3.5c-.581,0-1.243-.065-1.445-.68a3.361,3.361,0,0,1-.094-.788h4.159a1.187,1.187,0,0,0,.77-.216,1.02,1.02,0,0,0,.338-.865,1.859,1.859,0,0,0-1.012-1.858,5.387,5.387,0,0,0-2.365-.367,4.962,4.962,0,0,0-2.674.54c-.784.54-.851,1.329-.851,2.4a3.1,3.1,0,0,0,.514,2.085,2.734,2.734,0,0,0,2.188.723h3.5a.466.466,0,0,0,.466-.466h0m-1.4-3.283c0,.152-.04.335-.351.335H28.512c-.574,0-1.034.261-1.034.583v-.583a1.169,1.169,0,0,1,.324-.984,2.2,2.2,0,0,1,1.5-.378,2.624,2.624,0,0,1,1.351.26.92.92,0,0,1,.46.766" transform="translate(-2.769 -4.269)" fill="#db3239"/>
        <path id="Path_46829" data-name="Path 46829" d="M51.649,45.123v-.507h-3.5c-.58,0-1.243-.065-1.445-.68a3.361,3.361,0,0,1-.094-.788h4.159a1.189,1.189,0,0,0,.77-.216,1.022,1.022,0,0,0,.338-.865,1.858,1.858,0,0,0-1.013-1.858A5.378,5.378,0,0,0,48.5,39.84a4.961,4.961,0,0,0-2.674.54c-.784.54-.851,1.331-.851,2.4a3.1,3.1,0,0,0,.514,2.085,2.733,2.733,0,0,0,2.188.723h3.5a.466.466,0,0,0,.466-.466m-1.4-3.278c0,.152-.04.335-.351.335h-2.25c-.574,0-1.034.261-1.034.583v-.586a1.169,1.169,0,0,1,.324-.984,2.2,2.2,0,0,1,1.5-.378,2.632,2.632,0,0,1,1.351.259.919.919,0,0,1,.459.767" transform="translate(-4.82 -4.269)" fill="#db3239"/>
        <path id="Path_46830" data-name="Path 46830" d="M24.192,38.072h-.648a.466.466,0,0,0-.466.466h0v1.136h.007a.756.756,0,0,1,.783-.541H24.2a.466.466,0,0,0,.466-.466v-.129a.466.466,0,0,0-.466-.466h0" transform="translate(-2.473 -4.08)" fill="#db3239"/>
        <path id="Path_46831" data-name="Path 46831" d="M59.819,45.44v-.582h2.992q.566,0,.566-.749a.807.807,0,0,0-.115-.44.894.894,0,0,0-.482-.3l-2.121-.7a1.325,1.325,0,0,1-.7-.466,1.47,1.47,0,0,1-.215-.855,1.327,1.327,0,0,1,.3-.926,1.181,1.181,0,0,1,.919-.328h2.9v.581h-2.77a.594.594,0,0,0-.46.164.8.8,0,0,0-.145.529,1.5,1.5,0,0,0,.023.29.515.515,0,0,0,.141.241.834.834,0,0,0,.341.2l2.02.673a2.047,2.047,0,0,1,.849.479,1.243,1.243,0,0,1,.26.869,1.617,1.617,0,0,1-.259.958.976.976,0,0,1-.847.366Z" transform="translate(-6.402 -4.296)" fill="#db3239"/>
        <path id="Path_46832" data-name="Path 46832" d="M67.393,45.439H66.91a1.3,1.3,0,0,1-1.006-.321,1.435,1.435,0,0,1-.287-.979V41.905h-.6v-.521h.6v-1.3h.643v1.3h1.131v.521H66.261V44.1a.849.849,0,0,0,.194.639.986.986,0,0,0,.67.179h.267Z" transform="translate(-6.967 -4.295)" fill="#db3239"/>
        <path id="Path_46833" data-name="Path 46833" d="M72.071,43.548a2.2,2.2,0,0,1-.485,1.615,2.92,2.92,0,0,1-3.192,0,2.2,2.2,0,0,1-.486-1.615,2.146,2.146,0,0,1,.486-1.595,2.988,2.988,0,0,1,3.192,0,2.143,2.143,0,0,1,.485,1.595m-3.488,0a1.82,1.82,0,0,0,.317,1.217,1.869,1.869,0,0,0,2.18,0A1.826,1.826,0,0,0,71.4,43.55a1.771,1.771,0,0,0-.313-1.2,1.927,1.927,0,0,0-2.189,0,1.756,1.756,0,0,0-.313,1.194Z" transform="translate(-7.277 -4.446)" fill="#db3239"/>
        <path id="Path_46834" data-name="Path 46834" d="M73.282,45.6V43a1.476,1.476,0,0,1,.367-1.1,1.569,1.569,0,0,1,1.124-.357h.444v.521H74.89a.9.9,0,0,0-.738.267,1.338,1.338,0,0,0-.222.834V45.6Z" transform="translate(-7.853 -4.451)" fill="#db3239"/>
        <path id="Path_46835" data-name="Path 46835" d="M79.143,45.59H77.026a1.241,1.241,0,0,1-1.155-.5,2.974,2.974,0,0,1-.307-1.51,2.483,2.483,0,0,1,.41-1.611,1.8,1.8,0,0,1,1.432-.475,2.256,2.256,0,0,1,1.362.357,1.42,1.42,0,0,1,.482,1.22.855.855,0,0,1-.139.54.563.563,0,0,1-.466.171H76.227a3.021,3.021,0,0,0,.034.487,1.629,1.629,0,0,0,.126.4.638.638,0,0,0,.288.3,1.036,1.036,0,0,0,.486.1h1.982Zm-2.915-2.333h2.165c.123,0,.184-.07.184-.207v-.03q0-1.009-1.163-1.01a1.248,1.248,0,0,0-.911.279,1.354,1.354,0,0,0-.275.969" transform="translate(-8.097 -4.446)" fill="#db3239"/>
        <path id="Path_46836" data-name="Path 46836" d="M65.282,32.534c-.252.669-.479,1.06-1.261,1.06-.846,0-1.047-.5-1.262-1.06L60.5,26.641c-.038-.1-.139-.29-.214-.29-.139,0-.139.227-.139.265l.038,6.877H58.521V25.72c0-1.147,1.174-1.161,1.426-1.161A1.454,1.454,0,0,1,61.5,25.694l2.283,5.893c.076.189.164.328.24.328s.164-.139.239-.328l2.284-5.893A1.451,1.451,0,0,1,68.1,24.558c.82,0,1.426.353,1.426,1.161v7.773H67.858l.051-6.877c0-.24-.1-.265-.152-.265-.089,0-.176.189-.215.29Z" transform="translate(-6.271 -2.632)" fill="#db3239"/>
        <path id="Path_46837" data-name="Path 46837" d="M74.812,35.921h-1.5l1.022-2.183-2.978-6.663h1.527l2.145,5.136L77.3,27.1h1.5Z" transform="translate(-7.646 -2.901)" fill="#db3239"/>
      </g>
    </g>
  </g>
</svg>
