<svg xmlns="http://www.w3.org/2000/svg" width="244.476" height="195.79" viewBox="0 0 244.476 195.79">
  <g id="Group_2850" data-name="Group 2850" transform="translate(-65.6 -63.182)">
    <g id="Mobile_login" data-name="Mobile login" transform="translate(99 65.491)">
      <g id="Device" transform="translate(-23.284 164.725)">
        <path id="Path_46880" data-name="Path 46880" d="M186.686,425.23H184.55a1.54,1.54,0,0,0-1.54,1.532v15.794a1.547,1.547,0,0,0,1.54,1.54h2.136a1.54,1.54,0,0,0,1.532-1.54V426.762a1.532,1.532,0,0,0-1.532-1.532" transform="translate(-115.184 -419.941)" fill="#e03"/>
        <path id="Path_46881" data-name="Path 46881" d="M169.7,425.23a3.337,3.337,0,0,0-3.013,1.96l-5.665,12.03c-.14.28-.4.737-.626.737s-.486-.464-.619-.737l-5.7-12.03a3.337,3.337,0,0,0-3.02-1.96H147.76l9.017,17.4c.891,1.709,2.711,1.68,3.647,1.68,1.289,0,2.807-.074,3.61-1.68l8.951-17.4Z" transform="translate(-105.902 -419.941)" fill="#e03"/>
        <path id="Path_46882" data-name="Path 46882" d="M310.491,420.752a1.532,1.532,0,0,0-1.532-1.532h-2.136a1.532,1.532,0,0,0-1.532,1.532h0v15.6a5.118,5.118,0,0,0,2.357,4.766c1.518.995,3.16,1.392,6.321,1.392h1.709a1.54,1.54,0,0,0,1.532-1.54h0v-1.665H315.92a7.966,7.966,0,0,1-4.044-.818c-1.518-1-1.385-2.777-1.385-4.059Z" transform="translate(-147.384 -418.358)" fill="#e03"/>
        <path id="Path_46883" data-name="Path 46883" d="M256.416,439.309a7.94,7.94,0,0,1-4.052-.825c-1.51-.995-1.378-2.777-1.378-4.052v-7.581h5.053a1.54,1.54,0,0,0,1.532-1.54v-1.665h-6.586v-2.9a1.532,1.532,0,0,0-1.532-1.532h-2.136a1.532,1.532,0,0,0-1.532,1.532v2.9H234.928v-2.9a1.532,1.532,0,0,0-1.54-1.532h-2.1a1.54,1.54,0,0,0-1.54,1.532v2.9H226.5v1.665a1.547,1.547,0,0,0,1.54,1.54h1.709v9.5a5.124,5.124,0,0,0,2.357,4.766c1.51.995,3.16,1.392,6.321,1.392h1.7a1.54,1.54,0,0,0,1.54-1.54h0v-1.665h-1.289a7.991,7.991,0,0,1-4.052-.818c-1.518-1-1.378-2.777-1.378-4.059v-7.581h10.859v9.5a5.11,5.11,0,0,0,2.357,4.766c1.518.995,3.16,1.392,6.313,1.392H256.2a1.54,1.54,0,0,0,1.532-1.54v-1.665Z" transform="translate(-126.636 -418.358)" fill="#e03"/>
        <path id="Path_46884" data-name="Path 46884" d="M215.994,442.52v-1.665H204.473c-1.915,0-4.1-.221-4.759-2.247a11.051,11.051,0,0,1-.309-2.6h13.7a3.912,3.912,0,0,0,2.534-.737,3.352,3.352,0,0,0,1.12-2.851c0-2.379-.582-4.737-3.337-6.122-2.21-1.105-5.031-1.208-7.794-1.208-2.21,0-6.225,0-8.84,1.775s-2.8,4.383-2.8,7.9c0,2.5.133,5.09,1.694,6.873,1.952,2.21,4.8,2.379,7.2,2.379h11.544a1.539,1.539,0,0,0,1.54-1.532h0m-4.626-10.822c0,.5-.133,1.105-1.157,1.105h-7.352c-1.878,0-3.4.862-3.4,1.923v-1.923c.044-1.245,0-2.276,1.061-3.234,1.429-1.282,3.566-1.252,4.943-1.252a8.639,8.639,0,0,1,4.42.862,3.035,3.035,0,0,1,1.518,2.519" transform="translate(-118.076 -419.904)" fill="#e03"/>
        <path id="Path_46885" data-name="Path 46885" d="M292.4,442.52v-1.665H280.883c-1.915,0-4.1-.221-4.759-2.247a11.048,11.048,0,0,1-.309-2.6h13.7a3.912,3.912,0,0,0,2.534-.737,3.367,3.367,0,0,0,1.112-2.851c0-2.379-.575-4.737-3.337-6.122-2.21-1.105-5.024-1.208-7.787-1.208-2.21,0-6.225,0-8.84,1.775s-2.8,4.383-2.8,7.9c0,2.49.133,5.09,1.687,6.873,1.96,2.21,4.81,2.379,7.212,2.379h11.544a1.539,1.539,0,0,0,1.54-1.532m-4.6-10.785c0,.5-.133,1.105-1.157,1.105h-7.411c-1.879,0-3.4.854-3.4,1.915V432.81c.037-1.252,0-2.284,1.061-3.241,1.429-1.282,3.566-1.245,4.943-1.245a8.633,8.633,0,0,1,4.42.855,3.02,3.02,0,0,1,1.51,2.527" transform="translate(-138.196 -419.904)" fill="#e03"/>
        <path id="Path_46886" data-name="Path 46886" d="M186.686,418.057H184.55a1.54,1.54,0,0,0-1.54,1.532h0v3.742h0a2.5,2.5,0,0,1,2.586-1.783h1.09a1.54,1.54,0,0,0,1.532-1.54v-.42a1.532,1.532,0,0,0-1.532-1.54h0" transform="translate(-115.184 -418.05)" fill="#e03"/>
        <path id="Path_46887" data-name="Path 46887" d="M329.634,443.73v-1.915h9.857q1.867,0,1.864-2.468a2.646,2.646,0,0,0-.376-1.473,2.872,2.872,0,0,0-1.591-.995l-6.984-2.321a4.419,4.419,0,0,1-2.32-1.54,4.854,4.854,0,0,1-.737-2.821,4.375,4.375,0,0,1,.987-3.05,3.838,3.838,0,0,1,3.028-1.083h9.577v1.908h-9.12a1.981,1.981,0,0,0-1.518.53,2.631,2.631,0,0,0-.479,1.746,5.25,5.25,0,0,0,.081.958,1.6,1.6,0,0,0,.464.788,2.607,2.607,0,0,0,1.12.67l6.63,2.21a6.809,6.809,0,0,1,2.792,1.577,4.074,4.074,0,0,1,.914,2.9,5.341,5.341,0,0,1-.869,3.175,3.19,3.19,0,0,1-2.785,1.208Z" transform="translate(-153.716 -420.156)" fill="#e03"/>
        <path id="Path_46888" data-name="Path 46888" d="M358.289,443.743H356.7a4.327,4.327,0,0,1-3.315-1.054,4.759,4.759,0,0,1-.943-3.234v-7.367h-1.96v-1.716h1.967V426.1h2.1v4.28h3.728V432.1h-3.728v7.234a2.792,2.792,0,0,0,.641,2.107,3.27,3.27,0,0,0,2.21.589h.877Z" transform="translate(-159.283 -420.17)" fill="#e03"/>
        <path id="Path_46889" data-name="Path 46889" d="M375.719,438.487q0,3.757-1.6,5.319t-5.253,1.569q-3.658,0-5.26-1.569c-1.068-1.046-1.6-2.814-1.6-5.319s.53-4.236,1.6-5.252,2.821-1.525,5.26-1.525,4.184.508,5.253,1.525,1.6,2.77,1.6,5.252m-11.492,0a6.037,6.037,0,0,0,1.046,4.015,6.154,6.154,0,0,0,7.183,0c.692-.766,1.046-2.107,1.046-4.015s-.339-3.2-1.031-3.941a4.769,4.769,0,0,0-3.6-1.12c-1.716,0-2.947.368-3.61,1.12a5.981,5.981,0,0,0-1.031,3.941Z" transform="translate(-162.319 -421.647)" fill="#e03"/>
        <path id="Path_46890" data-name="Path 46890" d="M383.46,445.268v-8.545a4.843,4.843,0,0,1,1.215-3.639,5.157,5.157,0,0,1,3.683-1.179h1.473v1.716h-1.083a3.005,3.005,0,0,0-2.446.884,4.273,4.273,0,0,0-.737,2.748v8.015Z" transform="translate(-167.968 -421.695)" fill="#e03"/>
        <path id="Path_46891" data-name="Path 46891" d="M404.364,445.216H397.38q-2.8,0-3.8-1.65a9.839,9.839,0,0,1-1.009-4.98c0-2.483.449-4.258,1.363-5.3s2.475-1.576,4.715-1.576a7.455,7.455,0,0,1,4.486,1.171c1.061.781,1.584,2.122,1.584,4.022a2.835,2.835,0,0,1-.449,1.775,1.856,1.856,0,0,1-1.54.567h-7.963a9.761,9.761,0,0,0,.11,1.606,5.488,5.488,0,0,0,.413,1.319,2.106,2.106,0,0,0,.95.995,3.342,3.342,0,0,0,1.6.339h6.534Zm-9.577-7.691h7.131c.405,0,.6-.228.6-.678v-.1q0-3.322-3.831-3.322a4.1,4.1,0,0,0-3,.914,4.485,4.485,0,0,0-.906,3.19" transform="translate(-170.367 -421.642)" fill="#e03"/>
        <path id="Path_46892" data-name="Path 46892" d="M105.228,441.177c-.532,1.414-1.009,2.241-2.662,2.241-1.788,0-2.217-1.065-2.67-2.241l-4.768-12.452c-.079-.215-.294-.612-.453-.612-.294,0-.294.485-.294.564L94.46,443.2H90.94V426.778c0-2.424,2.479-2.448,3.012-2.448a3.057,3.057,0,0,1,3.274,2.384l4.831,12.452c.159.4.342.691.509.691s.342-.294.5-.691l4.831-12.452c.795-2.106,1.947-2.384,3.274-2.384,1.732,0,3.012.747,3.012,2.448V443.2h-3.512l.1-14.526c0-.509-.215-.564-.318-.564s-.373.4-.453.612Z" transform="translate(-100.656 -419.048)" fill="#e03" stroke="#e03" stroke-width="0.8"/>
        <path id="Path_46893" data-name="Path 46893" d="M93.578,418.178h-3.72l2.536-5.417L85.01,396.25H88.8l5.314,12.726,5.631-12.67h3.72Z" transform="translate(-68.602 -389.822)" fill="#e03" stroke="#e03" stroke-width="0.8"/>
      </g>
      <g id="Speech_Bubble" data-name="Speech Bubble" transform="translate(0 -2.309)">
        <path id="Path_46894" data-name="Path 46894" d="M368.06,260.9H299.74V221.36h68.32Zm-67.9-.417h67.486V221.777H300.157Z" transform="translate(-189.942 -143.262)" fill="#e0e0e0"/>
        <rect id="Rectangle_5016" data-name="Rectangle 5016" width="45.084" height="1.322" transform="translate(118.941 99.178)" fill="#f0f0f0"/>
        <rect id="Rectangle_5017" data-name="Rectangle 5017" width="48.19" height="1.443" transform="translate(118.941 104.111)" fill="#f0f0f0"/>
        <rect id="Rectangle_5018" data-name="Rectangle 5018" width="48.19" height="1.443" transform="translate(118.941 109.097)" fill="#f0f0f0"/>
        <rect id="Rectangle_5019" data-name="Rectangle 5019" width="15.756" height="3.431" transform="translate(118.941 92.024)" fill="#f0f0f0"/>
        <rect id="Rectangle_5020" data-name="Rectangle 5020" width="67.903" height="6.296" transform="translate(110.011 78.302)" fill="#e0e0e0"/>
        <path id="Path_46895" data-name="Path 46895" d="M450.562,228.519a10.833,10.833,0,0,1,1.955-2.356,11.2,11.2,0,0,1,2.268-2.06,11.019,11.019,0,0,1-1.955,2.36A10.8,10.8,0,0,1,450.562,228.519Z" transform="translate(-277.876 -144.859)" fill="#fff"/>
        <path id="Path_46896" data-name="Path 46896" d="M454.785,228.518a21.5,21.5,0,0,1-4.224-4.415,10.752,10.752,0,0,1,2.268,2.06A11.059,11.059,0,0,1,454.785,228.518Z" transform="translate(-277.876 -144.858)" fill="#fff"/>
        <rect id="Rectangle_5021" data-name="Rectangle 5021" width="67.903" height="39.13" transform="translate(26.134)" fill="#e6e6e6"/>
        <rect id="Rectangle_5022" data-name="Rectangle 5022" width="45.084" height="1.322" transform="translate(35.069 20.876)" fill="#f0f0f0"/>
        <rect id="Rectangle_5023" data-name="Rectangle 5023" width="48.19" height="1.443" transform="translate(35.069 25.805)" fill="#f0f0f0"/>
        <rect id="Rectangle_5024" data-name="Rectangle 5024" width="48.19" height="1.443" transform="translate(35.069 30.791)" fill="#f0f0f0"/>
        <rect id="Rectangle_5025" data-name="Rectangle 5025" width="15.756" height="3.431" transform="translate(35.069 13.717)" fill="#f0f0f0"/>
        <rect id="Rectangle_5026" data-name="Rectangle 5026" width="67.903" height="6.296" transform="translate(26.134)" fill="#e0e0e0"/>
        <path id="Path_46897" data-name="Path 46897" d="M248.842,40.641a10.946,10.946,0,0,1,1.955-2.356,10.107,10.107,0,0,1,2.277-2.056,10.144,10.144,0,0,1-1.955,2.356A11.156,11.156,0,0,1,248.842,40.641Z" transform="translate(-160.262 -35.317)" fill="#fff"/>
        <path id="Path_46898" data-name="Path 46898" d="M253.085,40.644a10.684,10.684,0,0,1-2.268-2.056,11.1,11.1,0,0,1-1.955-2.356,10.8,10.8,0,0,1,2.268,2.056A11.378,11.378,0,0,1,253.085,40.644Z" transform="translate(-160.274 -35.32)" fill="#fff"/>
        <path id="Path_46899" data-name="Path 46899" d="M104.72,153.087H36.4V113.54h68.32Zm-67.9-.417H104.3V113.957H36.817Z" transform="translate(-36.4 -80.397)" fill="#e0e0e0"/>
        <rect id="Rectangle_5027" data-name="Rectangle 5027" width="45.084" height="1.322" transform="translate(9.144 54.228)" fill="#f0f0f0"/>
        <rect id="Rectangle_5028" data-name="Rectangle 5028" width="48.19" height="1.443" transform="translate(9.144 59.156)" fill="#f0f0f0"/>
        <rect id="Rectangle_5029" data-name="Rectangle 5029" width="48.19" height="1.443" transform="translate(9.144 64.143)" fill="#f0f0f0"/>
        <rect id="Rectangle_5030" data-name="Rectangle 5030" width="15.756" height="3.431" transform="translate(9.144 47.069)" fill="#f0f0f0"/>
        <rect id="Rectangle_5031" data-name="Rectangle 5031" width="67.903" height="6.296" transform="translate(0.208 33.351)" fill="#e0e0e0"/>
        <rect id="Rectangle_5032" data-name="Rectangle 5032" width="80.178" height="71.781" transform="translate(66.99 81.75)" fill="#e6e6e6"/>
        <rect id="Rectangle_5033" data-name="Rectangle 5033" width="62.808" height="65.256" transform="translate(8.214 59.139)" fill="#f0f0f0"/>
        <rect id="Rectangle_5034" data-name="Rectangle 5034" width="62.808" height="7.109" transform="translate(8.214 59.139)" fill="#e0e0e0"/>
        <path id="Path_46900" data-name="Path 46900" d="M64.845,182.316a1.322,1.322,0,1,1-1.322-1.376,1.351,1.351,0,0,1,1.322,1.376Z" transform="translate(-51.444 -119.695)" fill="#fff"/>
        <path id="Path_46901" data-name="Path 46901" d="M77.677,182.316a1.318,1.318,0,1,1-1.318-1.376A1.347,1.347,0,0,1,77.677,182.316Z" transform="translate(-58.931 -119.695)" fill="#fff"/>
        <path id="Path_46902" data-name="Path 46902" d="M90.507,182.316a1.318,1.318,0,1,1-1.318-1.376A1.347,1.347,0,0,1,90.507,182.316Z" transform="translate(-66.412 -119.695)" fill="#fff"/>
        <rect id="Rectangle_5035" data-name="Rectangle 5035" width="80.178" height="79.911" transform="translate(88.976 14.272)" fill="#f0f0f0"/>
        <rect id="Rectangle_5036" data-name="Rectangle 5036" width="80.178" height="9.36" transform="translate(88.976 14.272)" fill="#e0e0e0"/>
        <path id="Path_46903" data-name="Path 46903" d="M261.322,76.744a1.734,1.734,0,1,1-1.739-1.814A1.776,1.776,0,0,1,261.322,76.744Z" transform="translate(-165.52 -57.885)" fill="#fff"/>
        <path id="Path_46904" data-name="Path 46904" d="M277.62,75.578a1.739,1.739,0,1,1-2.5-.058A1.776,1.776,0,0,1,277.62,75.578Z" transform="translate(-175.286 -57.945)" fill="#fff"/>
        <path id="Path_46905" data-name="Path 46905" d="M295.14,76.744a1.739,1.739,0,1,1-1.734-1.814A1.776,1.776,0,0,1,295.14,76.744Z" transform="translate(-185.233 -57.885)" fill="#fff"/>
        <path id="Path_46906" data-name="Path 46906" d="M322.159,268.593c-6.438-4.5-7.9-12.85-7.647-20.359a8.136,8.136,0,0,1,.5-3.673,2.561,2.561,0,0,1,3.11-1.326c.93.438,1.338,1.522,1.86,2.418a7.293,7.293,0,0,0,2.939,2.806,2.785,2.785,0,0,0,2.573.233c1.08-.6,1.209-2.085,1.2-3.336q-.025-3.49-.046-6.971a11.724,11.724,0,0,1,.375-3.7,3.88,3.88,0,0,1,2.431-2.614,2.374,2.374,0,0,1,2.919,1.572,11.3,11.3,0,0,1,.038,1.551,1.344,1.344,0,0,0,.767,1.251c.492.158,1-.2,1.368-.571a16.487,16.487,0,0,0,2.977-4.49,23.116,23.116,0,0,1,2.777-4.636,6.757,6.757,0,0,1,4.566-2.564,4.042,4.042,0,0,1,4.14,2.756c.454,1.751-.575,3.54-1.689,4.962a27.9,27.9,0,0,1-5.8,5.525,2.277,2.277,0,0,0-.971,1.021c-.271.834.517,1.668,1.334,1.93a14.69,14.69,0,0,0,2.919.329,2.8,2.8,0,0,1,2.393,1.459c.509,1.276-.555,2.61-1.605,3.486a23.855,23.855,0,0,1-7.05,4.074,8.023,8.023,0,0,0-2.623,1.272,2.3,2.3,0,0,0-.738,2.643,2.345,2.345,0,0,0,2.552.98,16.622,16.622,0,0,0,2.735-1.042c1.714-.646,3.928-.53,5.024.951a3.957,3.957,0,0,1,.417,3.49,9.111,9.111,0,0,1-1.893,3.081,23.992,23.992,0,0,1-10.248,7.2c-3.974,1.376-7.655,1.751-11.608.3" transform="translate(-198.539 -144.903)" fill="#e8505b"/>
        <path id="Path_46907" data-name="Path 46907" d="M357.486,226.66l-.121.117-.371.329c-.325.292-.809.717-1.413,1.28a46.536,46.536,0,0,0-4.762,5.141c-.926,1.155-1.893,2.464-2.919,3.886s-2.085,2.956-3.131,4.586a56.587,56.587,0,0,0-3.077,5.329c-.48.955-.909,1.951-1.347,2.969l-1.322,3.09a114.532,114.532,0,0,0-4.436,12.012,55.567,55.567,0,0,0-2.085,10.228,41.1,41.1,0,0,0-.117,7.042c.067.834.129,1.472.188,1.905.025.208.046.375.058.5a.877.877,0,0,1,0,.171.746.746,0,0,1-.033-.167c-.021-.121-.05-.284-.083-.492-.071-.417-.15-1.076-.229-1.91a38.811,38.811,0,0,1,.046-7.063,54.579,54.579,0,0,1,2.035-10.273,111.1,111.1,0,0,1,4.436-12.025l1.322-3.094c.417-1.013.871-2.018,1.355-2.977a56.731,56.731,0,0,1,3.115-5.341c1.072-1.668,2.143-3.177,3.156-4.586s1.993-2.727,2.919-3.878a43.935,43.935,0,0,1,4.828-5.1c.613-.555,1.1-.971,1.443-1.251l.384-.313A.63.63,0,0,1,357.486,226.66Z" transform="translate(-208.837 -146.353)" fill="#263238"/>
        <path id="Path_46908" data-name="Path 46908" d="M352.212,256.823a2.27,2.27,0,0,1-.121-.53c-.067-.346-.146-.834-.233-1.468-.175-1.251-.359-2.964-.559-4.862s-.417-3.615-.6-4.853c-.1-.617-.175-1.113-.238-1.459a2.965,2.965,0,0,1-.071-.542,2.417,2.417,0,0,1,.158.521c.088.342.2.834.313,1.455.233,1.251.471,2.952.667,4.853s.359,3.569.492,4.866c.063.584.117,1.08.158,1.476A2.306,2.306,0,0,1,352.212,256.823Z" transform="translate(-219.474 -155.944)" fill="#263238"/>
        <path id="Path_46909" data-name="Path 46909" d="M370.787,268.781a3.432,3.432,0,0,1-.642.075c-.417.038-1,.088-1.739.171-1.468.158-3.49.45-5.7.867s-4.2.888-5.629,1.251c-.717.183-1.293.35-1.689.463a3.183,3.183,0,0,1-.625.15,3.667,3.667,0,0,1,.6-.238c.392-.138.963-.329,1.668-.534,1.418-.417,3.411-.913,5.629-1.338a56.919,56.919,0,0,1,5.737-.792c.738-.063,1.338-.088,1.751-.1A3.3,3.3,0,0,1,370.787,268.781Z" transform="translate(-222.022 -170.895)" fill="#263238"/>
        <path id="Path_46910" data-name="Path 46910" d="M326.712,290.092a.965.965,0,0,1-.113-.2c-.075-.159-.163-.35-.275-.58-.233-.5-.555-1.251-.942-2.164-.771-1.835-1.759-4.4-2.814-7.255s-2.014-5.42-2.748-7.276l-.876-2.189c-.1-.238-.171-.417-.238-.6a.805.805,0,0,1-.067-.217.967.967,0,0,1,.113.2c.071.158.163.35.271.58.238.5.559,1.251.946,2.164.771,1.835,1.759,4.4,2.814,7.255s2.014,5.42,2.748,7.276l.876,2.189c.1.238.171.417.234.6A.96.96,0,0,1,326.712,290.092Z" transform="translate(-200.962 -171.401)" fill="#263238"/>
        <path id="Path_46911" data-name="Path 46911" d="M359.307,302.25a.8.8,0,0,1-.208.088l-.621.208-2.281.738c-1.926.625-4.586,1.518-7.5,2.5s-5.587,1.86-7.526,2.443c-.972.3-1.755.521-2.3.671l-.634.163a1.082,1.082,0,0,1-.221.046.794.794,0,0,1,.208-.088l.621-.2,2.277-.738c1.926-.625,4.586-1.518,7.5-2.5s5.587-1.86,7.505-2.443c.967-.3,1.755-.521,2.3-.671l.63-.163A1.134,1.134,0,0,1,359.307,302.25Z" transform="translate(-212.256 -190.426)" fill="#263238"/>
        <path id="Path_46912" data-name="Path 46912" d="M334.077,47.459l-2.151.767-.917-2.806a9.421,9.421,0,0,0-12.05-6.175,10.023,10.023,0,0,0-5.9,12.6l.917,2.806-2.156.771a3.431,3.431,0,0,0-2.01,4.286l5.979,18.258a3.223,3.223,0,0,0,4.111,2.131l22.252-7.959a3.448,3.448,0,0,0,2.026-4.328L338.2,49.548a3.215,3.215,0,0,0-4.128-2.089Zm-16.965,2.919a5.5,5.5,0,0,1,3.235-6.9,5.149,5.149,0,0,1,6.6,3.381l.921,2.819L318.033,53.2Zm12.508,16.2,1.526,4.661a.371.371,0,0,1-.238.467l-2.135.763a.35.35,0,0,1-.438-.225l-1.522-4.641a4.169,4.169,0,0,1-3.752-2.919,4.382,4.382,0,0,1,2.568-5.508,4.111,4.111,0,0,1,5.262,2.693,4.465,4.465,0,0,1-1.267,4.72Z" transform="translate(-195.71 -36.773)" fill="#e8505b"/>
        <path id="Path_46913" data-name="Path 46913" d="M337.773,61.4c.021.058-3.982,1.555-8.939,3.336s-8.993,3.21-9.014,3.169,3.982-1.551,8.939-3.336S337.753,61.344,337.773,61.4Z" transform="translate(-201.65 -49.995)" fill="#263238"/>
        <path id="Path_46914" data-name="Path 46914" d="M351.22,63.24a.515.515,0,0,1,.05.113c.029.083.071.192.121.325.1.3.254.725.446,1.251.379,1.117.926,2.706,1.6,4.661s1.463,4.32,2.347,6.921c.417,1.305.913,2.664,1.368,4.094a6.085,6.085,0,0,1,.313,2.289,3.073,3.073,0,0,1-.338,1.155,3.186,3.186,0,0,1-.788.93,7.5,7.5,0,0,1-2.114,1.08l-2.151.771-4.065,1.455-6.88,2.464-4.649,1.634-1.251.417-.329.108a.363.363,0,0,1-.117.029l.108-.05.325-.129,1.251-.471,4.628-1.7,6.867-2.5,4.061-1.468,2.147-.776a7.176,7.176,0,0,0,2.051-1.047,2.918,2.918,0,0,0,.734-.863,2.823,2.823,0,0,0,.317-1.072,6,6,0,0,0-.3-2.206c-.45-1.418-.926-2.789-1.355-4.094-.863-2.606-1.643-4.957-2.3-6.934s-1.167-3.565-1.534-4.682c-.171-.546-.309-.971-.417-1.28l-.1-.334A.535.535,0,0,1,351.22,63.24Z" transform="translate(-210.372 -51.069)" fill="#263238"/>
        <path id="Path_46915" data-name="Path 46915" d="M333.647,48.327s-.221-.108-.634-.275a5.5,5.5,0,0,0-1.818-.367,6.221,6.221,0,0,0-2.685.509,6.037,6.037,0,0,0-2.552,2.131,5.67,5.67,0,0,0-.98,3.165,9.749,9.749,0,0,0,.417,2.731c.221.759.446,1.363.592,1.785a4.043,4.043,0,0,1,.217.659,4.106,4.106,0,0,1-.3-.63c-.171-.417-.417-1.009-.659-1.772a9.481,9.481,0,0,1-.479-2.773,5.778,5.778,0,0,1,1-3.286,6.087,6.087,0,0,1,2.652-2.193,6.2,6.2,0,0,1,2.773-.475,5.245,5.245,0,0,1,1.843.438,3.28,3.28,0,0,1,.454.25A.62.62,0,0,1,333.647,48.327Z" transform="translate(-204.536 -41.906)" fill="#263238"/>
        <path id="Path_46916" data-name="Path 46916" d="M342.993,87.85a2.282,2.282,0,0,1,.213-.1,3.906,3.906,0,0,1,.642-.229,4.661,4.661,0,0,1,1.084-.183,3.673,3.673,0,0,1,1.464.221,4.514,4.514,0,0,1,2.527,2.919,4.169,4.169,0,0,1,0,2.393,5.47,5.47,0,0,1-1.363,2.256l.029-.113c.55,1.522,1.155,3.173,1.784,4.895l.038.1-.108.038-.951.317-2.085.7-.1.033-.038-.1c-.571-1.726-1.2-3.336-1.668-4.916l.092.071a4.128,4.128,0,0,1-2.231-.88,5.058,5.058,0,0,1-1.4-1.668,3.857,3.857,0,0,1-.442-1.876,4.416,4.416,0,0,1,.35-1.609,4.361,4.361,0,0,1,1.4-1.835,2.651,2.651,0,0,1,.721-.417,4.06,4.06,0,0,0-.68.454,4.4,4.4,0,0,0-1.326,1.83,3.944,3.944,0,0,0,.129,3.365,4.8,4.8,0,0,0,1.363,1.6,3.94,3.94,0,0,0,2.131.834h.071v.063c.459,1.551,1.088,3.173,1.668,4.907l-.138-.067,2.085-.7.955-.321-.067.142-1.776-4.9-.021-.063.05-.05a5.22,5.22,0,0,0,1.318-2.156,4.031,4.031,0,0,0,0-2.289,4.419,4.419,0,0,0-2.41-2.839,3.581,3.581,0,0,0-1.413-.238,4.817,4.817,0,0,0-1.072.146C343.293,87.729,343,87.871,342.993,87.85Z" transform="translate(-213.695 -65.114)" fill="#263238"/>
        <path id="Path_46917" data-name="Path 46917" d="M244.745,205.68l-41.644-.192a9.073,9.073,0,0,1-9.031-9.114l.442-104.407a9.064,9.064,0,0,1,9.119-9.027l41.648.192a9.073,9.073,0,0,1,9.027,9.11l-.442,104.4A9.073,9.073,0,0,1,244.745,205.68Z" transform="translate(-128.33 -62.555)" fill="#455a64"/>
        <path id="Path_46918" data-name="Path 46918" d="M249.068,91.773H241a2.005,2.005,0,0,0-1.968,2.043v1.463a2.006,2.006,0,0,1-1.968,2.039l-15.74-.071a2.005,2.005,0,0,1-1.951-2.06V93.7a2.006,2.006,0,0,0-1.951-2.06h-2.839l-7.088-.033a6.354,6.354,0,0,0-6.383,6.325l-.417,101.909a6.35,6.35,0,0,0,6.325,6.379l41.561.192a6.354,6.354,0,0,0,6.383-6.325l.417-101.909a6.35,6.35,0,0,0-6.308-6.408Z" transform="translate(-132.19 -67.611)" fill="#fff"/>
        <path id="Path_46919" data-name="Path 46919" d="M259.283,320.659l-30.908-.133c-.317,0-.575-.35-.575-.776l.033-8.084c0-.417.263-.776.584-.776l30.908.142c.317,0,.575.35.575.78l-.033,8.085C259.863,320.317,259.6,320.663,259.283,320.659Z" transform="translate(-147.997 -195.463)" fill="#e8505b"/>
        <text id="ĐĂNG_NHẬP" data-name="ĐĂNG NHẬP" transform="translate(83 121.531)" fill="#e8e8e3" font-size="4"><tspan x="0" y="0" letter-spacing="-0.01em">Đ</tspan><tspan y="0">ĂNG NHẬP</tspan></text>
        <rect id="Rectangle_5037" data-name="Rectangle 5037" width="10.724" height="1.968" transform="translate(75.819 54.069) rotate(0.26)" fill="#e8505b"/>
        <rect id="Rectangle_5038" data-name="Rectangle 5038" width="10.724" height="1.968" transform="translate(75.819 54.069) rotate(0.26)" opacity="0.1"/>
        <path id="Path_46920" data-name="Path 46920" d="M260.219,182.568a1,1,0,0,0,.246-.058.667.667,0,0,0,.417-.563v-5.529a.809.809,0,0,0-.117-.546.609.609,0,0,0-.492-.254H253.6l-34.873-.129a.563.563,0,0,0-.463.229.834.834,0,0,0-.1.546v5a4.342,4.342,0,0,0,0,.584.576.576,0,0,0,.325.375.651.651,0,0,0,.259.046h2.122l9.26.05,15.681.1,10.565.083,2.877.033H245.8l-15.677-.05-9.26-.038h-2.122a.834.834,0,0,1-.342-.058.784.784,0,0,1-.45-.521,1.355,1.355,0,0,1-.025-.334v-5.312a3.15,3.15,0,0,1,0-.334.754.754,0,0,1,.138-.338.78.78,0,0,1,.638-.321l34.873.192,6.021.042h.655a.726.726,0,0,1,.584.3.909.909,0,0,1,.133.613v.58c0,.759,0,1.455-.021,2.085,0,1.251-.025,2.21-.033,2.877a.688.688,0,0,1-.417.58A.5.5,0,0,1,260.219,182.568Z" transform="translate(-142.236 -116.366)" fill="#e0e0e0"/>
        <rect id="Rectangle_5039" data-name="Rectangle 5039" width="19.613" height="1.839" transform="translate(79.044 61.211)" fill="#e8505b"/>
        <rect id="Rectangle_5040" data-name="Rectangle 5040" width="19.613" height="1.839" transform="translate(79.044 61.211)" fill="#fff" opacity="0.2"/>
        <rect id="Rectangle_5041" data-name="Rectangle 5041" width="10.724" height="1.968" transform="translate(75.746 72.022) rotate(0.26)" fill="#e8505b"/>
        <rect id="Rectangle_5042" data-name="Rectangle 5042" width="10.724" height="1.968" transform="translate(75.746 72.022) rotate(0.26)" opacity="0.1"/>
        <path id="Path_46921" data-name="Path 46921" d="M259.847,225.634a2.03,2.03,0,0,0,.246-.046.863.863,0,0,0,.53-.475,1.113,1.113,0,0,0,.071-.529v-4.974a.925.925,0,0,0-.121-.55.834.834,0,0,0-.454-.354,2.568,2.568,0,0,0-.63-.033h-6l-34.752-.129a.767.767,0,0,0-.759.671v5a2.92,2.92,0,0,0,.025.584.834.834,0,0,0,.3.417.88.88,0,0,0,.521.133h1.81l9.227.046,15.627.1,10.532.083,2.86.033h-13.4l-15.623-.05-9.227-.033h-1.81a1.068,1.068,0,0,1-.642-.171.971.971,0,0,1-.388-.546,2.629,2.629,0,0,1-.033-.642v-5a.984.984,0,0,1,.976-.863l34.752.192,6,.046a2.562,2.562,0,0,1,.663.046.946.946,0,0,1,.517.417,1.067,1.067,0,0,1,.133.609v.58c0,.755,0,1.447-.021,2.085s0,1.176,0,1.668v.663a1.163,1.163,0,0,1-.088.546.888.888,0,0,1-.559.475.784.784,0,0,1-.292.008Z" transform="translate(-142.14 -141.478)" fill="#e0e0e0"/>
        <rect id="Rectangle_5043" data-name="Rectangle 5043" width="10.724" height="1.968" transform="translate(75.669 90.755) rotate(0.26)" fill="#e8505b"/>
        <rect id="Rectangle_5044" data-name="Rectangle 5044" width="10.724" height="1.968" transform="translate(75.669 90.755) rotate(0.26)" opacity="0.1"/>
        <path id="Path_46922" data-name="Path 46922" d="M259.657,270.515a2.024,2.024,0,0,0,.246-.046.867.867,0,0,0,.529-.471,1.122,1.122,0,0,0,.071-.53V264.49a.926.926,0,0,0-.121-.55.834.834,0,0,0-.454-.35,2.558,2.558,0,0,0-.63-.038h-6l-34.752-.129a.767.767,0,0,0-.759.671v5a2.857,2.857,0,0,0,.025.58.784.784,0,0,0,.3.417.834.834,0,0,0,.521.133h1.81l9.227.05,15.623.1,10.536.083,2.86.033h-13.4l-15.623-.046-9.227-.038h-1.81a1.038,1.038,0,0,1-.642-.171.971.971,0,0,1-.388-.546,2.629,2.629,0,0,1-.033-.642v-5.024a.984.984,0,0,1,.98-.863l34.748.192,6,.046a2.563,2.563,0,0,1,.663.046.947.947,0,0,1,.517.417,1.068,1.068,0,0,1,.133.609v5a1.142,1.142,0,0,1-.088.546.888.888,0,0,1-.559.475A.658.658,0,0,1,259.657,270.515Z" transform="translate(-142.029 -167.634)" fill="#e0e0e0"/>
        <rect id="Rectangle_5045" data-name="Rectangle 5045" width="19.613" height="1.839" transform="translate(78.625 79.59) rotate(0.26)" fill="#e8505b"/>
        <rect id="Rectangle_5046" data-name="Rectangle 5046" width="19.613" height="1.839" transform="translate(78.625 79.59) rotate(0.26)" fill="#fff" opacity="0.2"/>
        <path id="Path_46923" data-name="Path 46923" d="M226.831,271.351a.859.859,0,1,1-.834-.921.9.9,0,0,1,.834.921Z" transform="translate(-146.432 -171.872)" fill="#e8505b"/>
        <path id="Path_46924" data-name="Path 46924" d="M233.2,271.381a.859.859,0,1,1-.834-.921A.888.888,0,0,1,233.2,271.381Z" transform="translate(-150.146 -171.89)" fill="#e8505b"/>
        <path id="Path_46925" data-name="Path 46925" d="M239.6,271.411a.859.859,0,1,1-.855-.921.884.884,0,0,1,.855.921Z" transform="translate(-153.877 -171.908)" fill="#e8505b"/>
        <path id="Path_46926" data-name="Path 46926" d="M245.941,271.441a.859.859,0,1,1-.834-.921A.884.884,0,0,1,245.941,271.441Z" transform="translate(-157.574 -171.925)" fill="#e8505b"/>
        <path id="Path_46927" data-name="Path 46927" d="M252.321,271.467a.859.859,0,1,1-.855-.917A.888.888,0,0,1,252.321,271.467Z" transform="translate(-161.294 -171.943)" fill="#e8505b"/>
        <path id="Path_46928" data-name="Path 46928" d="M258.691,271.5a.859.859,0,1,1-.834-.917A.888.888,0,0,1,258.691,271.5Z" transform="translate(-165.008 -171.96)" fill="#e8505b"/>
        <path id="Path_46929" data-name="Path 46929" d="M265.061,271.527a.859.859,0,1,1-.834-.917A.888.888,0,0,1,265.061,271.527Z" transform="translate(-168.722 -171.977)" fill="#e8505b"/>
        <path id="Path_46930" data-name="Path 46930" d="M271.441,271.557a.859.859,0,1,1-.834-.917A.892.892,0,0,1,271.441,271.557Z" transform="translate(-172.442 -171.995)" fill="#e8505b"/>
        <path id="Path_46931" data-name="Path 46931" d="M277.811,271.585a.859.859,0,1,1-.41-.793A.859.859,0,0,1,277.811,271.585Z" transform="translate(-176.156 -172.011)" fill="#e8505b"/>
        <g id="Group_2849" data-name="Group 2849" transform="translate(78.684 98.557)" opacity="0.2">
          <path id="Path_46932" data-name="Path 46932" d="M226.831,271.351a.859.859,0,1,1-.834-.921.9.9,0,0,1,.834.921Z" transform="translate(-225.115 -270.429)" fill="#fff"/>
          <path id="Path_46933" data-name="Path 46933" d="M233.2,271.381a.859.859,0,1,1-.834-.921A.888.888,0,0,1,233.2,271.381Z" transform="translate(-228.83 -270.447)" fill="#fff"/>
          <path id="Path_46934" data-name="Path 46934" d="M239.6,271.411a.859.859,0,1,1-.855-.921.884.884,0,0,1,.855.921Z" transform="translate(-232.561 -270.465)" fill="#fff"/>
          <path id="Path_46935" data-name="Path 46935" d="M245.941,271.441a.859.859,0,1,1-.834-.921A.884.884,0,0,1,245.941,271.441Z" transform="translate(-236.258 -270.482)" fill="#fff"/>
          <path id="Path_46936" data-name="Path 46936" d="M252.321,271.467a.859.859,0,1,1-.855-.917A.888.888,0,0,1,252.321,271.467Z" transform="translate(-239.977 -270.5)" fill="#fff"/>
          <path id="Path_46937" data-name="Path 46937" d="M258.691,271.5a.859.859,0,1,1-.834-.917A.888.888,0,0,1,258.691,271.5Z" transform="translate(-243.691 -270.517)" fill="#fff"/>
          <path id="Path_46938" data-name="Path 46938" d="M265.061,271.527a.859.859,0,1,1-.834-.917A.888.888,0,0,1,265.061,271.527Z" transform="translate(-247.405 -270.534)" fill="#fff"/>
          <path id="Path_46939" data-name="Path 46939" d="M271.441,271.557a.859.859,0,1,1-.834-.917A.892.892,0,0,1,271.441,271.557Z" transform="translate(-251.125 -270.552)" fill="#fff"/>
          <path id="Path_46940" data-name="Path 46940" d="M277.811,271.585a.859.859,0,1,1-.41-.793A.859.859,0,0,1,277.811,271.585Z" transform="translate(-254.839 -270.568)" fill="#fff"/>
        </g>
        <path id="Path_46941" data-name="Path 46941" d="M266.5,124.131a1.626,1.626,0,0,0,.963-1.5,1.522,1.522,0,1,0-3.035,0,1.622,1.622,0,0,0,.967,1.514c-2.331.35-2.227,2.885-2.227,2.885l5.516.025S268.814,124.477,266.5,124.131Z" transform="translate(-168.619 -84.747)" fill="#e8505b"/>
        <path id="Path_46942" data-name="Path 46942" d="M266.5,124.131a1.626,1.626,0,0,0,.963-1.5,1.522,1.522,0,1,0-3.035,0,1.622,1.622,0,0,0,.967,1.514c-2.331.35-2.227,2.885-2.227,2.885l5.516.025S268.814,124.477,266.5,124.131Z" transform="translate(-168.619 -84.747)" opacity="0.1"/>
        <rect id="Rectangle_5047" data-name="Rectangle 5047" width="19.676" height="2.352" transform="translate(87.177 43.86) rotate(0.26)" fill="#e8505b"/>
        <rect id="Rectangle_5048" data-name="Rectangle 5048" width="19.676" height="2.352" transform="translate(87.177 43.86) rotate(0.26)" fill="#fff" opacity="0.2"/>
        <path id="Path_46943" data-name="Path 46943" d="M104.205,168.657h-.192l-.571.042a6.437,6.437,0,0,0-.913.121,5.867,5.867,0,0,0-.58.113l-.646.179a10.725,10.725,0,0,0-3.073,1.522A10.92,10.92,0,0,0,95.2,174a11.5,11.5,0,0,0-1.059,2.422,11.65,11.65,0,0,0-.463,2.827,12.238,12.238,0,0,0,.029,1.509,13.6,13.6,0,0,0,.246,1.539,10.9,10.9,0,0,0,1.167,3.027,10.77,10.77,0,0,0,5.078,4.616,9.907,9.907,0,0,0,3.582.8,9.69,9.69,0,0,0,3.752-.538l.367-.138h.046l.046.025,5.258,2.668-.158.133c-.559-1.743-1.1-3.431-1.626-5.053v-.063l.046-.046a11.2,11.2,0,0,0,2.76-4.586,11.549,11.549,0,0,0,.417-4.887,11.257,11.257,0,0,0-3.752-7.051,11.628,11.628,0,0,0-2.585-1.643,11.289,11.289,0,0,0-2.181-.688l-.834-.138-.6-.046-.371-.025h-.125a.566.566,0,0,1,.125,0h.371l.609.025.834.121a11.017,11.017,0,0,1,2.21.663,11.587,11.587,0,0,1,2.627,1.639,11.2,11.2,0,0,1,2.427,2.919,11.524,11.524,0,0,1,1.426,4.2,11.674,11.674,0,0,1-.392,4.97,11.4,11.4,0,0,1-2.844,4.682l.025-.108,1.643,5.049.083.254-.238-.121-5.266-2.664h.092l-.375.138a9.928,9.928,0,0,1-3.819.55,10.152,10.152,0,0,1-3.661-.834,11.191,11.191,0,0,1-6.35-7.8,5.137,5.137,0,0,1-.146-.788c-.033-.263-.088-.521-.1-.78a12.438,12.438,0,0,1,1.568-6.855,11.011,11.011,0,0,1,3.09-3.39,10.636,10.636,0,0,1,3.123-1.509l.655-.167a5.8,5.8,0,0,1,.584-.1,6.185,6.185,0,0,1,.926-.1l.567-.021a1.4,1.4,0,0,1,.171.017Z" transform="translate(-69.691 -112.524)" fill="#e8505b"/>
        <path id="Path_46944" data-name="Path 46944" d="M115.805,186.571h-.784l-1.668-2.343v-1.539s-1.192-.075-1.051,1.939,0,1.5,0,1.5a11.943,11.943,0,0,0-2.739.229,26.189,26.189,0,0,0-.246,4.036,1.476,1.476,0,0,0,1.047,1.484.99.99,0,0,0,.271.038c.63,0,3.853-.513,3.853-.513h1.33Z" transform="translate(-78.914 -120.715)" fill="#e8505b"/>
        <path id="Path_46945" data-name="Path 46945" d="M91.273,156.96l-.475,5.27H89.48v-5.166Z" transform="translate(-52.172 -91.517)" fill="#e8505b"/>
      </g>
    </g>
  </g>
</svg>
