<svg xmlns="http://www.w3.org/2000/svg" width="147" height="147" viewBox="0 0 147 147">
  <g id="Group_511" data-name="Group 511" transform="translate(-114 -236)">
    <circle id="Ellipse_106" data-name="Ellipse 106" cx="73.5" cy="73.5" r="73.5" transform="translate(114 236)" fill="#ffe4e5"/>
    <g id="Group_508" data-name="Group 508" transform="translate(159 263)">
      <path id="Path_46175" data-name="Path 46175" d="M1829.79,1030.306a50.744,50.744,0,0,1,9.97,2.071c.624-.282.636-1.047.823-2.575a19.366,19.366,0,0,0,.228-2.477c-3.447-.306-5.648-2.3-7-2.495-1.788-.259-2.344.136-3.855.238-.836-.055-3.02.228-3.5,1.937-.7,2.5.583,3.06.98,3.188C1827.757,1030.2,1829.147,1030.249,1829.79,1030.306Z" transform="translate(-1791.565 -949.872)" fill="#ffd8bb"/>
      <path id="Path_46176" data-name="Path 46176" d="M1716.327,860.1a3.727,3.727,0,0,1-.77,3.36c-1.057,1.258-2.137,2.512-3.993,1.7-1.925-1-10.724-10.725-10.385-17.626-.693-1.823,8.949-2.755,10.088-1.788S1712.4,858.812,1716.327,860.1Z" transform="translate(-1676.633 -785.074)" fill="#efa789"/>
      <path id="Path_46177" data-name="Path 46177" d="M1979.47,1060.245a24.943,24.943,0,0,1,4.119,3.1c.183-1.741.875-2.624.779-4.026-.09-1.3-.234-2.381-.307-3.089a2.491,2.491,0,0,0-.4-1.158c-.441-.543-1.074-1.271-1.453-1.219a14.541,14.541,0,0,1-4.227.132,7.65,7.65,0,0,0-1.3,4.695A7.546,7.546,0,0,1,1979.47,1060.245Z" transform="translate(-1929.77 -976.61)" fill="#ffd8bb"/>
      <path id="Path_46178" data-name="Path 46178" d="M2038.713,1068.356c1.057-.147,1.753-1.957,2.122-3.48a21.749,21.749,0,0,0,.273-5.806c.019-1.065.7-4.621-.622-4.989a8.826,8.826,0,0,0-2.364-.466c-.036.589.7,3.06.348,4.819.042.406.162.993.25,1.51l-1.626,4.791a7.286,7.286,0,0,0,.5,3.427A3.528,3.528,0,0,0,2038.713,1068.356Z" transform="translate(-1985.256 -976.384)" fill="#024"/>
      <path id="Path_46179" data-name="Path 46179" d="M2052.885,1058.825a23.119,23.119,0,0,0,.188-4.041c-.091-.65-.232-1.351-.8-1.537a8.28,8.28,0,0,0-2.346-.072c-.036.589.7,3.06.348,4.819.038.36.257.65.345,1.15a9.079,9.079,0,0,1,2.055,4.9A17.731,17.731,0,0,0,2052.885,1058.825Z" transform="translate(-1997.059 -975.944)" fill="#024"/>
      <path id="Path_46180" data-name="Path 46180" d="M2012.366,1053.216c2.083.206.846,3.781.781,4.978.146,1.878.087,5.853-.916,7.661-.813,1.551-1.432,1.7-1.936,1.5-.992-.393-.282-3.124-1.284-6.078a14.192,14.192,0,0,0-1.082-1.52,2.5,2.5,0,0,1,.281-2.2c.54-.855,1.084-1.707,1.545-.99l.67.976c.325-1.748-.419-4.2-.389-4.784A8.544,8.544,0,0,1,2012.366,1053.216Z" transform="translate(-1958.336 -975.594)" fill="#0f3460"/>
      <path id="Path_46181" data-name="Path 46181" d="M2011.218,1053.934a9.766,9.766,0,0,1,.094,1.352,15.017,15.017,0,0,1-.325,2.985c-.059.275-.514-.063-.6.207-.1.29-.494,2.172-1.493,2.54-.244-.414-.736-.809-.971-1.219a2.5,2.5,0,0,1,.281-2.2c.54-.855,1.084-1.707,1.545-.989l.67.975c.325-1.748-.419-4.2-.389-4.784a2.67,2.67,0,0,1,.909.087A3.269,3.269,0,0,1,2011.218,1053.934Z" transform="translate(-1958.327 -975.633)" fill="#0f3460"/>
      <path id="Path_46183" data-name="Path 46183" d="M2037.865,1052.109a7.672,7.672,0,0,0-2.243-.02c-.03.584.871,2.258.58,4.653.012.392,2.081,1.825,2.552,3.614a7.552,7.552,0,0,0,0-2.811,22.151,22.151,0,0,0,.406-3.448C2039.108,1053.135,2038.753,1052.194,2037.865,1052.109Z" transform="translate(-1983.919 -974.929)" fill="#0f3460"/>
      <path id="Path_46184" data-name="Path 46184" d="M1830.034,1006.765c1.452-.346,4.161.75,5.108,1.087a15.43,15.43,0,0,0,6.834,1.669c.4.05,1.1,2.262.8,3.722s-1.938,4.335-2.5,4.576-2.487-1.876-4.829-2.267-9.658-1.093-10.081-1.714c-.294-.435.462-3.188,2.231-5.026A13.35,13.35,0,0,1,1830.034,1006.765Z" transform="translate(-1790.703 -933.294)" fill="#024"/>
      <path id="Path_46185" data-name="Path 46185" d="M1696.32,830.69s.137,6.05,1.086,8.449a55.073,55.073,0,0,0,6.26,10.162c1.585,1.783,2.609,2.731,3.206,2.839a6.447,6.447,0,0,0,2.885-.31,5.461,5.461,0,0,0,2.412-2.333,7.891,7.891,0,0,0,.144-4.177,2.017,2.017,0,0,0-.87-.342s-1.138-5.271-.928-6.728-3.619-5.736-3.619-5.736Z" transform="translate(-1672.202 -771.595)" fill="#024"/>
      <path id="Path_46186" data-name="Path 46186" d="M1900.98,1026s-.78.25-1.171.353,2.009,2.262,3.206,1.981c1.327-.311,2.791-.7,3.252-.721C1906.435,1027.43,1903.281,1026.524,1900.98,1026Z" transform="translate(-1859.109 -951.027)" fill="#0f3460"/>
      <path id="Path_46187" data-name="Path 46187" d="M1704.9,746l-7.773.368s-4.872.7-5.074,2.31a30.541,30.541,0,0,0,.12,5.873c.1.787,3.746,4.966,8.816,5.314,1.552.106,10.117-2.709,10.062-3.513a7.982,7.982,0,0,0-.311-4.427c-.1-.224-.02-.917-.138-1.126s-.732-.3-.732-.3c-.813-1.1-2.309-1.714-2.537-2.114C1706.989,747.936,1704.9,746,1704.9,746Z" transform="translate(-1668.198 -693.789)" fill="#024"/>
      <path id="Path_46188" data-name="Path 46188" d="M1699.415,746.478a23.314,23.314,0,0,1-6.924-.168s-.106-3.69,0-4.576c1.966-3.274,13.642-2.823,16.666-3.293.237.119.593,3.794,1.186,5.246C1710.195,744.042,1705.156,745.791,1699.415,746.478Z" transform="translate(-1668.642 -686.844)" fill="#2c2c24"/>
      <path id="Path_46189" data-name="Path 46189" d="M1741.788,810.77c-.244.014-1.209.22-1.412.028a4.261,4.261,0,0,1-.177-2.554c.033-.038.272-.141,1.319-.2.732-.039,1.564-.049,1.743.254.061.1-2.52.076-2.62.255a5.378,5.378,0,0,0,.124,1.776c.377.033,2.806-.081,2.809.035.006.248-.238.3-.445.355A10.045,10.045,0,0,1,1741.788,810.77Zm-1.132-2.257" transform="translate(-1712.397 -750.775)" fill="#c5c5be"/>
      <path id="Path_46190" data-name="Path 46190" d="M1742.451,810.6c-.244.014-1.037.05-1.242-.141-.189-.177-.1-.9-.068-1.558.006-.117-.381-.115-.366-.206a.623.623,0,0,1,.1-.285c.034-.038.244-.308,1.289-.363.732-.039,1.564-.049,1.743.254.061.1-2.52.076-2.62.255a5.374,5.374,0,0,0,.124,1.776c.377.033,2.806-.081,2.809.035.007.248-.238.3-.445.355A9.886,9.886,0,0,1,1742.451,810.6Zm-1.15-2.089" transform="translate(-1713.042 -750.775)" fill="#919188"/>
      <path id="Path_46191" data-name="Path 46191" d="M1792.078,844.48a21.989,21.989,0,0,1-2.016,1.057c-.176.034.192,2.008.5,3.525a11.486,11.486,0,0,1,2-1.73C1793.048,846.983,1792.078,844.48,1792.078,844.48Z" transform="translate(-1758.281 -784.263)" fill="#0f3460"/>
      <path id="Path_46192" data-name="Path 46192" d="M1766.94,865.77c.058.13,1.119,4.261,1.419,4.94s2.2,2.106,1.919,2.062a4.176,4.176,0,0,1-2.439-1.4C1767.667,870.829,1766.94,865.77,1766.94,865.77Z" transform="translate(-1737.081 -803.823)" fill="#0f3460"/>
      <path id="Path_46193" data-name="Path 46193" d="M1520.291,1106.6a8.658,8.658,0,0,1-3.214,1.512c-1.726.244-3.759-1.707-4.715-1.634-.628.32.184,2.126.975,3.831a13.98,13.98,0,0,0,2.358,3.344c1.562,1.707,1.98,1.3,3.283,2.195.712.13,1.98-2.082,2.444-2.776a8.7,8.7,0,0,1,1.951-2.1C1523.4,1109.172,1520.949,1106.111,1520.291,1106.6Z" transform="translate(-1502.993 -1024.96)" fill="#efa789"/>
      <path id="Path_46194" data-name="Path 46194" d="M1593.014,985.6c-1.232,2.127-5.23,6.725-8.433,8.422-.172.826.169,1.339,1.178,2.663a3.193,3.193,0,0,0,2.683,1.382c2.226-1.9,7.827-5.687,8.928-7.068.976-1.219.988-2.719,2.152-3.353.137-.533-.6-1.075-2.224-3.275s-2.206-2.179-2.515-1.9A20.692,20.692,0,0,0,1593.014,985.6Z" transform="translate(-1569.508 -910.92)" fill="#efa789"/>
      <path id="Path_46195" data-name="Path 46195" d="M1463.491,1091.718c-.925-.2-1.422.906-2.665.311a29.343,29.343,0,0,1-5.822-6.748c-.563-.9-1.8-2.914-1.6-4.2a3.967,3.967,0,0,1,1.427-1.382c.589.255,1.815,1.727,2.688,2.219,1.049.591,5.747,6.81,5.747,6.81l1.2-.02s1.943.984,2.151,1.108C1466.8,1089.9,1464.327,1091.95,1463.491,1091.718Z" transform="translate(-1449.015 -1000.361)" fill="#024"/>
      <path id="Path_46196" data-name="Path 46196" d="M1490.126,1164.555a5.221,5.221,0,0,0,.1-2.408,3.912,3.912,0,0,1-1.971,1.122c-1.349.257-3.963-1.444-3.963-1.444a7.908,7.908,0,0,1-3.907-2.715,28.447,28.447,0,0,0,5.247,5.873c1.189.847,1.823.013,2.4.133a2.5,2.5,0,0,1,.874.222C1489.145,1165.413,1489.884,1164.865,1490.126,1164.555Z" transform="translate(-1473.826 -1073.316)" fill="#024"/>
      <path id="Path_46197" data-name="Path 46197" d="M1477.243,1086.087c-.922-.207-1.2,1.024-2.877-.213a26.876,26.876,0,0,1-6.845-9.25c-.48-1.27.178-2.706,1.283-2.223.585.255,1.4.873,2.271,1.367a12.518,12.518,0,0,0,2.752,1.363,5.344,5.344,0,0,1,1.138-.267,3.447,3.447,0,0,1,2.182,1.345,4.033,4.033,0,0,1,.793,3.414c-.163.737-.713,1.048-1.138.967.447.316.872-.316,1.2-.016,1.428,1.321,1.936.989,2.143,1.114A27.607,27.607,0,0,1,1477.243,1086.087Z" transform="translate(-1461.857 -995.405)" fill="#0f3460"/>
      <path id="Path_46198" data-name="Path 46198" d="M1527.071,1100.391a.975.975,0,0,1-.864.155,13.8,13.8,0,0,1-1.607-.785,11.083,11.083,0,0,0,1.736,1.724C1526.94,1101.84,1527.234,1100.823,1527.071,1100.391Z" transform="translate(-1514.442 -1018.79)" fill="#024"/>
      <path id="Path_46199" data-name="Path 46199" d="M1477.973,1083.366c0-.163.385-.357,1.167.458.239.25.089.976.5,2.045a24.045,24.045,0,0,0,1.812,3.379,12.661,12.661,0,0,1-2.262-2.807C1477.665,1084.121,1477.969,1083.528,1477.973,1083.366Z" transform="translate(-1471.58 -1003.596)" fill="#024"/>
      <path id="Path_46201" data-name="Path 46201" d="M1571.839,993s-2.051,1.888-3.83,3.192c-1.826,1.34-7.2,5.3-7.351,5.632s1.618,3.7,2.439,4.828a13.559,13.559,0,0,0,3.367,2.8c.389.071,2.865-3.223,4.036-4.257.745-.659,7.169-6.27,7.235-6.615a18.142,18.142,0,0,0-.35-2.472Z" transform="translate(-1547.561 -920.71)" fill="#024"/>
      <path id="Path_46202" data-name="Path 46202" d="M1695.035,856.157a7.92,7.92,0,0,0,4.2,1.438c.177-.007.554.626.723.444a13.317,13.317,0,0,1,4.624-2.927c.918-.146,6.951-2.853,8.536-5.632,2-3.5-.138-8.873-.376-9.406-1.237-.383-2.52,1.185-4.209,2.276-4.782,1.581-10.545,6.945-11.279,7.3a11.081,11.081,0,0,0-3.34,3.135C1693.535,853.725,1693.475,854.935,1695.035,856.157Z" transform="translate(-1669.784 -780.162)" fill="#0f3460"/>
      <path id="Path_46203" data-name="Path 46203" d="M1739.25,1026.07a4.919,4.919,0,0,0-.724-1.707,7.838,7.838,0,0,0-1.476-1.073,4.322,4.322,0,0,0,.48,1.76C1737.929,1025.591,1739.124,1025.847,1739.25,1026.07Z" transform="translate(-1709.62 -948.537)" fill="#024"/>
      <path id="Path_46204" data-name="Path 46204" d="M1709.879,972.469a1.423,1.423,0,0,0-.74-1.072,4.066,4.066,0,0,0-1.9.722c-.483.447-.689,1.747-.4,2S1709.722,973.879,1709.879,972.469Z" transform="translate(-1681.74 -900.863)" fill="#0f3460"/>
      <path id="Path_46205" data-name="Path 46205" d="M1574.884,991.848c.593-.355.949,2.431,1.66,3.261s1.185,1.067.889,1.185-4.031.949-5.691,1.66c-.884.379-5.7,5.331-6.877,5.573a8.859,8.859,0,0,1-1.185-2.786c.355-.415,4.943-3.284,7.351-5.276C1572.75,994.042,1574.292,992.2,1574.884,991.848Z" transform="translate(-1550.345 -919.623)" fill="#0f3460"/>
      <path id="Path_46206" data-name="Path 46206" d="M1678.867,591.691c-2.312.534-3.52,3.519-4.565,4.921-.183.244.06,1.852-.13,2.1-.163.511,2.62,3.414,3.073,3.1a14.259,14.259,0,0,1,1.367-1.254,7.394,7.394,0,0,0,2.371-4.742C1681.221,593.717,1679.827,591.47,1678.867,591.691Z" transform="translate(-1651.848 -552.011)" fill="#a61b23"/>
      <path id="Path_46207" data-name="Path 46207" d="M1719.66,590.614c0,.593.608,1.958,3.992,2.489,5.8.455,7.982-.768,8.85-1.545.338-.3.478-.541.556-.585-.02-1.945,3.6-7.566,3.717-7.74h0a.15.15,0,0,1,.008-.024c.114-.325,1.463-3.851.91-4.676a.172.172,0,0,1-.015-.02c-.356-.8-2.791-2.206-7.3-3.008-.644-.115-3.972-.051-5.019-.058a26.15,26.15,0,0,0-4.8,1.334c-.447.333-.564,4.371-.325,5.631C1720.237,582.4,1719.66,590.021,1719.66,590.614Z" transform="translate(-1693.644 -537.091)" fill="#ffd497"/>
      <path id="Path_46208" data-name="Path 46208" d="M1710.521,590.568c-.037.74,1.148,1.63,3.43,2.46a6.472,6.472,0,0,0,1.219.355c.325.026.732-.256,1.037-.264,8.139-.21,9.208-1.825,9.286-1.87-.02-1.945,2.776-7.892,2.889-8.066h0a.176.176,0,0,1,.008-.024c.114-.325,1.463-3.851.91-4.676a.144.144,0,0,1-.015-.02c-.356-.8-2.791-2.206-7.3-3.008-.644-.115-3.972-.051-5.019-.058a26.149,26.149,0,0,0-4.8,1.334c-.447.333-.906,4.489-.667,5.75,0,0,.041,2.182-.119,4.39A28.2,28.2,0,0,1,1710.521,590.568Z" transform="translate(-1685.247 -537.046)" fill="#e73739"/>
      <path id="Path_46209" data-name="Path 46209" d="M1714.442,621c.476-.037,1.528,9.918,2.195,10.081a9.756,9.756,0,0,0,6.254-1.363c.669-.446.259-2.808.5-3.468.268-.723-.474-3.2-.474-3.883,0-.178.65.148.948.415.361.325.236,2.276.3,2.223,1.127.859,4.318-.265,4.2.057a.176.176,0,0,0-.008.024h0c-.113.174-2.909,6.121-2.889,8.066-.081.045-1.146,1.66-9.286,1.87-.3.008-.71.29-1.037.264a6.465,6.465,0,0,1-1.219-.355c-2.282-.83-3.467-1.72-3.43-2.46C1710.523,632.036,1712.908,621.124,1714.442,621Z" transform="translate(-1685.229 -578.95)" fill="#a61b23"/>
      <path id="Path_46210" data-name="Path 46210" d="M1788.564,541.78l-.014,3.212c0,.6.682.949.949,1.023,1.206,0,3.435-.423,3.435-1.022V541.78Z" transform="translate(-1756.934 -506.172)" fill="#bc7d51"/>
      <path id="Path_46211" data-name="Path 46211" d="M1769.7,576.853c-1.3,2.866-5.3,4.309-5.452,4.3-.3-.029-.711-2.371-1.219-2.489s-1.681,2.2-1.859,2.134a4.923,4.923,0,0,1-1.275-3.972l1.511-.385,1.719,1.275,4.417-1.413C1767.516,576.275,1769.212,576.789,1769.7,576.853Z" transform="translate(-1730.573 -537.884)" fill="#a61b23"/>
      <path id="Path_46212" data-name="Path 46212" d="M1776.866,594.607s-.884,7.048-1,7.666a4.353,4.353,0,0,1-2.224-.244c.049-.455,1.138-7.738,1.138-7.738a1.787,1.787,0,0,1,2.089.315Z" transform="translate(-1743.234 -554.241)" fill="#a61b23"/>
      <path id="Path_46213" data-name="Path 46213" d="M1779.433,593.686s-.906,6.6-1.009,7.195c-.032.189-1.6-.035-1.576-.211.046-.435.988-7.235.988-7.235a3.065,3.065,0,0,1,.852-.2A3.247,3.247,0,0,1,1779.433,593.686Z" transform="translate(-1746.183 -553.443)" fill="#4a4238"/>
      <path id="Path_46214" data-name="Path 46214" d="M1786.7,594.755l.187-1.351a3.064,3.064,0,0,1,.852-.2,3.238,3.238,0,0,1,.746.451l-.163,1.164s-.488-.941-.69-.963S1786.7,594.755,1786.7,594.755Z" transform="translate(-1755.234 -553.415)" fill="#332c24"/>
      <path id="Path_46215" data-name="Path 46215" d="M1765.865,562.15c-.115,1.3,1.268,2.406,1.2,2.6-.924.341-1.892,2.293-2.018,2.249-1.138-.385-.976-2.825-.766-3.471.143-.437,1.237-1.241,1.237-1.241Z" transform="translate(-1734.504 -524.886)" fill="#4a4238"/>
      <path id="Path_46216" data-name="Path 46216" d="M1766.276,562.15a3.135,3.135,0,0,0,.043,1.418,5.124,5.124,0,0,0-1.545,2.345,4.9,4.9,0,0,1-.081-2.388c.143-.437,1.237-1.241,1.237-1.241Z" transform="translate(-1734.915 -524.886)" fill="#332c24"/>
      <path id="Path_46217" data-name="Path 46217" d="M1803.736,562.829c-.582,1.406-3.714,2.147-3.927,2.5.723.288,1,2.564,1.27,2.549,2.406-.133,4.847-3.838,4.847-3.838l-1.626-1.253Z" transform="translate(-1767.278 -525.474)" fill="#4a4238"/>
      <path id="Path_46218" data-name="Path 46218" d="M1804.066,564.949c-.1-.139-.389-1.076-.569-1.01s-1.092.894-1.236.968a18.32,18.32,0,0,0-2.171.4c.337-.365,3.333-1.1,3.9-2.477l.569-.039a10.45,10.45,0,0,1,1.719,1.3c-.007.181-.325.667-1.535,1.738C1804.531,565.526,1804.275,565.252,1804.066,564.949Z" transform="translate(-1767.536 -525.474)" fill="#332c24"/>
      <path id="Path_46219" data-name="Path 46219" d="M1681.882,259.09s-4.479,5.083-1.5,10.541a51.008,51.008,0,0,1,3.142-7.553Z" transform="translate(-1656.619 -246.463)" fill="#573127"/>
      <path id="Path_46220" data-name="Path 46220" d="M1673.742,214.517a27.491,27.491,0,0,1-12.539-.912,34.389,34.389,0,0,1-4.814-2c-3.588-1.885-7.063-4.584-5.982-8.481.112-1.21,1.915-2.472,2.581-5.518.157-.718.325-1.463.517-2.2a20.743,20.743,0,0,1,2.719-6.677c5.979-10.688,25.594-3.632,26,5.622-.02,1.308-.447,8.767-.919,12.329a14.558,14.558,0,0,1-.249,1.451,1.923,1.923,0,0,1-.1.325C1681.035,209.386,1679.159,213.6,1673.742,214.517Z" transform="translate(-1629.836 -176.886)" fill="#ffd497"/>
      <path id="Path_46221" data-name="Path 46221" d="M1735.184,203.715c-.492.641-1.336-.813-1.669-.071-.578,1.282-.882,2.427-1.444,2.475a9.493,9.493,0,0,0-2.013-6.635c-.386-.7.949-2.711.689-3.778-1.555-6.385-8.323-8.5-8.391-8.3-.676,1.957-2.045,4.516-3.658,5.347-1.017.523-2.737.5-3.228-.429-.737-1.4.788-2.666.6-2.549a9.608,9.608,0,0,1-6.37,1.061,12.962,12.962,0,0,1,1.184-2.107c5.979-10.688,25.594-3.632,26,5.622-.013.845-.2,4.253-.45,7.521a15.975,15.975,0,0,1-1.249,1.846Z" transform="translate(-1684.494 -176.886)" fill="#e2a171"/>
      <path id="Path_46222" data-name="Path 46222" d="M1682.621,448.7a27.491,27.491,0,0,1-12.539-.912,34.391,34.391,0,0,1-4.814-2,13.6,13.6,0,0,1-5.4-4.425c2.394,2.94,9.009,5.431,15.47,5.687,6.307.25,12.583-1.788,14.215-7.008-.111.352.542-1.78.542-1.78a15.437,15.437,0,0,1-.268,4.371C1689.627,443.73,1688.037,447.785,1682.621,448.7Z" transform="translate(-1638.715 -411.067)" fill="#e2a171"/>
      <path id="Path_46223" data-name="Path 46223" d="M1641.957,389.867c-1.152-.315-2.032.152-2.231.859a2.316,2.316,0,0,0,1.509,2.785C1643.121,394.07,1644.528,390.567,1641.957,389.867Z" transform="translate(-1620.15 -366.516)" fill="#f9b3a8"/>
      <path id="Path_46224" data-name="Path 46224" d="M1656.9,394.734c-.052.025-.11,0-.138-.072a.219.219,0,0,1,.047-.233,5.5,5.5,0,0,1,.708-.493c.062-.036.131.006.153.093a.207.207,0,0,1-.073.222,5.366,5.366,0,0,0-.673.469.11.11,0,0,1-.024.015Z" transform="translate(-1635.841 -370.334)" fill="#c45c57"/>
      <path id="Path_46225" data-name="Path 46225" d="M1664.565,399.519c-.054.027-.113,0-.14-.076a.217.217,0,0,1,.052-.232,5.689,5.689,0,0,1,.625-.424c.061-.037.13.006.152.093a.207.207,0,0,1-.072.222,5.444,5.444,0,0,0-.6.406A.1.1,0,0,1,1664.565,399.519Z" transform="translate(-1642.887 -374.791)" fill="#c45c57"/>
      <path id="Path_46226" data-name="Path 46226" d="M1897.962,477.582c-1.707-.358-2.995.094-3.281.813-.228.569-.156,2.358,2.276,2.906C1899.75,481.934,1901.772,478.378,1897.962,477.582Z" transform="translate(-1854.359 -447.077)" fill="#f9b3a8"/>
      <path id="Path_46227" data-name="Path 46227" d="M1914.254,481.435a.174.174,0,0,1-.14-.316,8.489,8.489,0,0,1,1.037-.488.174.174,0,1,1,.124.325,8.28,8.28,0,0,0-.986.462A.214.214,0,0,1,1914.254,481.435Z" transform="translate(-1872.211 -449.983)" fill="#c45c57"/>
      <path id="Path_46228" data-name="Path 46228" d="M1925.659,486.548a.174.174,0,0,1-.135-.319,8.749,8.749,0,0,1,.916-.417.173.173,0,0,1,.226.1.176.176,0,0,1-.1.225,8.541,8.541,0,0,0-.873.4A.164.164,0,0,1,1925.659,486.548Z" transform="translate(-1882.689 -454.742)" fill="#c45c57"/>
      <path id="Path_46229" data-name="Path 46229" d="M1724.221,294.042c-1.219-1.4-4.179-1.219-4.153-.6.008.211,1.5.022,2.8,1.121a8.158,8.158,0,0,1,1.276,1.494C1724.383,296.4,1724.83,294.743,1724.221,294.042Z" transform="translate(-1694.019 -277.594)" fill="#e2a171"/>
      <path id="Path_46230" data-name="Path 46230" d="M1727.146,293.961a3.707,3.707,0,0,0-3.853-.753c-.032.223,1.361-.045,2.663,1.057a7.274,7.274,0,0,1,1.206,1.414C1727.4,296.012,1727.591,294.485,1727.146,293.961Z" transform="translate(-1696.982 -277.581)" fill="#794230"/>
      <path id="Path_46231" data-name="Path 46231" d="M1849.693,327.127c2.586-.6,6.135,1.047,5.626,1.575-.172.179-1.89-.737-4.346-.443a15.981,15.981,0,0,0-2.723.65C1847.7,329.078,1848.4,327.425,1849.693,327.127Z" transform="translate(-1811.607 -308.85)" fill="#e2a171"/>
      <path id="Path_46232" data-name="Path 46232" d="M1852.52,326.554c2.582-.622,5.505,1.08,5.372,1.289s-1.662-.724-4.119-.429a14.474,14.474,0,0,0-2.576.613C1850.649,328.2,1851.568,326.783,1852.52,326.554Z" transform="translate(-1814.336 -308.318)" fill="#794230"/>
      <path id="Path_46233" data-name="Path 46233" d="M1692.989,325.266c.8-.956,1.87-1.639,2.722-1.392.6.176,1,1.151,1,2.043-.021,2.308-1.041,5.237-1.354,5.266-.432.04,0-2.089-1.507-2.47-1.188-.3-2.346,1.517-2.67,1.554C1690.743,330.316,1691.211,327.381,1692.989,325.266Z" transform="translate(-1667.336 -305.934)" fill="#e2a171"/>
      <path id="Path_46234" data-name="Path 46234" d="M1701.761,326.917c.369-.206.947-.435,1.107-.176a5.143,5.143,0,0,1-.993,2.43c-.221.289-1.258.152-2.676,1.591A6.189,6.189,0,0,1,1701.761,326.917Z" transform="translate(-1674.848 -308.508)" fill="#ffd497" opacity="0.6"/>
      <path id="Path_46235" data-name="Path 46235" d="M1693.539,368.981a2.578,2.578,0,0,1,2.439-1.117,1.88,1.88,0,0,1,1.138,1.683,3.835,3.835,0,0,1-.145,1.789c-.1,0,.236-2.134-1.247-2.615-.989-.321-2.063.763-2.764,1.669C1692.5,370.985,1692.921,369.678,1693.539,368.981Z" transform="translate(-1668.938 -346.342)" fill="#563117"/>
      <path id="Path_46236" data-name="Path 46236" d="M1829.814,375.987c.841.047.924-4.648.607-5.592-.325-1.382-.846-2.639-2.271-3a3.521,3.521,0,0,0-3.532,1.448c-1.115,1.5-2.032,3.679-1.707,3.9.437.237,1.536-1.538,4.041-.781C1829.641,372.778,1829.422,376.063,1829.814,375.987Z" transform="translate(-1788.44 -345.889)" fill="#e2a171"/>
      <path id="Path_46237" data-name="Path 46237" d="M1834.509,369.506c.392-.163.994-.325,1.124-.048s-.742,1.761-1.271,2.31c-.254.263-1.272.007-2.853,1.279A6.207,6.207,0,0,1,1834.509,369.506Z" transform="translate(-1796.401 -347.721)" fill="#ffd497" opacity="0.6"/>
      <path id="Path_46238" data-name="Path 46238" d="M1832.013,410.6c.5-.041.35-1.857.033-2.8a3.517,3.517,0,0,0-2.476-2.482,3.947,3.947,0,0,0-3.055.555c-.742.467-1.463,1.42-1.315,1.488a4.511,4.511,0,0,1,3.94-.958C1831.932,407.048,1831.982,410.6,1832.013,410.6Z" transform="translate(-1790.587 -380.702)" fill="#563117"/>
      <path id="Path_46239" data-name="Path 46239" d="M1766.739,434.47c.053-.244.415-.881.933-.6s.807.992.517,1.1S1766.7,434.652,1766.739,434.47Z" transform="translate(-1736.895 -406.968)" fill="#e2a171"/>
      <path id="Path_46240" data-name="Path 46240" d="M1746.452,457.463a14.247,14.247,0,0,1,4.133,1.189c.129.254-1.362,3.9-3.049,3.392S1746.172,457.616,1746.452,457.463Z" transform="translate(-1718.052 -428.695)" fill="#fd5f54"/>
      <path id="Path_46241" data-name="Path 46241" d="M1746.492,457.463a14.251,14.251,0,0,1,4.133,1.189,2.807,2.807,0,0,1-.372,1.134,2.51,2.51,0,0,0-3.983-1.142A2.476,2.476,0,0,1,1746.492,457.463Z" transform="translate(-1718.091 -428.695)" fill="#902422"/>
      <path id="Path_46242" data-name="Path 46242" d="M1669.3,382.776a.228.228,0,0,0-.049-.267c-.137-.051-1.382-.6-.294-3.232-.04-.15-.285-.029-.472.494-.61,1.707-.094,2.806.6,3.123a.633.633,0,0,0,.218-.118Z" transform="translate(-1646.383 -356.824)" fill="#c5c5be"/>
      <path id="Path_46243" data-name="Path 46243" d="M1907.979,389.438l.026,0a9.153,9.153,0,0,0,6.168-1.9,6.5,6.5,0,0,0,2.52-5.874.277.277,0,0,0-.3-.219.236.236,0,0,0-.258.229,6.044,6.044,0,0,1-2.358,5.513,8.708,8.708,0,0,1-5.758,1.815.211.211,0,0,0-.251.187A.255.255,0,0,0,1907.979,389.438Z" transform="translate(-1866.462 -358.875)" fill="#fdfdfd"/>
      <path id="Path_46244" data-name="Path 46244" d="M1986.028,386.869a6.019,6.019,0,0,0,1.978-5.191.236.236,0,0,1,.258-.229.278.278,0,0,1,.3.219,6.492,6.492,0,0,1-2.52,5.874l-.042.032Q1986.017,387.222,1986.028,386.869Z" transform="translate(-1938.332 -358.875)" fill="#c5c5be"/>
      <path id="Path_46245" data-name="Path 46245" d="M1908.023,473.556a6.293,6.293,0,0,0,1.707-.076c-.015.157-.027.314-.035.471a6.665,6.665,0,0,1-1.692.041l-.026,0a.255.255,0,0,1-.207-.244.211.211,0,0,1,.253-.188Z" transform="translate(-1866.462 -443.424)" fill="#c5c5be"/>
      <path id="Path_46246" data-name="Path 46246" d="M1891.243,465.309h.023a12.2,12.2,0,0,0,6.585-1.686,11.257,11.257,0,0,0,5.539-6.891c.045-.163-.115-.274-.354-.238s-.325.316-.364.48c-.711,2.81-2.383,4.692-5.181,6.33a11.594,11.594,0,0,1-6.165,1.664.211.211,0,0,0-.244.146.179.179,0,0,0,.162.2Z" transform="translate(-1851.129 -427.813)" fill="#c5c5be"/>
      <path id="Path_46247" data-name="Path 46247" d="M1667.325,418l-1.165,5.652c1.109,1.614,3.731,3.642,7.8,5.2,4.5,1.722,8.3,1.995,10.791,1.557l1.259-7.845a16.2,16.2,0,0,1-4.356-.813c-1.788-.553-3.5-2.971-5.457-3.4-1.837-.4-3.95,1-5.428.779A8.944,8.944,0,0,1,1667.325,418Z" transform="translate(-1644.494 -392.454)" fill="#c4f6e5"/>
      <path id="Path_46248" data-name="Path 46248" d="M1763.649,434.6a5.808,5.808,0,0,0-2.187-1.5,4.1,4.1,0,0,0-2.141.143c-.512.176-.75,4.471.853,5.166C1761.395,438.927,1763.6,435.673,1763.649,434.6Z" transform="translate(-1729.728 -406.246)" fill="#e1fff4"/>
      <path id="Path_46249" data-name="Path 46249" d="M1666.532,470.84l-.272,1.319c1.365,1.788,3.73,3.533,7.69,5.022a23.241,23.241,0,0,0,10.917,1.656l.282-1.759a22.83,22.83,0,0,1-10.357-1.3C1670.466,474.254,1667.965,472.538,1666.532,470.84Z" transform="translate(-1644.586 -440.999)" fill="#86bca9"/>
      <path id="Path_46250" data-name="Path 46250" d="M1884.309,473.38,1883,481.414a9.942,9.942,0,0,0,1.975-.362l.006-.04c.093-.559.189-1.158.284-1.761.439-2.768.867-5.671.836-5.812A17.525,17.525,0,0,1,1884.309,473.38Z" transform="translate(-1843.706 -443.332)" fill="#fdfdfd"/>
      <path id="Path_46251" data-name="Path 46251" d="M1661.438,418.771c-.087.435-.174.87-.255,1.284,0,.022-.009.044-.013.065a5.756,5.756,0,0,0,.859,1.129l1.219-5.959c-.628-.307-.9-.563-.927-.543C1662.254,414.808,1661.838,416.792,1661.438,418.771Z" transform="translate(-1639.909 -389.465)" fill="#fdfdfd"/>
      <path id="Path_46252" data-name="Path 46252" d="M1885.6,545.61a17.064,17.064,0,0,1-1.951.255l-.285,1.754a15.117,15.117,0,0,0,1.955-.248C1885.405,546.812,1885.5,546.211,1885.6,545.61Z" transform="translate(-1844.036 -509.69)" fill="#c5c5be"/>
      <path id="Path_46253" data-name="Path 46253" d="M1661.585,464.26c-.087.435-.174.87-.255,1.284a9.351,9.351,0,0,0,.859,1.125l.279-1.362A9.3,9.3,0,0,1,1661.585,464.26Z" transform="translate(-1640.056 -434.954)" fill="#c5c5be"/>
      <path id="Path_46254" data-name="Path 46254" d="M1685.477,432.914a13.616,13.616,0,0,0,5.284,1.047c.215.015.429.029.639.046a13.529,13.529,0,0,1,1.911.237,16.74,16.74,0,0,1,2.42,1l.011.006a31,31,0,0,0,4.495,1.8,5.2,5.2,0,0,0,1.651.224.195.195,0,0,0,.173-.232.23.23,0,0,0-.237-.2c-1.412.111-3.983-1.061-5.935-1.951l-.024-.011a17.019,17.019,0,0,0-2.5-1.015,13.527,13.527,0,0,0-1.928-.233l-.662-.042a13.471,13.471,0,0,1-5.2-.994c-.067-.035-.145.007-.176.093A.18.18,0,0,0,1685.477,432.914Z" transform="translate(-1662.164 -405.857)" fill="#86bca9"/>
      <path id="Path_46255" data-name="Path 46255" d="M1681.744,451.178a18.612,18.612,0,0,0,5.609,1.6c.25.043.488.086.72.128.523.1.994.189,1.406.3a15.508,15.508,0,0,1,1.611.593l.558.228c1.25.514,2.742,1.126,4.09,1.524a7.7,7.7,0,0,0,2.41.406.192.192,0,0,0,.174-.231.237.237,0,0,0-.237-.208c-1.5.086-4.374-1.076-6.335-1.87l-.4-.163a17.157,17.157,0,0,0-1.811-.663c-.447-.114-.961-.211-1.531-.311l-.615-.106a18.41,18.41,0,0,1-5.539-1.545c-.067-.037-.145,0-.176.09A.188.188,0,0,0,1681.744,451.178Z" transform="translate(-1658.736 -422.629)" fill="#86bca9"/>
      <path id="Path_46256" data-name="Path 46256" d="M1759.76,471.36c.018.132.039.263.064.392.523.1.994.189,1.406.3a15.517,15.517,0,0,1,1.61.593c.089-.1.177-.2.262-.308a17.174,17.174,0,0,0-1.811-.663C1760.844,471.557,1760.331,471.459,1759.76,471.36Z" transform="translate(-1730.484 -441.476)" fill="#abd3c4"/>
      <path id="Path_46257" data-name="Path 46257" d="M1759.354,445.5c-.017.114-.032.237-.044.368a13.523,13.523,0,0,1,1.911.237,16.746,16.746,0,0,1,2.42,1q.092-.181.162-.35l-.024-.011a17.014,17.014,0,0,0-2.5-1.015A13.572,13.572,0,0,0,1759.354,445.5Z" transform="translate(-1730.071 -417.719)" fill="#abd3c4"/>
      <path id="Path_46258" data-name="Path 46258" d="M1685.642,472.244c3.436,1.128,7.111,2.032,8.9,2.006a.189.189,0,0,0,.177-.227.244.244,0,0,0-.234-.22,34.949,34.949,0,0,1-8.767-1.94,37.015,37.015,0,0,1-7.455-3.109c-.065-.041-.144-.006-.178.081a.2.2,0,0,0,.056.23A37.522,37.522,0,0,0,1685.642,472.244Z" transform="translate(-1655.436 -439.068)" fill="#86bca9"/>
      <path id="Path_46259" data-name="Path 46259" d="M1681.9,489.911c3.381,1.2,7.057,2.124,9.073,2.032a.19.19,0,0,0,.167-.237.249.249,0,0,0-.244-.216c-3.872.189-13.275-3.155-16.2-5.435a.117.117,0,0,0-.181.061.207.207,0,0,0,.044.238A29.3,29.3,0,0,0,1681.9,489.911Z" transform="translate(-1652.151 -454.956)" fill="#6d9e8b"/>
      <path id="Path_46260" data-name="Path 46260" d="M1994.716,292.64c1.371.894,2.6,5.349,2.258,9.7s-4.008,10.243-9.734,10.975a11.59,11.59,0,0,0,4.241-9.064S1995.594,295.382,1994.716,292.64Z" transform="translate(-1939.471 -277.286)" fill="#573127"/>
      <path id="Path_46261" data-name="Path 46261" d="M1812.086,173.236c.244-2.758-.851-5.209-1.273-8.048-1.415-9.512-9.734-11.72-15.3-11.643-1.028-1.219.02-2.592,1.367-3.753a5.326,5.326,0,0,1,1.37-.832,2.859,2.859,0,0,1,.743-.4,12.452,12.452,0,0,1,5.916-.163,25.825,25.825,0,0,1,4.465,1.068,17.64,17.64,0,0,1,7.351,5.163c2.75,3.675,4.471,6.144,3.74,12.626C1819.818,173.029,1813.625,172.153,1812.086,173.236Z" transform="translate(-1762.949 -144.52)" fill="#794230"/>
      <path id="Path_46262" data-name="Path 46262" d="M1910.605,152.516c-3.288-2.241-6.291-2.01-7.945-3.1.373.044.732.1,1.066.167a25.819,25.819,0,0,1,4.465,1.068,17.641,17.641,0,0,1,7.352,5.163,18.186,18.186,0,0,1,3.432,6.059A23.641,23.641,0,0,0,1910.605,152.516Z" transform="translate(-1861.767 -145.709)" fill="#9c5e4b"/>
      <path id="Path_46263" data-name="Path 46263" d="M1841.449,207.333a3.426,3.426,0,0,1,1.806.435,10.974,10.974,0,0,1,6.247,5.465,14.329,14.329,0,0,0-9.511-5.109A3.649,3.649,0,0,1,1841.449,207.333Z" transform="translate(-1804.192 -198.886)" fill="#573127"/>
      <path id="Path_46264" data-name="Path 46264" d="M2020.511,351.2s1.212-3.577,1.111-4.906c-.081-1.036.872,1.251.144,3.008-.059.1,1.122-.763,1.891-.262a3.63,3.63,0,0,1,1.458,2.946c-.119,1.245-1.717,2.262-3.016,2.439S2019.757,353.427,2020.511,351.2Z" transform="translate(-1969.804 -326.337)" fill="#573127"/>
      <path id="Path_46265" data-name="Path 46265" d="M1706.062,153.78l-2.145,3.873-2.695.8c-3.759-.145-5.534,1.02-7.178,2.606-2.367,2.284-3.142,6.5-3.142,6.5a15.232,15.232,0,0,1,.813-5.982,11.135,11.135,0,0,1,3.958-5.4,13.439,13.439,0,0,1,7.56-2.732,10.355,10.355,0,0,1,1.863.116A6.063,6.063,0,0,1,1706.062,153.78Z" transform="translate(-1667.191 -149.402)" fill="#794230"/>
      <path id="Path_46266" data-name="Path 46266" d="M1744.087,192.174c.6.02,1.633.3,1.652,1.271l-1.111.406a5.794,5.794,0,0,0-4.276,1.506c.054-.6-.765-.88-.429-1.364A6.078,6.078,0,0,1,1744.087,192.174Z" transform="translate(-1712.186 -184.986)" fill="#573127"/>
      <path id="Path_46267" data-name="Path 46267" d="M1691.718,194.543a11.012,11.012,0,0,1,4.24-5.223c-.554.713-1.122,1.609-1.914,4.706-2.367,2.284-3.142,6.5-3.142,6.5A15.208,15.208,0,0,1,1691.718,194.543Z" transform="translate(-1667.192 -182.365)" fill="#573127"/>
      <path id="Path_46268" data-name="Path 46268" d="M1968.378,234.864c.389-.081.163-3.577-1.746-6.36-1.565-2.28-4.029-3.671-4.634-3.62-.569.106,1.261-.024,4.074,4.256C1968.711,233.153,1968.141,234.928,1968.378,234.864Z" transform="translate(-1916.186 -215.037)" fill="#573127"/>
      <path id="Path_46269" data-name="Path 46269" d="M1823.767,166.588c-.081-.189.293-.813,1.163-1.1a2.136,2.136,0,0,1,1.843.481c.13.125-1.123-.013-1.718.206C1824.523,166.365,1823.887,166.866,1823.767,166.588Z" transform="translate(-1789.278 -160.411)" fill="#573127"/>
      <path id="Path_46270" data-name="Path 46270" d="M1822.353,182.223c.383-.232,1.21-.163,1.219,0,.014.276-1.138.706-1.362.529S1822.172,182.332,1822.353,182.223Z" transform="translate(-1787.764 -175.708)" fill="#573127"/>
      <path id="Path_46271" data-name="Path 46271" d="M1980.671,310.267s-2.046,3.129-2.53,3.2a11.634,11.634,0,0,0-.2-4.959h0c-.267-.919-.5-1.645-.68-2.35-.072-.33,1.551-2.231.983-5.626.661-.052,1.606,2.413,2.927,5.6C1981.932,307.966,1980.671,310.267,1980.671,310.267Z" transform="translate(-1930.303 -284.534)" fill="#794230"/>
      <path id="Path_46272" data-name="Path 46272" d="M1964.407,254.916a10.2,10.2,0,0,1,3.151,7.292,7.732,7.732,0,0,1-1.456,4.162,21.092,21.092,0,0,1-.671-2.129c-.038-.176.406-.8.742-1.859C1966.08,259.175,1964.142,254.7,1964.407,254.916Z" transform="translate(-1918.472 -242.621)" fill="#573127"/>
      <path id="Path_46273" data-name="Path 46273" d="M1992.755,387.284c1.626.373.133,2.6-2.221,4.3-.537.732-1.1,1.426-1.324,1.458.2-1.21.344-3.907.547-3.947C1990.723,388.905,1991.824,387.071,1992.755,387.284Z" transform="translate(-1941.281 -364.22)" fill="#573127"/>
      <path id="Path_46274" data-name="Path 46274" d="M1801.485,203.634c.6.211-.04,2.377-.836,3.862-.947,1.769-2.584,3.513-4.2,3.018C1794.569,209.786,1798.535,203.493,1801.485,203.634Z" transform="translate(-1763.746 -195.513)" fill="#794230"/>
      <path id="Path_46275" data-name="Path 46275" d="M1709.964,203.1c.155.228-3.3,2.935-6.655,3.678-1.682.373-4.567.459-5.019-.488-.414-.944,1.883-2.646,4.146-3.509C1704.817,201.879,1709.221,201.758,1709.964,203.1Z" transform="translate(-1673.967 -194.104)" fill="#794230"/>
      <path id="Path_46276" data-name="Path 46276" d="M1706.778,221.238a14.6,14.6,0,0,0,5.31-.959c1.206-.509,2.423-1.649,3.9-2.333.65-.3,1.491,0,1.169.412-.625.8-2.48,2.52-3.089,3.869a7.373,7.373,0,0,1,1.707-3.045,15.532,15.532,0,0,1-4.662,2.044,9.392,9.392,0,0,1-4.379.007A.334.334,0,0,0,1706.778,221.238Z" transform="translate(-1681.765 -208.552)" fill="#573127"/>
      <path id="Path_46277" data-name="Path 46277" d="M1998.158,396.811c.52-1.317,1.545-3.975,3.626-2.9a2.979,2.979,0,0,1,.991,3.8,6.429,6.429,0,0,1-2.855,3.712c-.946.512-2.52.657-2.426.177C1998.026,398.813,1997.639,398.128,1998.158,396.811Z" transform="translate(-1948.888 -370.097)" fill="#e2a171"/>
      <path id="Path_46278" data-name="Path 46278" d="M1993.508,413.3c.39-.989,1.159-2.984,2.722-2.174a2.236,2.236,0,0,1,.744,2.85,5.8,5.8,0,0,1-2.2,3.171c-.71.384-1.986.743-1.918.382C1993.262,415.439,1993.117,414.291,1993.508,413.3Z" transform="translate(-1944.632 -385.965)" fill="#ffd497"/>
      <path id="Path_46279" data-name="Path 46279" d="M1650.35,219,1659,224.15l13.5,4.908c-1.5,1.037-6.057,1.707-11.588,1.328a42.912,42.912,0,0,1-14.48-3.843c-4.238-2.107-5.315-4.166-4.332-5.24C1643.4,219.866,1647.125,218.984,1650.35,219Z" transform="translate(-1622.07 -209.63)" fill="#a61b23"/>
      <path id="Path_46280" data-name="Path 46280" d="M1658.972,216.829l8.713,5.169,13.607,4.926c-1.515,1.041-6.114,1.717-11.694,1.342a43.355,43.355,0,0,1-14.6-3.85c-4.27-2.114-5.353-4.179-4.362-5.26C1651.966,217.708,1655.721,216.818,1658.972,216.829Z" transform="translate(-1629.921 -207.638)" fill="#e73739"/>
      <path id="Path_46281" data-name="Path 46281" d="M1670.031,278.708c1.638.467,5.862,1.425,5.862,1.425a43.355,43.355,0,0,1-14.6-3.85,11.8,11.8,0,0,1-4.146-2.992C1660.448,275.678,1665.248,277.345,1670.031,278.708Z" transform="translate(-1636.216 -259.509)" fill="#ff6c66"/>
      <path id="Path_46282" data-name="Path 46282" d="M1699.4,216.829l8.712,5.169,13.522,4.8a3.294,3.294,0,0,1-2.069.415c-7.836-.569-15.55-2.849-18.062-4.166-9.2-3.217-7.106-5.445-6.737-5.551A17.73,17.73,0,0,1,1699.4,216.829Z" transform="translate(-1670.346 -207.638)" fill="#a61b23"/>
      <path id="Path_46283" data-name="Path 46283" d="M1929.443,108.717c1.3-.163,9.821,2.371,13.056,8.241,1.719,3.119,1.811,9.375,1.485,10.168-.415,1.007-6.4,1.167-14.371-.641C1929.063,126.341,1929.077,108.763,1929.443,108.717Z" transform="translate(-1886.133 -108.308)" fill="#a61b23"/>
      <path id="Path_46284" data-name="Path 46284" d="M1930.24,110.551a15.713,15.713,0,0,1,.175-1.834c1.3-.163,9.821,2.371,13.056,8.241a12.638,12.638,0,0,1,1.169,3.569C1940.681,110.766,1930.24,110.551,1930.24,110.551Z" transform="translate(-1887.105 -108.308)" fill="#e73739"/>
      <path id="Path_46285" data-name="Path 46285" d="M1731.206,104.389c-.7-.708-6.734-1.394-12.567,1.471-2.163,1.045-5.313,4.774-5.805,7.263-.1,1.022,1.621,2.091,1.889,2.159C1715.241,115.416,1731.9,105.1,1731.206,104.389Z" transform="translate(-1687.368 -103.768)" fill="#a61b23"/>
      <path id="Path_46286" data-name="Path 46286" d="M1724.5,124.925a54.339,54.339,0,0,0,15.887,3.182c1.64-3.089,1.3-10.6.957-12.1-.894-3.914-4.852-5.8-5.847-6.1-1.181-.359-8.38-.011-11.463,1.827a14.346,14.346,0,0,0-6.316,7.317C1717.349,119.933,1719.272,122.893,1724.5,124.925Z" transform="translate(-1691.823 -109.293)" fill="#e73739"/>
      <path id="Path_46287" data-name="Path 46287" d="M1879.561,123.945c-.645-4.39-4.536-6.7-5.137-6.695-1.229.007-3.784,1.125-5.192,4.281C1868.439,123.307,1879.78,125.431,1879.561,123.945Z" transform="translate(-1831.02 -116.154)" fill="#ff6c66"/>
      <path id="Path_46288" data-name="Path 46288" d="M1419.276,589.284c.076.141,5.339-.368,9.75-.85,3.127-.343,5.821-.671,5.918-.742.081-.058.227-3.688.325-6.548.2-5.808.367-14.558.223-14.753-.214-.29-10.168-3.027-10.524-3.089s-17.141,1.1-17.1,1.545C1407.72,569.1,1419.168,589.084,1419.276,589.284Z" transform="translate(-1407.196 -525.942)" fill="#f4ba5b"/>
      <path id="Path_46289" data-name="Path 46289" d="M1671.429,818.334a3.018,3.018,0,0,0,.178-.948c.068-.689.762-1.066,1.372-1.219a.362.362,0,0,0,.253-.437c-.189-.779.813-.827,1.371-.88a16.165,16.165,0,0,0,2.563-.609,37.38,37.38,0,0,1-.244,4.047c-.1.07-2.675.385-5.713.719A2.491,2.491,0,0,1,1671.429,818.334Z" transform="translate(-1649.133 -756.482)" fill="#99723b"/>
      <path id="Path_46290" data-name="Path 46290" d="M1419.425,564.052c.513-.163,16.273-1.626,16.059-1.918s-11.374-3.4-11.729-3.466-15.974,1.473-15.9,1.923c-.041,1.2,3.577,8.748,3.577,8.748S1418.912,564.215,1419.425,564.052Z" transform="translate(-1407.188 -521.685)" fill="#d8af6f"/>
      <path id="Path_46291" data-name="Path 46291" d="M1479.026,576.21c-.057-.007-16.062,1.57-16.1,1.728a8.031,8.031,0,0,0,1.072,1.906c.2.161,1.8-.942,1.951-.967s16.127-1.846,16.153-1.894S1479.083,576.217,1479.026,576.21Z" transform="translate(-1457.784 -537.802)" fill="#b69049"/>
      <path id="Path_46292" data-name="Path 46292" d="M1475,573.25c-.057-.007-16.057,1.571-16.1,1.728a7.921,7.921,0,0,0,1.072,1.91c.2.163,1.8-.943,1.951-.968s16.043-1.788,16.068-1.841S1475.06,573.257,1475,573.25Z" transform="translate(-1454.088 -535.083)" fill="#d9b890"/>
      <path id="Path_46293" data-name="Path 46293" d="M1399.64,601.389c.127.24,12.012,4.42,12.167,4.309s.514-20.6.3-20.889-11.724-3.788-11.926-3.56S1399.641,600.826,1399.64,601.389Z" transform="translate(-1399.64 -542.422)" fill="#dda34e"/>
      <path id="Path_46294" data-name="Path 46294" d="M1470.261,620.546l.375-20.295c0-.15-.063-.292-.148-.318s-.154.074-.156.223L1470,620.432Z" transform="translate(-1464.281 -559.594)" fill="#7c582c"/>
      <path id="Path_46295" data-name="Path 46295" d="M1458.019,594.771s-.2,7.379-.221,7.54a14.422,14.422,0,0,1-3.187-.79l.04-7.751Z" transform="translate(-1450.142 -553.935)" fill="#7c582c"/>
      <path id="Path_46296" data-name="Path 46296" d="M1460.865,595.377c.024.093-.155,6.845-.178,7.006a15.1,15.1,0,0,1-2.937-1.124s.081-6.726.1-6.809A19.963,19.963,0,0,1,1460.865,595.377Z" transform="translate(-1453.026 -554.554)" fill="#dda34e"/>
      <path id="Path_46297" data-name="Path 46297" d="M1425.707,578l-1.067.2,2.476,1.084,6.456,1.959s10.038-.869,10.081-1.106-2.53-.988-2.53-.988Z" transform="translate(-1422.608 -539.447)" fill="#7c582c"/>
      <path id="Path_46298" data-name="Path 46298" d="M1439.342,456.954c.052.081,3.626-.2,6.362-.462,1.933-.187,3.595-.366,3.653-.406a23.7,23.7,0,0,0,.033-2.851c-.039-3.272-.177-8.2-.272-8.315-.141-.163-6.412-1.784-6.636-1.823s-10.75.494-10.713.753C1431.8,446.27,1439.267,456.84,1439.342,456.954Z" transform="translate(-1429.157 -415.509)" fill="#f4ba5b"/>
      <path id="Path_46299" data-name="Path 46299" d="M1439.155,445.935c.318-.089,10.1-.813,9.961-.976s-6.412-1.784-6.636-1.823-10.774.5-10.713.753c.009.682,2.51,5,2.51,5S1438.838,446.024,1439.155,445.935Z" transform="translate(-1429.156 -415.546)" fill="#d8af6f"/>
      <path id="Path_46300" data-name="Path 46300" d="M1477.021,450.75c-.036,0-10.026.776-10.046.865a4.764,4.764,0,0,0,.732,1.092c.129.094,1.107-.524,1.2-.537s10.037-.933,10.051-.961S1477.057,450.755,1477.021,450.75Z" transform="translate(-1461.501 -422.542)" fill="#b69049"/>
      <path id="Path_46301" data-name="Path 46301" d="M1474.461,449.05c-.036,0-10.027.775-10.046.864a4.737,4.737,0,0,0,.732,1.092c.129.093,1.107-.523,1.2-.537s9.988-.9,10-.93S1474.495,449.054,1474.461,449.05Z" transform="translate(-1459.149 -420.98)" fill="#d9b890"/>
      <path id="Path_46302" data-name="Path 46302" d="M1429.584,462.235c.087.137,7.656,2.713,7.749,2.652s.051-10.84-.089-11.006a74.6,74.6,0,0,0-7.617-2.106C1429.506,451.9,1429.5,462.1,1429.584,462.235Z" transform="translate(-1427.097 -423.478)" fill="#dda34e"/>
      <path id="Path_46303" data-name="Path 46303" d="M1472.328,473.668l.182-10.626a.193.193,0,0,0-.1-.18c-.054-.015-.1.041-.1.125l-.156,10.615Z" transform="translate(-1466.265 -433.666)" fill="#7c582c"/>
      <path id="Path_46304" data-name="Path 46304" d="M1463.291,459.829s0,4.163-.01,4.254a12.537,12.537,0,0,1-2.2-.552l.072-4.291Z" transform="translate(-1456.086 -430.342)" fill="#7c582c"/>
      <path id="Path_46305" data-name="Path 46305" d="M1465.795,460.192c.016.053.02,3.863.008,3.953a11.835,11.835,0,0,1-1.973-.688s.041-3.763.047-3.81A14.258,14.258,0,0,1,1465.795,460.192Z" transform="translate(-1458.612 -430.713)" fill="#dda34e"/>
      <path id="Path_46306" data-name="Path 46306" d="M1455.94,448.94c-.1,0-.732.1-.691.178s4.8,1.739,5.04,1.758,5.909-.533,6.165-.593-.613-.593-.613-.593Z" transform="translate(-1450.727 -420.879)" fill="#7c582c"/>
      <path id="Path_46307" data-name="Path 46307" d="M1464.755,375.711c.031.049,2.2-.12,3.86-.28,1.174-.114,2.182-.223,2.218-.244a14.268,14.268,0,0,0,.019-1.73c-.023-1.985-.107-4.978-.162-5.045-.081-.1-3.891-1.083-4.026-1.106s-6.523.3-6.5.457C1460.179,369.231,1464.71,375.642,1464.755,375.711Z" transform="translate(-1455.24 -345.881)" fill="#f4ba5b"/>
      <path id="Path_46308" data-name="Path 46308" d="M1464.614,368.966c.193-.054,6.13-.493,6.044-.593s-3.891-1.083-4.027-1.106-6.539.3-6.5.457a21.208,21.208,0,0,0,1.523,3.036S1464.421,369.02,1464.614,368.966Z" transform="translate(-1455.211 -345.844)" fill="#d8af6f"/>
      <path id="Path_46309" data-name="Path 46309" d="M1487.614,371.91c-.022,0-6.085.47-6.1.524a2.874,2.874,0,0,0,.443.663c.078.056.672-.318.732-.325s6.091-.569,6.1-.583S1487.635,371.912,1487.614,371.91Z" transform="translate(-1474.86 -350.111)" fill="#b69049"/>
      <path id="Path_46310" data-name="Path 46310" d="M1486.033,370.87c-.021,0-6.084.471-6.1.525a2.86,2.86,0,0,0,.443.663c.078.057.672-.318.728-.325s6.062-.549,6.07-.569S1486.055,370.873,1486.033,370.87Z" transform="translate(-1473.409 -349.156)" fill="#f4ba5b"/>
      <path id="Path_46311" data-name="Path 46311" d="M1458.832,378.877c.053.081,4.646,1.646,4.7,1.609s.031-6.578-.055-6.678a45.146,45.146,0,0,0-4.622-1.278C1458.784,372.609,1458.779,378.794,1458.832,378.877Z" transform="translate(-1453.988 -350.677)" fill="#dda34e"/>
      <path id="Path_46312" data-name="Path 46312" d="M1484.772,385.812l.111-6.448a.117.117,0,0,0-.06-.11c-.032-.009-.058.025-.057.076l-.1,6.443Z" transform="translate(-1477.758 -356.857)" fill="#7c582c"/>
      <path id="Path_46313" data-name="Path 46313" d="M1479.292,377.444s0,2.527-.006,2.582a7.656,7.656,0,0,1-1.336-.335l.043-2.6Z" transform="translate(-1471.584 -354.87)" fill="#7c582c"/>
      <path id="Path_46314" data-name="Path 46314" d="M1480.793,377.63c.01.032.012,2.344,0,2.4a7.178,7.178,0,0,1-1.2-.417s.025-2.284.028-2.313A8.593,8.593,0,0,1,1480.793,377.63Z" transform="translate(-1473.1 -355.061)" fill="#dda34e"/>
      <path id="Path_46315" data-name="Path 46315" d="M1854.1,614.785c-1.049,2.63-2.038,5.515-4.417,7.452-.338.276.482,1.3,1.128,1.758a4.329,4.329,0,0,0,2.822.452c.747-.346,1-1.258,1.277-1.733.71-1.238,2.458-4.835,2.833-5.6.993-2.014,1.323-3.459.672-5.14a3.827,3.827,0,0,0-1.845-1.916C1856.319,609.952,1854.746,611.364,1854.1,614.785Z" transform="translate(-1813.021 -568.897)" fill="#e2a171"/>
      <path id="Path_46316" data-name="Path 46316" d="M1779.428,753.612c.175-1.145-1.472-2.237-2.5-2.406a3.209,3.209,0,0,0-2.158.737s-4.613,4.209-6.238,4.84a9.88,9.88,0,0,1,2.105,2.927c1.209-1.138,5.04-2.967,6.522-3.821C1778.061,755.362,1779.339,754.33,1779.428,753.612Z" transform="translate(-1738.541 -698.549)" fill="#ffd497"/>
      <path id="Path_46317" data-name="Path 46317" d="M1705.991,870.585a.414.414,0,0,1,.325.026,2.691,2.691,0,0,0,1.4.081,5.792,5.792,0,0,0,2.01-.849l.172-.1c.212-.125.476.014.594.31a.655.655,0,0,1-.162.774c-.053.033-.108.068-.163.1a6.57,6.57,0,0,1-2.243,1,3.422,3.422,0,0,1-1.932-.122.731.731,0,0,1-.319-.842A.543.543,0,0,1,1705.991,870.585Z" transform="translate(-1680.766 -807.428)" fill="#e2a171"/>
      <path id="Path_46318" data-name="Path 46318" d="M1690.658,862.134a.436.436,0,0,1,.336.03,2.846,2.846,0,0,0,1.449.1,6.038,6.038,0,0,0,2.091-.83l.18-.1c.22-.124.493.021.612.321a.646.646,0,0,1-.179.779l-.172.1a6.806,6.806,0,0,1-2.333.982,3.65,3.65,0,0,1-2-.147.738.738,0,0,1-.325-.856A.549.549,0,0,1,1690.658,862.134Z" transform="translate(-1666.654 -799.704)" fill="#ffd497"/>
      <path id="Path_46319" data-name="Path 46319" d="M1691.043,862.134a.436.436,0,0,1,.336.03,2.846,2.846,0,0,0,1.449.1,6.04,6.04,0,0,0,2.091-.83l.18-.1c.22-.124.494.021.612.321a.646.646,0,0,1-.179.779c-.055.033-1.091-.528-1.151-.492a2.86,2.86,0,0,1-3.68.574A.549.549,0,0,1,1691.043,862.134Z" transform="translate(-1667.039 -799.704)" fill="#e2a171"/>
      <path id="Path_46320" data-name="Path 46320" d="M1682.123,844.869c.109-.03,1.063-.034,1.6-.1a7.728,7.728,0,0,0,2.406-1.291,2.829,2.829,0,0,1,.628.932.624.624,0,0,1-.2.767l-.177.1a6.917,6.917,0,0,1-2.389.894,3.8,3.8,0,0,1-2.032-.219.733.733,0,0,1-.312-.863C1681.71,844.891,1681.968,844.912,1682.123,844.869Z" transform="translate(-1658.688 -783.341)" fill="#ffd497"/>
      <path id="Path_46321" data-name="Path 46321" d="M1696.769,845.047a2.475,2.475,0,0,0,1.445-.894,6.522,6.522,0,0,0,.415-.672,7.73,7.73,0,0,1-2.406,1.291,6.206,6.206,0,0,1-1,.081C1695.671,845.252,1696.368,845.088,1696.769,845.047Z" transform="translate(-1671.191 -783.345)" fill="#e2a171"/>
      <path id="Path_46322" data-name="Path 46322" d="M1690.524,828.775a.528.528,0,0,1,.569.391.609.609,0,0,1-.2.764,3.406,3.406,0,0,0-.332.219,5.713,5.713,0,0,1-1.645.876l-.023.007c-.376.1-2.3.337-2.449-.809.219-.748.877,0,2.148-.428l.017,0a4.873,4.873,0,0,0,1.419-.724,3.639,3.639,0,0,1,.439-.268A.43.43,0,0,1,1690.524,828.775Z" transform="translate(-1663.125 -769.826)" fill="#ffd497"/>
      <path id="Path_46323" data-name="Path 46323" d="M1734.053,822.885s-2.35,2.56-3.422,2.636c-1.119.081-2.155-3.587-1.936-4.492a3.05,3.05,0,0,1,2.862-1.126C1732.867,820.024,1734.053,822.885,1734.053,822.885Z" transform="translate(-1701.918 -761.672)" fill="#ffd497"/>
      <path id="Path_46324" data-name="Path 46324" d="M1765.408,821.716a5.7,5.7,0,0,1,.236,2.285A11.643,11.643,0,0,0,1767,822.61s-.888-2.845-2.772-2.659A2.271,2.271,0,0,1,1765.408,821.716Z" transform="translate(-1734.591 -761.721)" fill="#e2a171"/>
      <path id="Path_46325" data-name="Path 46325" d="M1710.149,818.356a2.989,2.989,0,0,0-2.3-.072,6.546,6.546,0,0,1-2.348.468c-.221-.007-.406.65.244.877s1.476-.128,1.739-.051C1709.066,820.362,1710.324,818.883,1710.149,818.356Z" transform="translate(-1680.447 -760.017)" fill="#ffd497"/>
      <path id="Path_46326" data-name="Path 46326" d="M1881.012,609.223a7.066,7.066,0,0,1,.12,3.138,11.565,11.565,0,0,1-1.081,3.87c-.315.678-1.719.65-1.742.741a5.285,5.285,0,0,1-.664.4s-3.429-.835-3.181-1.789c.124-.481-.708-.756-.748-1.712-.067-1.592.975-2.354,1.3-3.217.1-.732,1.6-3.957,3.138-3.9A3.625,3.625,0,0,1,1881.012,609.223Z" transform="translate(-1835.173 -565.861)" fill="#e73739"/>
      <path id="Path_46327" data-name="Path 46327" d="M1883.367,632.428a8.074,8.074,0,0,1,2.132-2.716c.344-.176.368,1.463,0,1.906S1883.3,632.717,1883.367,632.428Z" transform="translate(-1844.041 -586.943)" fill="#a61b23"/>
      <path id="Path_46328" data-name="Path 46328" d="M1872.516,653.415c-.028.587.74,1.219.52,1.7a2.217,2.217,0,0,1-1.2-.578c-.313-.352-.789-.617-.762-1.334a12.4,12.4,0,0,1,1.235-3.489A15.991,15.991,0,0,0,1872.516,653.415Z" transform="translate(-1832.751 -605.327)" fill="#a61b23"/>
      <path id="Path_46329" data-name="Path 46329" d="M1921.36,657.864c.376-.014.834-2.214.95-2.2-.251,2.239-1,5.066-1.458,5.154-.432.145-2.1-.342-2.139-.691S1920.987,657.877,1921.36,657.864Z" transform="translate(-1876.515 -610.793)" fill="#ff6c66"/>
      <path id="Path_46330" data-name="Path 46330" d="M1879.774,710.788a28.83,28.83,0,0,1-4.606-1.788s-.524.823-.463,1.153a22.362,22.362,0,0,0,4.488,1.822C1879.459,711.971,1879.774,710.788,1879.774,710.788Z" transform="translate(-1836.08 -659.797)" fill="#4a4238"/>
      <path id="Path_46331" data-name="Path 46331" d="M1876.36,709.624c-.1.272-.181.556-.289.83-.047.121-.094.244-.137.364a5.575,5.575,0,0,1-1.23-.625c-.061-.329.464-1.153.464-1.153A8.658,8.658,0,0,0,1876.36,709.624Z" transform="translate(-1836.08 -659.834)" fill="#332c24"/>
    </g>
  </g>
</svg>
